<svg width="117" height="128" fill="none" xmlns="http://www.w3.org/2000/svg"><path d="M59.758 5.683C50.925 1.798 36.76-.95 33.481 2.077c-3.428 3.165 2.803 18.623 6.562 24.64L59.758 5.683Z" fill="#F9A528"/><path d="m40.043 26.717 7.989-8.522 11.726-12.51C50.925 1.8 36.761-.95 33.482 2.076c-.36.334-.613.799-.773 1.377-1.374 4.929 3.97 17.88 7.334 23.263Z" fill="#fff"/><path d="m40.043 26.717 7.989-8.522c.091-2.695-.206-6.118-1.665-9.476-1.511-3.48-9.87-7.457-13.658-5.265-1.374 4.929 3.97 17.88 7.334 23.263Z" fill="#371A45" opacity=".25"/><path d="m39.92 27.994-.54-.862c-3.014-4.825-10.678-21.705-6.429-25.629 3.789-3.498 18.594-.286 27.121 3.464l1.01.444L39.92 27.994ZM38.793 1.551c-2.237 0-3.955.334-4.782 1.099-2.684 2.478 2.24 16.012 6.168 22.777L58.422 5.962c-6.185-2.54-14.352-4.41-19.628-4.41Z" fill="#000072"/><path d="M76.806 110.814c4.283.62 22.903 7.381 30.016 7.381 6.69 0 9.944-6.961 9.105-13.025-1.19-8.6-8.485-8.356-10.957-6.203 0 0-9.55-5.312-15.03-6.665" fill="#fff"/><path d="M115.205 111.889c-1.325 3.553-4.173 6.307-8.381 6.307-7.114 0-25.733-6.76-30.016-7.38l2.447-3.449 10.687-15.065c5.479 1.355 15.03 6.667 15.03 6.667 2.471-2.153 9.768-2.398 10.957 6.202.309 2.252.057 4.623-.724 6.718ZM72.928 91.385s4.014 6.124-6.283 15.131c-23.285 20.366-55.11-.764-52.925 12.852.436 2.722-6.742-2.923-8.479-7.585-1.834-4.925 6.298-9.295 13.762-9.428 11.735.341 30.273 3.875 36.392-8.063 4.881-9.523 6.042-13.072 6.042-13.072" fill="#fff"/><path d="M66.645 106.516a37.112 37.112 0 0 1-4.857 3.603c-22.601 14.048-50.103-3.44-48.07 9.249a.93.93 0 0 1-.012.444c-.51 1.508-6.85-3.686-8.466-8.028-1.835-4.925 6.299-9.295 13.758-9.429 11.74.341 30.279 3.875 36.396-8.063 4.882-9.524 6.043-13.072 6.043-13.072l11.49 10.168s4.015 6.122-6.282 15.128Z" fill="#fff"/><path d="M61.788 110.118c-22.601 14.048-50.103-3.44-48.07 9.249a.934.934 0 0 1-.012.445c-1.692-2.617-3.842-7.176-1.398-10.846 2.885-4.326 17.373 7.315 38.429-4.46 6.448-3.606 9.579.163 11.05 5.612Z" fill="#371A45" opacity=".25"/><path d="M30.432 122.142a6.79 6.79 0 0 1-1.124 1.405l-14.044-1.624s-6.606-7.474-2.955-12.958c1.03-1.545 3.54-1.05 7.302-.318-.497 2.104-.682 2.427 1.79 2.928.696.138 1.6.295 2.766.506 6.685 1.219 8.505 6.315 6.265 10.061Z" fill="#371A45" opacity=".25"/><path d="M30.434 122.144a6.73 6.73 0 0 1-1.122 1.403l-14.048-1.624s-6.606-7.474-2.954-12.958c.871-1.305 2.798-1.156 5.643-.635.152.873.204 1.891.136 3.08 0 0 1.482.057 3.313.165.695.138 1.6.294 2.766.506 4.384.8 6.676 3.264 7.1 5.927.227 1.397-.065 2.845-.834 4.136Z" fill="#371A45" opacity=".25"/><path d="M13.33 120.842c-2.252 0-7.427-5.08-8.81-8.791-.577-1.551-.343-3.162.676-4.657 2.226-3.262 8.028-5.705 13.79-5.807h.037c1.863.054 3.88.187 6.012.327 11.028.728 24.751 1.633 29.676-7.974 4.778-9.325 5.984-12.925 5.996-12.96a.769.769 0 0 1 1.461.477c-.048.147-1.236 3.714-6.088 13.183-5.385 10.505-19.67 9.564-31.146 8.807-2.111-.139-4.106-.271-5.938-.325-5.213.096-10.597 2.305-12.529 5.137-.737 1.081-.908 2.176-.505 3.256 1.253 3.364 5.424 7.093 6.959 7.707-.239-1.789.077-3.115.966-4.045 2.024-2.119 6.516-1.611 12.733-.907 10.578 1.194 26.563 3.001 39.519-8.331 9.604-8.4 6.289-13.906 6.143-14.134a.768.768 0 1 1 1.29-.838c.18.273 4.26 6.791-6.42 16.13-13.468 11.775-29.858 9.924-40.704 8.699-5.56-.629-9.952-1.125-11.45.443-.577.605-.747 1.588-.52 3.008.152.945-.334 1.424-.84 1.558a1.286 1.286 0 0 1-.309.037Z" fill="#000072"/><path d="M68.932 110.814c-4.282.62-22.902 7.381-30.015 7.381-6.69 0-9.944-6.961-9.105-13.025 1.19-8.6 8.485-8.356 10.957-6.203 0 0 9.55-5.312 15.029-6.665" fill="#fff"/><path d="M68.932 110.814c-4.283.62-22.902 7.38-30.015 7.38-4.178 0-7.015-2.712-8.352-6.227-.806-2.115-1.068-4.519-.754-6.798 1.19-8.6 8.487-8.356 10.958-6.202 0 0 9.549-5.312 15.03-6.666l10.69 15.069 2.443 3.444Z" fill="#fff"/><path d="M68.932 110.814c-4.282.62-22.901 7.38-30.015 7.38-4.178 0-7.015-2.712-8.352-6.227 1.5 1.841 3.66 3.568 6.461 3.479 5.503-.177 6.311-6.217 6.311-6.217s4.128 3.155 6.58 1.519c3.128-2.086-.61-8.356-.61-10.356 0-1.763 4.765 5.1 17.183 6.978l2.442 3.444ZM115.205 111.889c-1.325 3.553-4.173 6.307-8.381 6.307-7.114 0-25.733-6.76-30.016-7.38l2.447-3.45c12.39-1.887 17.147-8.733 17.147-6.971 0 2-3.74 8.27-.611 10.356 2.453 1.636 6.579-1.519 6.579-1.519s.812 6.04 6.312 6.217c2.839.088 5.022-1.689 6.523-3.56Z" fill="#371A45" opacity=".25"/><path d="m94.281 101.301-7.932 10.878c-3.153.834-7.85 1.722-13.493 1.722-5.644 0-10.34-.888-13.495-1.722l-7.888-10.846c3.106 2.181 9.778 6.504 21.383 6.504 11.657 0 18.338-4.367 21.425-6.536Z" fill="#371A45" opacity=".25"/><path d="M38.917 118.965c-2.756 0-5.17-1.098-6.98-3.173-2.327-2.669-3.433-6.778-2.887-10.725.724-5.23 3.587-7.043 5.23-7.658 2.443-.915 5.026-.393 6.557.645 1.969-1.073 9.872-5.285 14.776-6.497l.37 1.492c-5.317 1.313-14.746 6.538-14.841 6.591l-.472.263-.407-.355c-1.066-.928-3.337-1.489-5.447-.7-1.615.605-3.663 2.211-4.246 6.43-.486 3.519.478 7.163 2.523 9.502 1.51 1.732 3.522 2.647 5.82 2.647 4.455 0 13.943-2.841 20.872-4.915 4.157-1.245 7.445-2.229 9.034-2.459l.22 1.521c-1.477.214-4.876 1.232-8.813 2.41-7.407 2.22-16.63 4.981-21.31 4.981Z" fill="#000072"/><path d="M41.343 98.457c2.02 2.5 2.672 5.852 2.344 8.997-.062.478-.773.43-.765-.054.048-2.319-.493-4.745-1.752-6.708-.143-.206-.311-.426-.459-.632l-.514-.58c-.765-.799.443-1.879 1.147-1.023h-.001Z" fill="#000072"/><path d="M36.382 114.122c1.95 0 3.53-1.762 3.53-3.935 0-2.174-1.58-3.935-3.53-3.935-1.949 0-3.529 1.761-3.529 3.935 0 2.173 1.58 3.935 3.53 3.935ZM39.673 106.491c.716 0 1.296-.647 1.296-1.445s-.58-1.446-1.296-1.446c-.716 0-1.296.648-1.296 1.446 0 .798.58 1.445 1.296 1.445ZM32.853 107.079c.716 0 1.296-.647 1.296-1.445 0-.799-.58-1.446-1.296-1.446-.716 0-1.296.647-1.296 1.446 0 .798.58 1.445 1.296 1.445ZM36.08 105.634c.795 0 1.44-.718 1.44-1.604 0-.886-.645-1.604-1.44-1.604-.794 0-1.437.718-1.437 1.604 0 .886.643 1.604 1.438 1.604Z" fill="#FF8080"/><path d="M22.74 120.616a11.294 11.294 0 0 1-1.122-1.019c.398.312.774.652 1.123 1.019Z" fill="#FFF3E9"/><path d="M106.822 118.965c-4.68 0-13.902-2.761-21.311-4.979-3.937-1.179-7.337-2.197-8.814-2.411l.22-1.521c1.59.231 4.875 1.214 9.035 2.46 6.928 2.073 16.417 4.914 20.871 4.914 2.298 0 4.311-.915 5.82-2.646 2.043-2.343 3.01-5.985 2.523-9.503-.583-4.219-2.631-5.825-4.245-6.429-2.109-.79-4.379-.229-5.447.7l-.407.354-.47-.264c-.095-.053-9.524-5.277-14.84-6.59l.37-1.492c4.904 1.212 12.805 5.424 14.776 6.497 1.529-1.037 4.113-1.559 6.557-.645 1.643.615 4.506 2.428 5.23 7.658.545 3.947-.561 8.056-2.888 10.725-1.811 2.075-4.224 3.172-6.98 3.172Z" fill="#000072"/><path d="M105.543 99.48c-1.983 2.074-2.771 5.079-2.726 7.896a.386.386 0 0 1-.343.421.384.384 0 0 1-.422-.343 13.494 13.494 0 0 1-.057-2.344c.103-1.773.536-3.546 1.378-5.13.145-.254.319-.53.472-.783.116-.165.43-.573.552-.74.701-.854 1.911.22 1.146 1.023Z" fill="#000072"/><path d="M109.356 114.122c1.95 0 3.53-1.762 3.53-3.935 0-2.174-1.58-3.935-3.53-3.935-1.949 0-3.529 1.761-3.529 3.935 0 2.173 1.58 3.935 3.529 3.935ZM106.066 106.491c.716 0 1.296-.647 1.296-1.445s-.58-1.446-1.296-1.446c-.716 0-1.297.648-1.297 1.446 0 .798.581 1.445 1.297 1.445ZM112.885 107.079c.716 0 1.297-.647 1.297-1.445 0-.799-.581-1.446-1.297-1.446s-1.296.647-1.296 1.446c0 .798.58 1.445 1.296 1.445ZM109.658 105.634c.794 0 1.438-.718 1.438-1.604 0-.886-.644-1.604-1.438-1.604-.795 0-1.439.718-1.439 1.604 0 .886.644 1.604 1.439 1.604Z" fill="#FF8080"/><path d="M97.808 96.464c.414-11.717-7.102-23.52-9.637-32.51-2.976-10.553-9.552-10.689-15.284-10.496h-.035c-5.734-.19-12.309-.057-15.284 10.496-2.535 8.99-10.052 20.793-9.637 32.51l11.428 15.716c3.154.832 7.85 1.719 13.494 1.719 5.645 0 10.339-.888 13.495-1.719" fill="#fff"/><path d="M97.809 96.463 86.347 112.18c-3.153.834-7.85 1.722-13.493 1.722-5.644 0-10.34-.888-13.495-1.722L47.93 96.463c-.302-8.547 3.619-17.142 6.744-24.658 1.158-2.785 2.209-5.42 2.893-7.85 2.976-10.553 9.553-10.69 15.284-10.498h.036c5.734-.19 12.308-.055 15.283 10.498.686 2.435 1.739 5.075 2.9 7.865 3.126 7.51 7.04 16.1 6.739 24.644Z" fill="#fff"/><path d="m94.235 101.333-7.888 10.846c-3.153.834-7.848 1.722-13.493 1.722-5.646 0-10.34-.888-13.495-1.722l-7.888-10.846a37.982 37.982 0 0 0 5.796 3.353c5.112 2.392-6.345-14.64-3.796-20.756.692-1.658 15.433 5.784 16.353 13.21.893 7.191 1.04 9.657 3.03 9.657 1.99 0 2.136-2.466 3.027-9.657.921-7.426 15.663-14.868 16.353-13.21 2.55 6.116-8.908 23.148-3.794 20.756a37.976 37.976 0 0 0 5.795-3.353ZM91.07 71.82c-4.796 2.483-11.178 3.995-18.183 3.995-7.018 0-13.412-1.52-18.213-4.01 1.158-2.786 2.209-5.422 2.893-7.852 2.976-10.553 9.553-10.69 15.284-10.497h.036c5.734-.19 12.308-.055 15.283 10.497.686 2.435 1.739 5.078 2.9 7.867Z" fill="#371A45" opacity=".25"/><path d="M59.457 111.809c1.963.112 4.73.595 6.695.866 5.517.82 11.243.467 16.724-.498 1.12-.168 2.23-.327 3.373-.368a.39.39 0 0 1 .375.553.393.393 0 0 1-.18.19c-.518.264-1.056.488-1.61.668-1.643.552-3.36.849-5.078 1.045-5.718.6-11.575.615-17.217-.584-1.12-.274-2.228-.618-3.279-1.13-.375-.182-.23-.772.196-.743l.001.001ZM97.424 96.45c-.365-6.785-2.537-13.252-5.06-19.51-1.703-4.254-3.665-8.404-4.952-12.84-.612-2.126-1.462-4.194-2.767-5.896-2.867-3.838-7.289-4.187-11.745-3.977-1.177-.034-2.303-.064-3.428 0-6.364.218-9.499 4.038-11.145 9.873-1.962 6.597-5.233 12.67-7.31 19.206a59.928 59.928 0 0 0-1.765 6.494c-.31 1.5-.532 3.035-.735 4.552a40.133 40.133 0 0 1-.203 2.1.386.386 0 0 1-.769.028c-.067-.576-.109-1.156-.153-1.739-.254-8.738 4.062-16.818 7.173-24.7.852-2.104 1.668-4.21 2.281-6.36.657-2.272 1.566-4.508 3.028-6.412 3.195-4.268 8.098-4.83 12.99-4.577 4.83-.243 9.77.268 12.997 4.577 1.462 1.904 2.37 4.14 3.027 6.413.614 2.149 1.429 4.255 2.28 6.359 2.541 6.31 5.666 12.669 6.786 19.487.352 2.296.471 4.642.233 6.952-.07.463-.733.46-.769-.027l.006-.002Z" fill="#000072"/><path d="M86.04 5.683c8.833-3.885 22.998-6.633 26.276-3.606 3.428 3.165-2.803 18.623-6.562 24.64L86.041 5.683Z" fill="#F9A528"/><path d="m105.753 26.717-7.989-8.522L86.038 5.684c8.833-3.882 22.997-6.632 26.276-3.605.361.334.613.799.774 1.377 1.375 4.927-3.968 17.877-7.335 23.261Z" fill="#FF6F03"/><path d="m105.754 26.717-7.99-8.522c-.091-2.695.207-6.118 1.665-9.476 1.511-3.48 9.871-7.457 13.659-5.265 1.375 4.929-3.968 17.88-7.334 23.263Z" fill="#371A45" opacity=".25"/><path d="M105.879 27.994 84.715 5.411l1.01-.444c8.529-3.749 23.334-6.962 27.122-3.463 4.249 3.922-3.415 20.803-6.429 25.628l-.539.862ZM87.376 5.964l18.242 19.465c3.929-6.766 8.852-20.3 6.168-22.777-2.777-2.565-15.599-.31-24.41 3.312Z" fill="#000072"/><path d="M35.035 50.24c.327 1.992 1.084 4.181 2.546 6.37 4.117 6.16 13.831 12.3 35.274 13.964 21.706-1.657 31.399-7.918 35.438-14.147 1.369-2.11 2.089-4.215 2.406-6.14.784-4.735-.641-8.682-.791-10.11-.981-8.671-3.244-39.37-37.009-39.39-16.883-.01-25.898 7.658-30.817 16.411-4.92 8.754-5.745 18.599-6.241 22.932-.152 1.429-1.58 5.374-.806 10.11Z" fill="#fff"/><path d="M37.547 56.633c4.121 6.163 13.845 12.311 35.308 13.977 21.727-1.658 31.43-7.926 35.472-14.16 0 0-6.116 4.403-17.807 7.247a74.975 74.975 0 0 1-35.508-.023c-10.107-2.471-16.042-6.103-17.465-7.041Z" fill="#371A45" opacity=".25"/><path d="M74.377 7.11c-.007 12.176 9.867 22.056 22.053 22.064 3.857.009 7.647-.998 10.991-2.918C104.109 14.98 96.105 1.789 75.287.843a22.023 22.023 0 0 0-.91 6.267Z" fill="#fff"/><path d="M74.377 7.11c-.007 12.176 9.867 22.056 22.053 22.064 3.857.009 7.647-.998 10.991-2.918C104.109 14.98 96.105 1.789 75.287.843a22.023 22.023 0 0 0-.91 6.267Z" fill="#FF6F03"/><path d="M39.954 22.56c-.654 2.712-1.391 5.362-1.96 8.086-.636 3.046-1.01 6.168-1.324 9.283-.1 1.07-.42 2.137-.603 3.164-1.153 5.419-.1 10.82 3.66 14.985 4.616 5.155 11.37 7.719 17.9 9.52 2.68.73 5.405 1.328 8.151 1.86a.385.385 0 0 1-.108.761c-8.421-.827-17.093-2.949-23.992-8.078-3.492-2.63-6.319-6.353-7.311-10.668-.857-3.562-.364-7.272.486-10.769.133-.584.204-1.409.278-2.003.496-4.193 1.139-8.449 2.437-12.494.458-1.346.994-2.67 1.669-3.924.216-.376.82-.18.716.277ZM79.934 69.467c9.151-1.9 19.551-4.202 26.074-11.364 4.47-5.075 4.813-10.72 3.231-17.043-.075-.37-.13-.743-.164-1.119-.311-3.117-.683-6.24-1.32-9.29-.566-2.726-1.306-5.376-1.955-8.092a.385.385 0 0 1 .236-.456.386.386 0 0 1 .481.179c.679 1.255 1.214 2.578 1.67 3.927 1.296 4.05 1.938 8.308 2.428 12.505.053.355.127 1.213.184 1.536.148.835.369 1.668.533 2.536 2.867 13.534-6.996 21.417-18.795 25.05-4.05 1.265-8.28 2.029-12.495 2.392-.46.021-.6-.638-.108-.762v.001Z" fill="#000072"/><path d="M110.703 5.076c.602 1.533-1.509 11.404-4.727 16.196-.397-.39-2.419-4.746-5.797-9.454-1.347-1.877-.839-3.032 1.235-4.465 2.92-2.016 8.875-3.33 9.289-2.277Z" fill="#FFB8B8"/><path d="M110.771 6.659c-.162 2.027-.912 5.487-2.057 8.775-.757 2.177-1.69 4.278-2.738 5.839-.396-.39-2.417-4.748-5.796-9.455-1.348-1.876-.84-3.031 1.234-4.464 2.92-2.018 8.876-3.333 9.289-2.28.108.28.129.835.068 1.585Z" fill="#FF8080"/><path d="M110.771 6.659c-2.189-.335-7.152 1.969-7.919 3.323-.651 1.151 1.034 2.702 2.07 5.344.712 1.818 2.784.764 3.792.107-.757 2.178-1.69 4.279-2.738 5.84-.396-.39-2.417-4.748-5.796-9.455-1.348-1.876-.84-3.031 1.234-4.464 2.92-2.018 8.876-3.333 9.289-2.28.108.28.129.835.068 1.585Z" fill="#F26666"/><path d="M111.307 4.839c.171.508.139.847.136 1.314-.051 1.11-.243 2.197-.458 3.272a45.303 45.303 0 0 1-2.544 8.266c-.568 1.331-1.21 2.641-2.039 3.868a.502.502 0 0 1-.597.204.498.498 0 0 1-.188-.124c-.218-.216-.378-.552-.541-.803l-.418-.72a97.686 97.686 0 0 0-2.525-4.236 64.414 64.414 0 0 0-2.533-3.728c-.729-.924-1.204-2.287-.579-3.4.445-.863 1.236-1.478 1.965-2.006.969-.673 2.01-1.176 3.099-1.587 1.37-.525 6.493-2.093 7.222-.32Zm-1.209.475a.317.317 0 0 0 .08.122c.012.012.006.005-.02 0-.798-.153-1.673.057-2.485.221-1.966.453-7.128 2.101-7.535 4.25-.064.84.803 1.8 1.253 2.51 1.247 1.844 2.378 3.759 3.436 5.712.353.649 1.007 1.897 1.362 2.536.043.086.111.175.147.242l-.783.08c2.211-3.55 3.392-7.72 4.226-11.798.187-1.02.352-2.049.382-3.074.012-.242-.003-.62-.062-.801h-.001Z" fill="#000072"/><path d="M35.096 5.076c-.603 1.533 1.508 11.404 4.726 16.196.398-.39 2.419-4.746 5.797-9.454 1.347-1.877.84-3.032-1.235-4.465-2.92-2.016-8.874-3.33-9.288-2.277Z" fill="#FFB8B8"/><path d="M35.026 6.659c.161 2.027.912 5.487 2.057 8.775.757 2.177 1.69 4.278 2.737 5.839.397-.39 2.418-4.748 5.797-9.455 1.347-1.876.84-3.031-1.234-4.464-2.92-2.018-8.876-3.333-9.288-2.28-.108.28-.128.835-.07 1.585Z" fill="#FF8080"/><path d="M35.026 6.659c2.189-.335 7.151 1.969 7.918 3.323.652 1.151-1.034 2.702-2.07 5.344-.712 1.818-2.783.764-3.79.107.756 2.178 1.688 4.279 2.736 5.84.397-.39 2.418-4.748 5.797-9.455 1.347-1.876.84-3.031-1.234-4.464-2.92-2.018-8.876-3.333-9.288-2.28-.108.28-.128.835-.07 1.585Z" fill="#F26666"/><path d="M35.7 5.314c-.055.187-.074.558-.062.8.03 1.026.197 2.054.382 3.075.832 4.076 2.015 8.248 4.226 11.797l-.785-.08c.039-.064.102-.16.147-.242.351-.635 1.009-1.883 1.362-2.536a69.126 69.126 0 0 1 3.434-5.713c.449-.71 1.319-1.672 1.253-2.51-.396-2.142-5.573-3.8-7.535-4.25-.812-.165-1.686-.375-2.484-.223-.027.008-.032.014-.02 0a.313.313 0 0 0 .08-.122l.002.004Zm-1.21-.475c.727-1.775 5.863-.205 7.225.32 1.09.41 2.13.913 3.1 1.586.728.525 1.519 1.142 1.964 2.006.621 1.115.15 2.476-.58 3.4a64.866 64.866 0 0 0-2.532 3.728 95.025 95.025 0 0 0-2.525 4.234c-.23.382-.574 1.024-.84 1.385-.2.331-.672.426-.904.06-.829-1.225-1.47-2.536-2.039-3.868a45.305 45.305 0 0 1-2.544-8.266c-.214-1.076-.407-2.162-.457-3.272-.003-.467-.035-.806.135-1.315l-.002.002ZM68.755 41.818c0 1.203 1.824 2.776 4.143 3.357 2.32-.578 4.148-2.149 4.149-3.352 0-1.043-3.111-1.29-4.147-1.29-1.035 0-4.145.242-4.145 1.285Z" fill="#000072"/><path d="M70.94 41.515c0 .364.863.839 1.959 1.014 1.099-.174 1.962-.648 1.962-1.011 0-.316-1.472-.39-1.96-.39-.486 0-1.962.072-1.962.387Z" fill="#fff" opacity=".3"/><path d="M78.032 50.273a.577.577 0 0 1-.525-.335c-.026-.055-.554-1.138-1.696-1.146h-.008c-.46 0-.826.232-1.25.5-.465.295-.993.628-1.685.628-.691 0-1.22-.334-1.685-.628-.424-.268-.79-.5-1.25-.5h-.008c-1.164.007-1.69 1.132-1.695 1.143a.575.575 0 0 1-.765.287.579.579 0 0 1-.286-.764c.033-.074.844-1.807 2.738-1.818h.015c.793 0 1.362.36 1.864.679.382.241.71.45 1.068.45.358 0 .687-.209 1.069-.45.503-.318 1.072-.679 1.863-.679h.016c1.893.01 2.704 1.744 2.737 1.818a.576.576 0 0 1-.525.815h.008ZM53.135 25.935c-.282-.58 3.008-5.307 5.865-4.87 1.63.249 2.187 2.52.943 3.282-1.02.628-6.32 2.589-6.808 1.588ZM92.604 25.935c.282-.58-3.008-5.307-5.864-4.87-1.63.249-2.187 2.52-.944 3.282 1.02.628 6.32 2.589 6.808 1.588ZM50.772 43.819c1.33 2.413 4.115 1.2 7.314-.124 3.199-1.325 5.021-1.73 4.922-3.925-.129-2.805-4.194-5.086-8.263-3.874-4.12 1.228-5.417 5.304-3.973 7.923Z" fill="#000072"/><path d="M53.078 45.786c-1.153 0-2.128-.45-2.811-1.689-.78-1.414-.848-3.227-.184-4.85.772-1.882 2.37-3.269 4.498-3.903 2.397-.713 5.055-.328 6.934 1.008 1.276.907 2.01 2.11 2.069 3.39.105 2.328-1.583 3.002-4.139 4.024-.357.143-.737.294-1.138.46l-.186.077c-1.815.754-3.574 1.483-5.043 1.483Zm3.948-9.646a7.43 7.43 0 0 0-2.116.307c-1.787.533-3.122 1.682-3.76 3.236-.533 1.302-.486 2.744.127 3.856 1.004 1.823 3.087 1.073 6.403-.3l.186-.078c.406-.168.79-.322 1.151-.466 2.589-1.034 3.48-1.465 3.415-2.901-.042-.92-.605-1.809-1.584-2.505-1.062-.752-2.423-1.147-3.822-1.147v-.002Z" fill="#000072"/><path d="M59.362 41.612c1.073-.114 1.846-1.12 1.725-2.246-.12-1.126-1.088-1.945-2.162-1.83-1.073.115-1.846 1.12-1.725 2.246.12 1.126 1.088 1.945 2.162 1.83ZM53.948 41.482c.703-.075 1.21-.734 1.13-1.472-.079-.738-.713-1.275-1.417-1.2-.703.076-1.21.735-1.13 1.472.079.738.713 1.275 1.417 1.2Z" fill="#fff"/><path d="M57.087 44.13c-4.316 7.643-1.854 22.968-2.695 23.689-1.147.98-5.448-.636-6.128-2.153-.971-2.168-1.716-14.362 3.047-21.002 1.347-1.878 5.415-1.186 5.776-.534Z" fill="#66E9FF"/><path d="M53.47 67.011a1.883 1.883 0 0 1-.167.007c-1.516 0-3.751-1.174-4.033-1.801-.132-.295-.51-2.45-.512-3.924 1.256.536 2.842.79 4.634.424.014.723.034 1.85.04 2.071.034 1.218.075 2.57.038 3.223Z" fill="#66DBFF"/><path d="M95.03 43.819c-1.33 2.413-4.115 1.2-7.314-.124-3.199-1.325-5.021-1.73-4.922-3.925.128-2.805 4.194-5.086 8.263-3.874 4.12 1.228 5.417 5.304 3.973 7.923Z" fill="#000072"/><path d="M92.724 45.786c-1.47 0-3.228-.729-5.043-1.48l-.186-.078a91.096 91.096 0 0 0-1.138-.46c-2.556-1.021-4.245-1.696-4.138-4.023.058-1.282.792-2.487 2.068-3.39 1.88-1.338 4.539-1.72 6.934-1.008 2.129.634 3.727 2.02 4.498 3.903.664 1.623.596 3.435-.184 4.85-.683 1.237-1.658 1.686-2.811 1.686Zm-3.948-9.646c-1.4 0-2.76.395-3.823 1.15-.98.695-1.542 1.585-1.584 2.504-.065 1.436.826 1.867 3.415 2.9.361.144.745.299 1.151.467l.186.077c3.315 1.374 5.4 2.123 6.403.301.613-1.112.66-2.554.126-3.856-.637-1.555-1.972-2.703-3.76-3.236a7.43 7.43 0 0 0-2.114-.305v-.002Z" fill="#000072"/><path d="M88.602 39.782c.12-1.125-.652-2.131-1.725-2.246-1.073-.115-2.041.705-2.162 1.83-.12 1.126.652 2.132 1.725 2.247 1.074.114 2.042-.705 2.162-1.83ZM93.27 40.281c.079-.738-.428-1.397-1.131-1.472-.704-.075-1.338.462-1.417 1.2-.08.737.427 1.396 1.13 1.471.704.076 1.338-.461 1.417-1.199Z" fill="#fff"/><path d="M98.886 47.434c2.15-.923 4.452-1.412 6.732-1.91-.537.24-1.078.46-1.622.673-1.64.611-3.265 1.278-4.995 1.603-.219.04-.318-.276-.115-.367v.002ZM105.618 55.117c-1.649-.36-3.457-.845-5.092-1.294-.56-.161-1.116-.34-1.647-.592a.218.218 0 0 1 .13-.412c.58.095 1.137.266 1.689.454 1.602.565 3.358 1.198 4.922 1.844h-.002ZM105.618 50.322c-1.604.148-3.389.222-5.006.286-.556.017-1.112.012-1.668-.07a.218.218 0 0 1 0-.43c.556-.083 1.112-.087 1.668-.07 1.62.063 3.4.137 5.006.286v-.002ZM46.738 47.801c-2.294-.47-4.462-1.38-6.617-2.275a44.66 44.66 0 0 1 1.715.373c1.697.435 3.411.815 5.017 1.535.203.092.104.409-.115.367ZM40.12 55.117c1.56-.645 3.321-1.28 4.922-1.844.552-.188 1.11-.358 1.69-.454a.219.219 0 0 1 .13.412c-.532.252-1.087.43-1.647.592-1.638.45-3.44.933-5.092 1.294h-.002ZM40.12 50.322c1.604-.15 3.39-.224 5.007-.287.556-.017 1.112-.012 1.669.07a.22.22 0 0 1 0 .43c-.557.083-1.113.087-1.67.07-1.619-.063-3.399-.137-5.005-.286v.002ZM73.567 44.965a1.87 1.87 0 0 0-.284.582c-.122.475-.163 1.067-.346 1.067-.183 0-.223-.592-.346-1.067a1.874 1.874 0 0 0-.282-.582l.628-.485.63.485ZM91.112 5.221C80.902.794 69.055.486 58.467 3.741c-.92.309-1.85.65-2.747 1.02-.362.149-.717.311-1.082.463a.386.386 0 0 1-.36-.679 26.21 26.21 0 0 1 3.217-1.678C62.305.714 67.65-.028 72.875.017c6.416-.053 13.075 1.106 18.598 4.528.382.251.096.868-.36.679V5.22Z" fill="#000072"/><path d="M19 102.355c-6.799-.224-11.052 1.583-13.857 3.872-5.565 4.539-4.837 11.847-2.76 15.092 2.04 3.184 6.332 5.154 11.838 5.563 7.524.557 13.919-.895 16.212-4.736 2.239-3.75.42-8.843-6.266-10.061-5.352-.975-5.19-.74-4.542-3.49" fill="#fff"/><path d="M30.433 122.143c-2.294 3.841-8.689 5.294-16.211 4.736-5.507-.408-9.799-2.379-11.838-5.563-2.077-3.242-2.807-10.553 2.758-15.089a15.715 15.715 0 0 1 4.239-2.457c2.466-.969 5.596-1.546 9.617-1.414l.625 6.238c-.506 2.151-.717 2.476 1.777 2.981.695.141 1.6.296 2.766.508 6.687 1.218 8.505 6.312 6.267 10.06Z" fill="#fff"/><path d="M30.432 122.142a6.79 6.79 0 0 1-1.124 1.405l-14.044-1.624s-6.606-7.474-2.955-12.958c1.03-1.545 3.54-1.05 7.302-.318-.497 2.104-.682 2.427 1.79 2.928.696.138 1.6.295 2.766.506 6.685 1.219 8.505 6.315 6.265 10.061Z" fill="#371A45" opacity=".25"/><path d="M30.433 122.143c-2.294 3.841-8.689 5.294-16.211 4.736-5.507-.408-9.799-2.379-11.838-5.563-2.077-3.242-2.807-10.553 2.758-15.089a15.715 15.715 0 0 1 4.239-2.457c.409-.132 9.308-2.873 8.704 7.64 0 0 1.485.056 3.315.163.695.141 1.6.296 2.766.509 6.687 1.219 8.505 6.313 6.267 10.061Z" fill="#F9A528"/><path d="M30.434 122.144c-2.294 3.841-8.69 5.294-16.212 4.735-5.506-.409-9.795-2.379-11.838-5.562-1.17-1.825-1.912-4.941-1.344-8.126a11.434 11.434 0 0 1 4.103-6.966 15.734 15.734 0 0 1 4.237-2.455h.002c.41-.133 9.308-2.873 8.706 7.64 0 0 1.484.056 3.314.163.694.139 1.6.297 2.765.507 4.385.799 6.677 3.265 7.103 5.927.224 1.397-.067 2.846-.836 4.137Z" fill="#FF6F03"/><path d="M11.612 107.601s-5.724 2.08-1.973 5.014c3.005 2.35 12.838.576 16.812 3.133-.862-4.605-20.12-1.083-14.839-8.147Z" fill="#fff" opacity=".5"/><path d="M18.089 111.411s-6.591-.136-5.782-2.445c.871-1.305 2.798-1.156 5.643-.635.152.873.205 1.891.136 3.08M30.555 122.634c-2.293 3.841-8.69 5.294-16.211 4.736-5.507-.41-9.796-2.38-11.839-5.563-1.17-1.825-1.911-4.941-1.342-8.125.636 2.384 3.308 8.199 14.224 8.735 10.154.499 14.839-1.528 16.007-3.915.222 1.392-.069 2.841-.838 4.132Z" fill="#371A45" opacity=".25"/><path d="M18.975 103.122c-6.052-.225-13.199 1.501-16.159 7.298-1.509 3.095-1.542 6.996.048 10.06 1.28 2.289 3.628 3.719 6.11 4.562 5.291 1.785 16.63 1.998 20.42-2.667 2.319-2.913 1.243-6.756-1.984-8.503-1.556-.9-3.338-1.242-5.13-1.481-1.83-.245-3.695-.377-5.572-.614-1.414-.239-4.168-.396-4.763-1.988-.12-.425-.156-1.285.457-1.187.821.334-.669 1.125 1.72 1.778 5.37 1.241 12.2-.325 16.29 4.25 2.146 2.435 2.116 6.115.123 8.637-2.539 3.165-6.833 4.078-10.652 4.415-3.85.253-7.73.12-11.432-1.085-2.786-.919-5.585-2.631-7.06-5.311-2.316-4.46-1.71-10.301 1.59-14.111 3.95-4.54 10.29-5.823 16.044-5.587 1.01.065.961 1.539-.05 1.536v-.002Z" fill="#000072"/><path d="M54.397 61.43c.075 3.506.262 6.102-.072 6.388-1.147.98-5.448-.635-6.127-2.152-.33-.732-.632-2.605-.705-5.023-.143-4.745.595-11.58 3.752-15.979 1.346-1.878 5.414-1.187 5.775-.534-2.599 4.603-2.738 11.992-2.623 17.3Z" fill="#66E9FF"/><path d="M53.4 67.011a1.744 1.744 0 0 1-.167.007c-1.515 0-3.75-1.174-4.032-1.8-.132-.295-.51-2.45-.513-3.925 1.256.537 2.843.79 4.635.424.014.724.034 1.85.04 2.071.036 1.219.077 2.57.038 3.223Z" fill="#66DBFF"/><path d="M53.23 68.694a5.902 5.902 0 0 1-1.265-.156c-1.679-.378-3.755-1.432-4.295-2.636-.984-2.196-1.804-14.732 3.106-21.574 1.044-1.455 3.188-1.494 4.061-1.444.228.014 2.235.153 2.687.967a.576.576 0 0 1 0 .563c-2.928 5.183-2.652 14.032-2.485 19.32.102 3.27.11 4.141-.337 4.523-.386.326-.921.437-1.471.437Zm1.166-24.671c-.197 0-.401.01-.61.03-.686.069-1.602.289-2.074.947-4.58 6.383-3.887 18.427-2.99 20.43.318.71 1.952 1.636 3.496 1.984.882.198 1.425.139 1.66.014.105-.452.054-2.08.005-3.658-.164-5.256-.435-13.955 2.383-19.456-.378-.14-1.069-.291-1.869-.291Z" fill="#25B0D6"/><path d="M52.273 46.31c-.793 1.188-1.727 3.81-.492 4.145 1.382.377 1.631-2.115 1.835-4.389.166-1.852-.72-.695-1.343.243ZM51.107 51.947c-.654.854-.43 1.98.287 2.101.92.159 1.282-.627 1.164-1.499-.16-1.171-.974-1.225-1.451-.602Z" fill="#fff"/><path d="M91.341 61.43c-.074 3.506-.261 6.102.073 6.388 1.147.98 5.447-.635 6.127-2.152.33-.732.631-2.605.704-5.023.143-4.745-.594-11.58-3.751-15.979-1.347-1.878-5.414-1.187-5.775-.534 2.598 4.603 2.738 11.992 2.622 17.3Z" fill="#66E9FF"/><path d="M92.338 67.011c.048.005.103.007.167.007 1.516 0 3.751-1.174 4.033-1.8.132-.295.51-2.45.512-3.925-1.256.537-2.842.79-4.635.424-.013.724-.033 1.85-.04 2.071-.034 1.219-.077 2.57-.037 3.223Z" fill="#66DBFF"/><path d="M92.508 68.694c-.549 0-1.084-.11-1.467-.437-.447-.382-.44-1.253-.337-4.523.165-5.287.441-14.137-2.485-19.32a.577.577 0 0 1 0-.563c.452-.812 2.46-.955 2.687-.967.874-.047 3.018-.011 4.061 1.444 4.908 6.842 4.09 19.377 3.106 21.574-.54 1.206-2.616 2.258-4.295 2.636-.416.098-.842.15-1.27.156Zm-.647-1.266c.235.125.778.184 1.66-.014 1.544-.347 3.178-1.274 3.495-1.983.898-2.006 1.591-14.047-2.989-20.431-.472-.658-1.388-.879-2.074-.947-1.051-.105-2.007.086-2.48.261 2.82 5.5 2.547 14.2 2.383 19.456-.05 1.578-.1 3.208.004 3.658h.001Z" fill="#25B0D6"/><path d="M93.466 46.31c.793 1.188 1.727 3.81.492 4.145-1.382.377-1.631-2.115-1.835-4.389-.167-1.852.72-.695 1.343.243ZM94.632 51.947c.654.854.43 1.98-.287 2.101-.92.159-1.283-.627-1.164-1.499.16-1.171.974-1.225 1.45-.602ZM68.271 103.9c-1.868 1.058-4.74.938-7.048-1.352-.86-.851-1.628-1.848-2.316-2.935-4.25-6.706-5.39-16.787-5.39-16.787l11.45-2.851c1.213 3.875 3.582 9.434 4.848 14.463.162.637.306 1.268.425 1.885.405 2.075.838 5.986-1.969 7.577Z" fill="#fff"/><path d="M55.307 86.617s3.157 13.179 8.051 15.446c4.745 2.197 5.782-1.637 5.602-2.772-.559 2.317-3.587 3.386-6.059 1.315-4.12-3.453-7.594-13.99-7.594-13.99Z" fill="#371A45" opacity=".25"/><path d="M53.804 82.793c.937 4.406 2.103 8.795 3.93 12.916 1.728 3.75 5.146 9.741 10.034 7.472 3.216-1.807 1.595-7.134.867-10.035-.907-3.263-2.105-6.483-3.072-9.748a39.728 39.728 0 0 1-.87-3.338c-.07-.324.409-.499.55-.173.902 2.091 1.816 4.177 2.66 6.306a77.8 77.8 0 0 1 2.278 6.512c1.099 3.806 2.669 9.565-1.587 12.014-1.762.951-3.975.868-5.733.02-4.799-2.415-7.531-10.108-8.646-15.041-.503-2.256-.86-4.531-.984-6.842-.01-.35.503-.423.574-.065v.002Z" fill="#000072"/><path d="M67.645 98.156c1.184 1.085 2.214 2.331 2.997 3.757l-1.457.489c-.258-1.472-.816-2.92-1.54-4.246ZM63.798 100.606c1.118 1.175 2.453 2.268 4.026 2.724.068.015.191.052.24.046l-.437 1.473c-1.75-.879-2.942-2.556-3.828-4.243Z" fill="#000072"/><path d="M77.504 103.9c1.869 1.058 4.74.938 7.049-1.352.86-.851 1.628-1.848 2.316-2.935 4.25-6.705 5.39-16.787 5.39-16.787l-11.45-2.851c-1.211 3.875-3.58 9.434-4.847 14.463a34.11 34.11 0 0 0-.425 1.885c-.408 2.075-.842 5.986 1.967 7.577Z" fill="#fff"/><path d="M90.466 86.617s-3.157 13.179-8.05 15.446c-4.746 2.197-5.782-1.637-5.603-2.772.56 2.317 3.587 3.386 6.06 1.315 4.119-3.453 7.593-13.99 7.593-13.99Z" fill="#371A45" opacity=".25"/><path d="M92.543 82.858c-.484 6.722-2.331 14.23-6.707 19.54-2.021 2.549-5.61 3.935-8.653 2.321-4.257-2.452-2.686-8.206-1.587-12.014 1.298-4.418 3.113-8.617 4.937-12.817.136-.308.618-.174.55.172a39.985 39.985 0 0 1-.869 3.338c-.968 3.265-2.166 6.485-3.072 9.748-.87 3.364-2.668 9.61 2.203 10.476 6.015.878 9.621-9.65 10.985-14.241a84.196 84.196 0 0 0 1.64-6.59c.057-.34.59-.303.574.065v.002Z" fill="#000072"/><path d="M78.128 98.156c-.724 1.325-1.282 2.775-1.54 4.246l-1.457-.489c.783-1.426 1.815-2.674 2.997-3.757ZM81.975 100.606c-.886 1.687-2.079 3.364-3.828 4.243l-.437-1.473c.052.005.17-.031.24-.046 1.572-.456 2.908-1.549 4.026-2.724ZM67.156 41.255c2.837-2.608 7.434-2.897 10.716-.97.464.279.915.584 1.296.969a15.813 15.813 0 0 0-1.488-.538c-3.44-1.14-7.2-.882-10.524.538v.001Z" fill="#000072"/></svg>