<svg version="1.1" id="Слой_1" xmlns="http://www.w3.org/2000/svg" x="0" y="0" viewBox="0 0 241 77.8" style="enable-background:new 0 0 241 77.8" xml:space="preserve"><path id="XMLID_65_" d="M46.3 55.4H9.1c-5 0-9.1-4.1-9.1-9.1V9.1C0 4.1 4.1 0 9.1 0h37.2c5 0 9.1 4.1 9.1 9.1v37.2c0 5-4.1 9.1-9.1 9.1zM9.1 2.9C5.7 2.9 3 5.7 3 9v37.2c0 3.4 2.8 6.1 6.1 6.1h37.2c3.4 0 6.1-2.8 6.1-6.1V9.1c0-3.4-2.8-6.1-6.1-6.1H9.1v-.1z"/><path id="XMLID_61_" d="M21 20.5c0-2.8-1.1-9.3-5.3-9.3s-5.3 6.5-5.3 9.3c0 2.3 1.6 4.2 3.8 4.7l-1 17.4c-.1.9.7 1.6 1.5 1.6h2.1c.9 0 1.6-.7 1.5-1.6l-1-17.4c2.1-.5 3.7-2.4 3.7-4.7zm24 5.8V13.9c0-1.5-1.2-2.7-2.7-2.7h-.5c-1.3 0-2.7 2-3.4 6.8l-.9 7.3c-.3 2.1.2 4.9 2.8 5.9l.6.2-1.1 11.2c-.1.9.7 1.6 1.5 1.6h2.1c.9 0 1.6-.7 1.5-1.6l.1-16.3zm-10.6-4.1-1-9.5c-.1-.7-.5-1.2-1.1-1.4v8.4H31v-8.5h-1.2v8.5h-1.2v-8.5h-1.2v8.5h-1.2v-8.4c-.6.2-1.1.8-1.1 1.4l-1 9.5c-.2 1.7 1.1 3.1 2.8 3.1h.8l-1 17.3c-.1.9.7 1.6 1.5 1.6h2.1c.9 0 1.6-.7 1.5-1.6l-1-17.3h.8c1.7 0 3-1.4 2.8-3.1z"/><g id="XMLID_55_"><path id="XMLID_56_" d="M23.1 69.1v.6c0 .3-.1.4-.5.4h-4v2.3H22c.3 0 .4.1.4.4v.6c0 .3-.1.4-.4.4h-3.4v2.4h4.2c.3 0 .4.1.4.4v.6c0 .3-.1.4-.4.4h-5.4c-.3 0-.5-.1-.5-.4v-8.4c0-.3.1-.4.5-.4h5.2c.4.3.5.4.5.7zm8.8 8.5h-.7c-.6 0-.7-.1-.8-.4l-.6-1.7h-3.6l-.6 1.7c-.1.3-.3.4-.8.4h-.6c-.3 0-.4-.1-.3-.4l3.3-8.5c.1-.3.2-.4.6-.4h.7c.3 0 .4.1.6.4l3.3 8.6c-.1.2-.2.3-.5.3zM28 69.8c-.1 0-.1.8-.4 1.6l-1 2.8h2.7l-1-2.8c-.3-.8-.3-1.6-.3-1.6zm10.6-1.1v.6c0 .3-.1.4-.4.4h-2.3V77c0 .3-.1.4-.4.4h-.8c-.3 0-.4-.1-.4-.4v-7.3H32c-.3 0-.4-.1-.4-.4v-.6c0-.3.1-.4.4-.4h6.2c.3 0 .4.1.4.4z"/></g><g id="XMLID_33_"><path id="XMLID_52_" d="M108.2 55.4H71c-5 0-9.1-4.1-9.1-9.1V9.1C61.9 4.1 66 0 71 0h37.2c5 0 9.1 4.1 9.1 9.1v37.2c0 5-4.1 9.1-9.1 9.1zM71 2.9c-3.4 0-6.1 2.8-6.1 6.1v37.2c0 3.4 2.8 6.1 6.1 6.1h37.2c3.4 0 6.1-2.8 6.1-6.1V9.1c0-3.4-2.8-6.1-6.1-6.1H71v-.1z"/><circle id="XMLID_51_" cx="77" cy="26.9" r="3.7"/><path id="XMLID_42_" d="M81.8 23.2V32h24.1v-2.8c0-3.3-2.7-6-6-6H81.8zm-1 10.3c-.1 0-.1-.1 0 0-.1-.9-.7-1.5-1.5-1.5h-7.1c-.8 0-1.4.6-1.4 1.4v7.9c0 .7.6 1.3 1.3 1.3h1.8c.3 0 .6-.1.9-.4l1.7-1.7h26.3l1.7 1.7c.2.2.5.4.9.4h1.8c.7 0 1.3-.6 1.3-1.3v-7.9l-27.7.1zm1.7-12.6c-.7 0-1.3-.6-1.3-1.3 0-.7.6-1.3 1.3-1.3.7 0 1.3.6 1.3 1.3 0 .7-.6 1.3-1.3 1.3zm0-1.7c-.2 0-.3.2-.3.3 0 .2.2.3.3.3.2 0 .3-.2.3-.3 0-.1-.1-.3-.3-.3zm3.4 0c-1 0-1.8-.8-1.8-1.8s.8-1.8 1.8-1.8 1.8.8 1.8 1.8-.8 1.8-1.8 1.8zm0-2.6c-.5 0-.8.4-.8.8 0 .5.4.8.8.8.5 0 .8-.4.8-.8 0-.5-.4-.8-.8-.8zm11.7-.9h-8.2c-1.5 0-2.7-1.2-2.7-2.7s1.2-2.7 2.7-2.7h.2c.5-1.7 2.1-2.9 3.9-2.9 1.2 0 2.3.5 3.1 1.4.3-.1.7-.1 1-.1 1.9 0 3.5 1.6 3.5 3.5s-1.6 3.5-3.5 3.5zm-8.2-4.3c-.9 0-1.7.8-1.7 1.7s.8 1.7 1.7 1.7h8.2c1.4 0 2.5-1.1 2.5-2.5S99 9.8 97.6 9.8c-.3 0-.7.1-1 .2l-.4.2-.2-.4c-.6-.8-1.5-1.3-2.5-1.3-1.5 0-2.8 1.1-3.1 2.5l-.1.5-.5-.1h-.4z"/><g id="XMLID_34_"><path id="XMLID_35_" d="M74.5 68.1c1.9 0 2.8.7 3.5 2 .1.3.1.5-.2.6l-.8.3c-.3.1-.4.1-.6-.2-.4-.7-.9-1.1-1.9-1.1-1.3 0-1.9.4-1.9 1.2 0 .9 1.1 1.1 2.3 1.2 1.6.2 3.3.6 3.3 2.7 0 1.7-1.3 2.9-3.7 2.9-2 0-3.1-.8-3.6-2.2-.1-.3 0-.5.3-.6l.7-.3c.3-.1.4 0 .6.3.3.8 1 1.2 2.1 1.2 1.4 0 2.1-.4 2.1-1.4 0-.9-1-1.1-2.1-1.2-1.6-.2-3.6-.4-3.6-2.7-.1-1.5 1.1-2.7 3.5-2.7zm6.7.6V76H85c.3 0 .4.1.4.4v.6c0 .3-.1.4-.4.4h-5c-.3 0-.5-.1-.5-.4v-8.4c0-.3.1-.4.5-.4h.7c.4.1.5.2.5.5zm11.4.2v.6c0 .3-.1.4-.5.4h-4v2.3h3.4c.3 0 .4.1.4.4v.6c0 .3-.1.4-.4.4h-3.4V76h4.2c.3 0 .4.1.4.4v.6c0 .3-.1.4-.4.4H87c-.3 0-.5-.1-.5-.4v-8.4c0-.3.1-.4.5-.4h5.2c.3.3.4.4.4.7zm7.6 0v.6c0 .3-.1.4-.5.4h-4v2.3h3.4c.3 0 .4.1.4.4v.6c0 .3-.1.4-.4.4h-3.4V76h4.2c.3 0 .4.1.4.4v.6c0 .3-.1.4-.4.4h-5.4c-.3 0-.5-.1-.5-.4v-8.4c0-.3.1-.4.5-.4h5.2c.4.3.5.4.5.7zm8.6 2.5c0 1.9-1.2 3-3.1 3h-2.3v2.8c0 .3-.1.4-.4.4h-.7c-.3 0-.5-.1-.5-.4v-8.4c0-.3.1-.4.5-.4h3.5c1.7-.1 3 1 3 3zm-1.8 0c0-.9-.6-1.5-1.5-1.5h-2.1v3h2.1c1-.1 1.5-.6 1.5-1.5z"/></g></g><g id="XMLID_17_"><path id="XMLID_30_" d="M170 55.4h-37.2c-5 0-9.1-4.1-9.1-9.1V9.1c0-5 4.1-9.1 9.1-9.1H170c5 0 9.1 4.1 9.1 9.1v37.2c0 5-4 9.1-9.1 9.1zM132.9 2.9c-3.4 0-6.1 2.8-6.1 6.1v37.2c0 3.4 2.8 6.1 6.1 6.1H170c3.4 0 6.1-2.8 6.1-6.1V9.1c0-3.4-2.8-6.1-6.1-6.1h-37.1v-.1z"/><path id="XMLID_26_" d="M143.5 22.4v1.2c0 1.1-.2 1.2-.9 1.6l-6.5 3.3v.1l6.5 3.2c.7.4.9.5.9 1.6v1.4c0 .9-.3 1.2-1 .8l-9.8-5.3c-.6-.3-.8-.5-.8-1.2v-.9c0-.7.2-.9.8-1.2l9.8-5.3c.7-.5 1-.2 1 .7zm4.6 17.4h-1.6c-.7 0-.8-.3-.6-.8l7.7-20.7c.3-.6.5-.8 1.2-.8h1.7c.7 0 .8.3.6.8L149.3 39c-.3.6-.5.8-1.2.8zm12.4-18.2 9.8 5.3c.6.3.8.5.8 1.2v.9c0 .7-.2.9-.8 1.2l-9.8 5.3c-.8.4-1 .1-1-.8v-1.2c0-1.1.2-1.2.9-1.6l6.5-3.3v-.2l-6.5-3.2c-.7-.3-.9-.5-.9-1.6v-1.4c-.1-.7.2-1 1-.6z"/><g id="XMLID_18_"><path id="XMLID_19_" d="M139.1 68.1c1.9 0 3.1.8 3.6 2.2.1.3 0 .5-.3.6l-.7.2c-.3.1-.4.1-.6-.3-.3-.8-.9-1.2-2-1.2-1.4 0-2.1.7-2.1 1.9v2.9c0 1.2.7 1.9 2.1 1.9 1.1 0 1.7-.4 2-1.2.1-.3.3-.4.6-.3l.7.2c.3.1.4.3.3.6-.5 1.4-1.6 2.2-3.6 2.2-2.4 0-3.8-1.3-3.8-3.4v-2.9c0-2.1 1.3-3.4 3.8-3.4zm8.4 0c2.4 0 3.7 1.3 3.7 3.4v2.9c0 2.1-1.3 3.4-3.7 3.4s-3.8-1.3-3.8-3.4v-2.9c0-2.1 1.4-3.4 3.8-3.4zm0 1.5c-1.4 0-2.1.7-2.1 1.9v2.9c0 1.2.7 1.9 2.1 1.9 1.3 0 2.1-.7 2.1-1.9v-2.9c0-1.2-.8-1.9-2.1-1.9zm12.5 2.2v2.4c0 2.1-1.4 3.5-3.8 3.5h-2.9c-.3 0-.5-.1-.5-.4v-8.4c0-.3.1-.4.5-.4h2.9c2.4-.2 3.8 1.1 3.8 3.3zm-3.8-2h-1.8v6.3h1.8c1.4 0 2.2-.7 2.2-1.9v-2.4c-.1-1.3-.8-2-2.2-2zm11.5-1.1v.6c0 .3-.1.4-.5.4h-4V72h3.4c.3 0 .4.1.4.4v.6c0 .3-.1.4-.4.4h-3.4v2.4h4.2c.3 0 .4.1.4.4v.6c0 .3-.1.4-.4.4H162c-.3 0-.5-.1-.5-.4v-8.4c0-.3.1-.4.5-.4h5.2c.3.3.5.4.5.7z"/></g></g><g id="XMLID_1_"><path id="XMLID_14_" d="M231.9 55.4h-37.2c-5 0-9.1-4.1-9.1-9.1V9.1c0-5 4.1-9.1 9.1-9.1h37.2c5 0 9.1 4.1 9.1 9.1v37.2c0 5-4.1 9.1-9.1 9.1zM194.7 2.9c-3.4 0-6.1 2.8-6.1 6.1v37.2c0 3.4 2.8 6.1 6.1 6.1h37.2c3.4 0 6.1-2.8 6.1-6.1V9.1c0-3.4-2.8-6.1-6.1-6.1h-37.2v-.1z"/><path id="XMLID_13_" d="m217.1 23.7 11.4 3.7c.4.1.9-.2.9-.6V14.9c0-.6-.6-.9-1.1-.6l-3.2 2.3c-3-3-7-4.7-11.3-4.7-8.8 0-15.9 7.1-15.9 15.9s7.1 15.9 15.9 15.9c7.2 0 13.5-4.8 15.4-11.8l-5.1-1.4c-1.2 4.6-5.5 7.9-10.3 7.9-5.9 0-10.6-4.8-10.6-10.6s4.8-10.6 10.6-10.6c2.6 0 5 .9 6.9 2.6l-3.9 2.8c-.3.2-.2.9.3 1.1z"/><g id="XMLID_2_"><path id="XMLID_3_" d="M197.8 71.2c0 1.4-.6 2.3-1.7 2.7.2.1.3.3.4.6l1.4 2.8c.1.2.1.4-.2.4h-.8c-.6 0-.7-.1-.9-.4l-1.1-2.2c-.3-.7-.7-.9-1.6-.9h-1v3.1c0 .3-.1.4-.4.4h-.7c-.3 0-.5-.1-.5-.4v-8.4c0-.3.1-.4.5-.4h3.6c1.9-.2 3 .9 3 2.7zm-3.1-1.4h-2.3v2.7h2.3c.9 0 1.4-.5 1.4-1.4 0-.8-.5-1.3-1.4-1.3zm10.7-.6v.6c0 .3-.1.4-.5.4h-4v2.3h3.4c.3 0 .4.1.4.4v.6c0 .3-.1.4-.4.4H201v2.4h4.2c.3 0 .4.1.4.4v.6c0 .3-.1.4-.4.4h-5.4c-.3 0-.5-.1-.5-.4v-8.4c0-.3.1-.4.5-.4h5.2c.3.3.4.4.4.7zm8.6 2.2c0 1.9-1.2 3-3.1 3h-2.3v2.8c0 .3-.1.4-.4.4h-.7c-.3 0-.5-.1-.5-.4v-8.4c0-.3.1-.4.5-.4h3.5c1.7-.1 3 1 3 3zm-1.8 0c0-.9-.6-1.5-1.5-1.5h-2.1v3h2.1c1-.1 1.5-.6 1.5-1.5zm9.2-2.4v.6c0 .3-.1.4-.5.4h-4v2.3h3.4c.3 0 .4.1.4.4v.6c0 .3-.1.4-.4.4h-3.4v2.4h4.2c.3 0 .4.1.4.4v.6c0 .3-.1.4-.4.4h-5.4c-.3 0-.5-.1-.5-.4v-8.4c0-.3.1-.4.5-.4h5.2c.3.3.5.4.5.7zm8.7 8.6h-.7c-.6 0-.7-.1-.8-.4l-.6-1.7h-3.6l-.6 1.7c-.1.3-.3.4-.8.4h-.6c-.3 0-.4-.1-.3-.4l3.3-8.5c.1-.3.2-.4.6-.4h.7c.3 0 .4.1.6.4l3.3 8.6c-.1.2-.2.3-.5.3zm-3.9-7.8c-.1 0-.1.8-.4 1.6l-1 2.8h2.7l-1-2.8c-.2-.8-.2-1.6-.3-1.6zm10.6-1.1v.6c0 .3-.1.4-.4.4h-2.3V77c0 .3-.1.4-.4.4h-.8c-.3 0-.4-.1-.4-.4v-7.3h-2.3c-.3 0-.4-.1-.4-.4v-.6c0-.3.1-.4.4-.4h6.2c.3 0 .4.1.4.4z"/></g></g></svg>