<svg width="117" height="128" viewBox="0 0 117 128" fill="none" xmlns="http://www.w3.org/2000/svg">
<path d="M59.7575 5.68268C50.9249 1.79764 36.7611 -0.950442 33.4818 2.07699C30.0539 5.24242 36.2847 20.7 40.0438 26.7166L59.7575 5.68268Z" fill="#F9A528"/>
<path d="M40.0428 26.7171L48.032 18.1949L59.7584 5.68407C50.9253 1.79998 36.7611 -0.949537 33.4817 2.07694C33.1215 2.4112 32.8687 2.87582 32.7086 3.45408C31.3349 8.38297 36.6784 21.3331 40.0428 26.7171Z" fill="white"/>
<g opacity="0.25">
<path d="M40.0428 26.7171L48.032 18.1949C48.1233 15.4998 47.8256 12.077 46.3673 8.71869C44.8559 5.23906 36.4964 1.26233 32.7086 3.45411C31.3349 8.383 36.6784 21.3331 40.0428 26.7171Z" fill="#371A45"/>
</g>
<path d="M39.9191 27.994L39.3806 27.132C36.366 22.3068 28.7021 5.42672 32.9514 1.50347C36.7396 -1.99478 51.5446 1.21697 60.0723 4.96735L61.0829 5.41144L39.9191 27.994ZM38.7943 1.55123C36.5566 1.55123 34.8393 1.88548 34.0122 2.6495C31.3282 5.12827 36.2513 18.6624 40.1804 25.4269L58.4224 5.96201C52.2365 3.42117 44.0704 1.55123 38.7943 1.55123Z" fill="#000072"/>
<path d="M76.8064 110.814C81.0892 111.434 99.7091 118.195 106.822 118.195C113.512 118.195 116.766 111.234 115.927 105.17C114.737 96.5695 107.442 96.814 104.97 98.9666C104.97 98.9666 95.4201 93.6553 89.9409 92.3015" fill="white"/>
<path d="M115.205 111.889C113.88 115.442 111.032 118.196 106.824 118.196C99.7101 118.196 81.0911 111.436 76.8079 110.816L79.2548 107.367L89.9419 92.3025C95.4206 93.6567 104.972 98.9686 104.972 98.9686C107.443 96.8155 114.74 96.571 115.929 105.171C116.238 107.423 115.986 109.794 115.205 111.889Z" fill="white"/>
<path d="M72.9284 91.3851C72.9284 91.3851 76.9421 97.5092 66.6454 106.516C43.3595 126.882 11.5349 105.752 13.7195 119.368C14.1562 122.09 6.97785 116.445 5.24143 111.783C3.40706 106.858 11.5392 102.488 19.0028 102.355C30.7382 102.696 49.276 106.23 55.3955 94.2918C60.2765 84.7687 61.4371 81.2203 61.4371 81.2203" fill="white"/>
<path d="M66.6448 106.516C65.1267 107.847 63.5022 109.052 61.7877 110.119C39.1865 124.167 11.6848 106.679 13.7184 119.368C13.7494 119.555 13.7428 119.703 13.7055 119.812C13.1952 121.32 6.8568 116.126 5.24032 111.784C3.40546 106.859 11.5385 102.489 18.9984 102.355C30.7381 102.696 49.2768 106.23 55.3944 94.2918C60.2763 84.7682 61.4374 81.2198 61.4374 81.2198L72.9277 91.3875C72.9277 91.3875 76.9424 97.5102 66.6448 106.516Z" fill="white"/>
<g opacity="0.25">
<path d="M61.7877 110.118C39.1866 124.166 11.6848 106.678 13.7184 119.367C13.7495 119.554 13.7428 119.702 13.7055 119.812C12.0136 117.195 9.8643 112.636 12.3084 108.966C15.1925 104.64 29.6812 116.281 50.7366 104.506C57.1853 100.9 60.3156 104.669 61.7877 110.118Z" fill="#371A45"/>
</g>
<g opacity="0.25">
<path d="M30.4324 122.142C30.122 122.658 29.7438 123.13 29.3081 123.547L15.2638 121.923C15.2638 121.923 8.65787 114.449 12.3094 108.965C13.3391 107.42 15.8492 107.915 19.6111 108.647C19.1137 110.751 18.9292 111.074 21.4015 111.575C22.0967 111.713 23.0013 111.87 24.1671 112.081C30.8524 113.3 32.672 118.396 30.4324 122.142Z" fill="#371A45"/>
</g>
<g opacity="0.25">
<path d="M30.4343 122.144C30.1248 122.66 29.7475 123.131 29.3124 123.547L15.2643 121.923C15.2643 121.923 8.65836 114.449 12.3099 108.965C13.181 107.66 15.1081 107.809 17.9526 108.33C18.1045 109.203 18.1575 110.221 18.0892 111.41C18.0892 111.41 19.5705 111.467 21.402 111.575C22.0972 111.713 23.0017 111.869 24.1676 112.081C28.5517 112.881 30.8443 115.345 31.2686 118.008C31.4951 119.405 31.2031 120.853 30.4343 122.144Z" fill="#371A45"/>
</g>
<path d="M13.3291 120.842C11.078 120.842 5.9027 115.762 4.52083 112.051C3.94314 110.5 4.17679 108.889 5.19647 107.394C7.42171 104.132 13.224 101.689 18.9865 101.587H19.0228C20.8864 101.641 22.9023 101.774 25.0349 101.914C36.0631 102.642 49.7862 103.547 54.7112 93.9399C59.4894 84.6146 60.695 81.0151 60.7069 80.9793C60.7733 80.7894 60.9115 80.6332 61.0919 80.544C61.2723 80.4548 61.4804 80.4399 61.6717 80.5024C61.863 80.5649 62.0221 80.6999 62.1149 80.8783C62.2077 81.0567 62.2268 81.2644 62.1681 81.4568C62.1204 81.6039 60.9325 85.1714 56.0797 94.6395C50.6946 105.145 36.4109 104.204 24.9336 103.447C22.8225 103.308 20.8281 103.176 18.9961 103.122C13.783 103.218 8.39886 105.427 6.46701 108.259C5.72973 109.34 5.55914 110.435 5.96195 111.515C7.21529 114.879 11.3862 118.608 12.921 119.222C12.6821 117.433 12.9979 116.107 13.8867 115.177C15.9108 113.058 20.4028 113.566 26.6203 114.27C37.1979 115.464 53.1826 117.271 66.1389 105.939C75.7432 97.5399 72.428 92.0327 72.2823 91.8045C72.1712 91.6335 72.1326 91.4255 72.1751 91.2261C72.2175 91.0267 72.3375 90.8523 72.5085 90.7413C72.6796 90.6303 72.8878 90.5918 73.0873 90.6342C73.2868 90.6766 73.4613 90.7964 73.5724 90.9674C73.7516 91.2405 77.8313 97.7581 67.1523 107.097C53.6843 118.872 37.294 117.021 26.4478 115.796C20.8878 115.167 16.4961 114.671 14.9986 116.239C14.4209 116.844 14.2508 117.827 14.4782 119.247C14.6302 120.192 14.1438 120.671 13.6382 120.805C13.5372 120.83 13.4333 120.842 13.3291 120.842Z" fill="#000072"/>
<path d="M68.9323 110.814C64.6495 111.434 46.0296 118.195 38.9167 118.195C32.2271 118.195 28.9731 111.234 29.8117 105.17C31.0015 96.5695 38.297 96.814 40.7687 98.9666C40.7687 98.9666 50.3186 93.6553 55.7978 92.3015" fill="white"/>
<path d="M68.9322 110.814C64.6494 111.434 46.0304 118.194 38.9166 118.194C34.7389 118.194 31.9016 115.482 30.5651 111.967C29.759 109.852 29.4967 107.448 29.8111 105.169C31.0004 96.569 38.2978 96.813 40.7686 98.9666C40.7686 98.9666 50.3175 93.6548 55.7986 92.3005L66.4895 107.37L68.9322 110.814Z" fill="white"/>
<g opacity="0.25">
<path d="M68.9322 110.814C64.6495 111.434 46.0305 118.194 38.9166 118.194C34.739 118.194 31.9017 115.482 30.5652 111.967C32.0651 113.808 34.2253 115.535 37.0263 115.446C42.529 115.269 43.337 109.229 43.337 109.229C43.337 109.229 47.4649 112.384 49.9176 110.748C53.045 108.662 49.307 102.392 49.307 100.392C49.307 98.6285 54.0718 105.492 66.4896 107.37L68.9322 110.814Z" fill="#371A45"/>
</g>
<g opacity="0.25">
<path d="M115.205 111.889C113.88 115.442 111.032 118.196 106.824 118.196C99.7101 118.196 81.0911 111.436 76.8079 110.816L79.2548 107.366C91.6448 105.479 96.4016 98.6328 96.4016 100.395C96.4016 102.395 92.6616 108.665 95.7909 110.751C98.2436 112.387 102.37 109.232 102.37 109.232C102.37 109.232 103.182 115.272 108.682 115.449C111.521 115.537 113.704 113.76 115.205 111.889Z" fill="#371A45"/>
</g>
<g opacity="0.25">
<path d="M94.2813 101.301L86.3494 112.179C83.1958 113.013 78.4992 113.901 72.8556 113.901C67.212 113.901 62.5164 113.013 59.3613 112.179L51.4734 101.333C54.5793 103.514 61.2511 107.837 72.8556 107.837C84.5131 107.837 91.1936 103.47 94.2813 101.301Z" fill="#371A45"/>
</g>
<path d="M38.9166 118.965C36.161 118.965 33.7475 117.867 31.9375 115.792C29.6105 113.123 28.5043 109.014 29.0505 105.067C29.7739 99.8362 32.6371 98.0241 34.2798 97.409C36.7234 96.4941 39.3061 97.0165 40.837 98.0542C42.8057 96.9812 50.7094 92.7691 55.6133 91.5571L55.9822 93.0489C50.6664 94.3625 41.2374 99.587 41.1419 99.64L40.6698 99.9026L40.2627 99.5483C39.1971 98.62 36.9265 98.0594 34.8155 98.8487C33.2009 99.4533 31.1534 101.059 30.57 105.278C30.0836 108.797 31.0478 112.441 33.0934 114.78C34.6028 116.512 36.6154 117.427 38.9133 117.427C43.3681 117.427 52.8563 114.586 59.7847 112.512C63.9418 111.267 67.2297 110.283 68.819 110.053L69.0393 111.574C67.5623 111.788 64.1626 112.806 60.2258 113.984C52.819 116.204 43.5965 118.965 38.9166 118.965Z" fill="#000072"/>
<path d="M41.3427 98.4567C43.3634 100.957 44.0152 104.309 43.6869 107.454C43.6253 107.932 42.9138 107.884 42.9224 107.4C42.9702 105.081 42.4293 102.655 41.1702 100.692C41.0268 100.486 40.8586 100.266 40.711 100.06C40.5977 99.9322 40.312 99.6108 40.1969 99.48C39.4323 98.6811 40.6403 97.6015 41.3436 98.4567H41.3427Z" fill="#000072"/>
<path d="M36.3822 114.122C38.3314 114.122 39.9115 112.36 39.9115 110.187C39.9115 108.013 38.3314 106.252 36.3822 106.252C34.4331 106.252 32.853 108.013 32.853 110.187C32.853 112.36 34.4331 114.122 36.3822 114.122Z" fill="#FF8080"/>
<path d="M39.6731 106.491C40.389 106.491 40.9694 105.844 40.9694 105.046C40.9694 104.248 40.389 103.6 39.6731 103.6C38.9571 103.6 38.3767 104.248 38.3767 105.046C38.3767 105.844 38.9571 106.491 39.6731 106.491Z" fill="#FF8080"/>
<path d="M32.853 107.079C33.5689 107.079 34.1493 106.432 34.1493 105.634C34.1493 104.835 33.5689 104.188 32.853 104.188C32.137 104.188 31.5566 104.835 31.5566 105.634C31.5566 106.432 32.137 107.079 32.853 107.079Z" fill="#FF8080"/>
<path d="M36.0808 105.634C36.8752 105.634 37.5191 104.916 37.5191 104.03C37.5191 103.144 36.8752 102.426 36.0808 102.426C35.2865 102.426 34.6426 103.144 34.6426 104.03C34.6426 104.916 35.2865 105.634 36.0808 105.634Z" fill="#FF8080"/>
<path d="M22.7408 120.616C22.3439 120.302 21.9688 119.961 21.6179 119.597C22.0164 119.909 22.3916 120.249 22.7408 120.616Z" fill="#FFF3E9"/>
<path d="M106.822 118.965C102.142 118.965 92.9202 116.204 85.511 113.986C81.5742 112.807 78.174 111.789 76.697 111.575L76.9178 110.054C78.5065 110.285 81.7916 111.268 85.952 112.514C92.8805 114.587 102.369 117.428 106.823 117.428C109.121 117.428 111.134 116.513 112.643 114.782C114.686 112.439 115.653 108.797 115.166 105.279C114.583 101.06 112.535 99.4537 110.921 98.8501C108.812 98.0608 106.542 98.6214 105.474 99.5492L105.067 99.904L104.597 99.6399C104.502 99.5874 95.0733 94.3629 89.7574 93.0502L90.1263 91.5585C95.0307 92.7704 102.932 96.9825 104.903 98.0555C106.432 97.0179 109.016 96.496 111.46 97.4104C113.103 98.0254 115.966 99.8376 116.69 105.068C117.235 109.015 116.129 113.124 113.802 115.793C111.991 117.868 109.578 118.965 106.822 118.965Z" fill="#000072"/>
<path d="M105.543 99.48C103.56 101.554 102.772 104.559 102.817 107.376C102.827 107.477 102.797 107.578 102.733 107.657C102.668 107.736 102.575 107.787 102.474 107.797C102.373 107.808 102.271 107.777 102.192 107.713C102.113 107.649 102.063 107.556 102.052 107.454C101.965 106.676 101.946 105.892 101.995 105.11C102.098 103.337 102.531 101.564 103.373 99.9809C103.518 99.7264 103.692 99.4504 103.845 99.1968C103.961 99.0321 104.275 98.6238 104.397 98.4567C105.098 97.6034 106.308 98.6773 105.543 99.48Z" fill="#000072"/>
<path d="M109.356 114.122C111.306 114.122 112.886 112.36 112.886 110.187C112.886 108.013 111.306 106.252 109.356 106.252C107.407 106.252 105.827 108.013 105.827 110.187C105.827 112.36 107.407 114.122 109.356 114.122Z" fill="#FF8080"/>
<path d="M106.066 106.491C106.782 106.491 107.362 105.844 107.362 105.046C107.362 104.248 106.782 103.6 106.066 103.6C105.35 103.6 104.769 104.248 104.769 105.046C104.769 105.844 105.35 106.491 106.066 106.491Z" fill="#FF8080"/>
<path d="M112.885 107.079C113.601 107.079 114.182 106.432 114.182 105.634C114.182 104.835 113.601 104.188 112.885 104.188C112.169 104.188 111.589 104.835 111.589 105.634C111.589 106.432 112.169 107.079 112.885 107.079Z" fill="#FF8080"/>
<path d="M109.658 105.634C110.452 105.634 111.096 104.916 111.096 104.03C111.096 103.144 110.452 102.426 109.658 102.426C108.863 102.426 108.219 103.144 108.219 104.03C108.219 104.916 108.863 105.634 109.658 105.634Z" fill="#FF8080"/>
<path d="M97.8077 96.4644C98.2225 84.7468 90.7058 72.9436 88.1709 63.954C85.195 53.4009 78.6187 53.2653 72.8867 53.4582H72.8523C67.1184 53.2672 60.5435 53.4014 57.5681 63.954C55.0327 72.9436 47.5161 84.7468 47.9308 96.4644L59.359 112.18C62.5126 113.012 67.2082 113.899 72.8533 113.899C78.4983 113.899 83.1915 113.011 86.3475 112.18" fill="white"/>
<path d="M97.8086 96.4635L86.3475 112.179C83.1939 113.013 78.4973 113.901 72.8537 113.901C67.2101 113.901 62.5145 113.013 59.3594 112.179L47.9303 96.4635C47.6278 87.9161 51.5489 79.3208 54.6743 71.8053C55.8321 69.0199 56.8828 66.3841 57.5671 63.9545C60.543 53.4015 67.1203 53.2644 72.8513 53.4573H72.8872C78.6211 53.2663 85.1955 53.4019 88.1699 63.9545C88.8561 66.3898 89.9087 69.03 91.0703 71.8196C94.1958 79.3304 98.1106 87.9208 97.8086 96.4635Z" fill="white"/>
<g opacity="0.25">
<path d="M94.2354 101.333L86.3475 112.179C83.1938 113.013 78.4992 113.901 72.8537 113.901C67.2082 113.901 62.5145 113.013 59.3594 112.179L51.4714 101.333C53.3005 102.619 55.2397 103.741 57.2665 104.686C62.3792 107.078 50.9224 90.0458 53.4707 83.9303C54.163 82.2723 68.9044 89.7139 69.8238 97.1397C70.7168 104.331 70.8635 106.797 72.8537 106.797C74.8438 106.797 74.99 104.331 75.8812 97.1397C76.8024 89.7139 91.5438 82.2723 92.2343 83.9303C94.7845 90.0458 83.3257 107.078 88.4404 104.686C90.4672 103.741 92.4064 102.619 94.2354 101.333Z" fill="#371A45"/>
</g>
<g opacity="0.25">
<path d="M91.0703 71.8196C86.2739 74.3026 79.8921 75.8154 72.8871 75.8154C65.8688 75.8154 59.475 74.2945 54.6743 71.8043C55.8321 69.019 56.8828 66.3831 57.5671 63.9535C60.543 53.4005 67.1203 53.2634 72.8513 53.4564H72.8871C78.621 53.2653 85.1955 53.401 88.1699 63.9535C88.8561 66.3879 89.9087 69.0314 91.0703 71.8196Z" fill="#371A45"/>
</g>
<path d="M59.457 111.809C61.4199 111.921 64.1875 112.404 66.1519 112.675C71.6688 113.495 77.3951 113.142 82.8758 112.177C83.9963 112.009 85.1063 111.85 86.2487 111.809C86.3383 111.805 86.4264 111.832 86.4985 111.886C86.5706 111.939 86.6224 112.015 86.6452 112.102C86.668 112.188 86.6606 112.28 86.6241 112.362C86.5877 112.444 86.5244 112.511 86.4446 112.552C85.9263 112.816 85.3881 113.04 84.8349 113.22C83.1907 113.772 81.4743 114.069 79.7556 114.265C74.0384 114.865 68.1807 114.88 62.5395 113.681C61.4185 113.407 60.3109 113.063 59.2602 112.551C58.8851 112.369 59.0294 111.779 59.4561 111.808L59.457 111.809Z" fill="#000072"/>
<path d="M97.4236 96.4507C97.0586 89.6652 94.8868 83.1983 92.3634 76.9405C90.6609 72.6863 88.699 68.5362 87.4122 64.1001C86.8001 61.9743 85.9501 59.9057 84.6446 58.2043C81.7777 54.3661 77.3564 54.0175 72.8997 54.2266C71.7233 54.1932 70.597 54.1631 69.4722 54.2266C63.1081 54.4453 59.973 58.2649 58.3269 64.1001C56.3645 70.697 53.0943 76.7709 51.0162 83.3062C50.3238 85.4015 49.7017 87.6353 49.2516 89.8003C48.9429 91.2993 48.7198 92.8345 48.5167 94.3515C48.4689 95.0453 48.3991 95.7535 48.3136 96.4526C48.3094 96.5494 48.2688 96.6412 48.2 96.7095C48.1311 96.7778 48.039 96.8176 47.942 96.821C47.8451 96.8245 47.7504 96.7912 47.6768 96.728C47.6033 96.6647 47.5563 96.5761 47.5453 96.4798C47.4784 95.9039 47.4363 95.3237 47.3924 94.7412C47.1377 86.0027 51.4539 77.9232 54.5655 70.0409C55.4175 67.937 56.2326 65.8316 56.8462 63.6818C57.5027 61.4094 58.412 59.1732 59.8737 57.2693C63.0694 53.0009 67.9719 52.4398 72.8638 52.6919C77.6942 52.4488 82.6339 52.9603 85.8607 57.2693C87.3228 59.1727 88.2317 61.4098 88.8882 63.6818C89.5017 65.8307 90.3169 67.937 91.1689 70.0409C93.7095 76.3503 96.8344 82.7098 97.954 89.5277C98.3062 91.8245 98.4251 94.1696 98.1867 96.4798C98.1165 96.943 97.4537 96.9396 97.4184 96.4526L97.4236 96.4507Z" fill="#000072"/>
<path d="M86.0408 5.68268C94.8734 1.79764 109.038 -0.950442 112.316 2.07699C115.744 5.24242 109.513 20.7 105.754 26.7166L86.0408 5.68268Z" fill="#F9A528"/>
<path d="M105.753 26.717L97.7642 18.1949L86.0378 5.68404C94.8709 1.80186 109.035 -0.947656 112.314 2.07882C112.675 2.41308 112.927 2.8777 113.088 3.45596C114.463 8.38294 109.12 21.3331 105.753 26.717Z" fill="#FF6F03"/>
<g opacity="0.25">
<path d="M105.754 26.7171L97.7643 18.1949C97.673 15.4998 97.9707 12.077 99.429 8.71869C100.94 5.23906 109.3 1.26233 113.088 3.45411C114.463 8.383 109.12 21.3331 105.754 26.7171Z" fill="#371A45"/>
</g>
<path d="M105.879 27.994L84.7153 5.41149L85.7259 4.96741C94.2537 1.21846 109.059 -1.9952 112.847 1.50353C117.096 5.4263 109.432 22.3068 106.418 27.1321L105.879 27.994ZM87.3759 5.96445L105.618 25.4293C109.547 18.6634 114.47 5.12928 111.786 2.65195C109.009 0.0867532 96.1875 2.34204 87.3759 5.96445Z" fill="#000072"/>
<path d="M35.0347 50.2403C35.3615 52.2316 36.1193 54.4214 37.581 56.6099C41.6984 62.7698 51.4122 68.9092 72.8551 70.5742C94.5613 68.9173 104.254 62.6557 108.293 56.427C109.662 54.3169 110.382 52.2115 110.699 50.2876C111.483 45.5521 110.058 41.605 109.908 40.1763C108.927 31.5056 106.664 0.807764 72.899 0.786754C56.0165 0.776249 47.0009 8.4451 42.0817 17.1984C37.1624 25.9517 36.3372 35.7965 35.8408 40.13C35.6893 41.5587 34.2611 45.5039 35.0347 50.2403Z" fill="white"/>
<g opacity="0.25">
<path d="M37.5471 56.6327C41.6684 62.7964 51.3916 68.9444 72.8551 70.6105C94.5823 68.9521 104.285 62.6838 108.327 56.4498C108.327 56.4498 102.211 60.8534 90.5203 63.6966C78.8533 66.5325 66.6751 66.5248 55.0117 63.6741C44.9052 61.203 38.9701 57.571 37.5471 56.6327Z" fill="#371A45"/>
</g>
<path d="M74.3774 7.10953C74.3698 19.2861 84.2441 29.1658 96.4305 29.1735C100.287 29.1827 104.077 28.1764 107.421 26.2559C104.109 14.9799 96.1051 1.78908 75.2867 0.842651C74.6833 2.87696 74.377 4.98771 74.3774 7.10953Z" fill="white"/>
<path d="M74.3774 7.10953C74.3698 19.2861 84.2441 29.1658 96.4305 29.1735C100.287 29.1827 104.077 28.1764 107.421 26.2559C104.109 14.9799 96.1051 1.78908 75.2867 0.842651C74.6833 2.87696 74.377 4.98771 74.3774 7.10953Z" fill="#FF6F03"/>
<path d="M39.9539 22.5599C39.2998 25.2722 38.563 27.9224 37.9949 30.6461C37.3584 33.6922 36.9847 36.8141 36.6703 39.9294C36.5709 40.9995 36.2508 42.0658 36.0673 43.0934C34.9143 48.5118 35.9679 53.9134 39.727 58.0783C44.3432 63.233 51.0964 65.7968 57.6268 67.5989C60.3069 68.3281 63.032 68.9264 65.7785 69.4583C65.8747 69.478 65.9597 69.5336 66.0162 69.6137C66.0728 69.6939 66.0965 69.7926 66.0827 69.8897C66.0688 69.9868 66.0184 70.075 65.9417 70.1362C65.865 70.1974 65.7679 70.227 65.6701 70.219C57.2488 69.392 48.5773 67.2704 41.6775 62.1414C38.186 59.5103 35.3592 55.7876 34.3667 51.4728C33.51 47.9111 34.0026 44.2008 34.8531 40.704C34.9865 40.1195 35.0572 39.2953 35.1312 38.7013C35.6267 34.5078 36.2699 30.2522 37.5682 26.2067C38.0264 24.8615 38.5616 23.5374 39.2367 22.283C39.4527 21.9072 40.0571 22.1025 39.9535 22.5604L39.9539 22.5599Z" fill="#000072"/>
<path d="M79.9342 69.4673C89.0855 67.5673 99.4854 65.2652 106.008 58.1025C110.478 53.0285 110.821 47.3838 109.239 41.0596C109.164 40.6901 109.109 40.3168 109.075 39.9413C108.764 36.8241 108.392 33.7002 107.755 30.6513C107.189 27.9252 106.449 25.275 105.8 22.5589C105.777 22.4673 105.788 22.3703 105.832 22.2863C105.875 22.2023 105.948 22.1371 106.036 22.1031C106.124 22.069 106.222 22.0683 106.31 22.1013C106.399 22.1343 106.473 22.1985 106.517 22.2819C107.196 23.5368 107.731 24.8605 108.187 26.2085C109.483 30.2583 110.125 34.5172 110.615 38.7141C110.668 39.0689 110.742 39.927 110.799 40.2498C110.947 41.0854 111.168 41.9177 111.332 42.7863C114.199 56.3204 104.336 64.2027 92.5368 67.8366C88.4863 69.1011 84.2566 69.8646 80.0417 70.2275C79.5825 70.249 79.4415 69.5896 79.9342 69.4664V69.4673Z" fill="#000072"/>
<path d="M110.703 5.07648C111.305 6.60881 109.194 16.4795 105.976 21.2723C105.579 20.8817 103.557 16.5263 100.179 11.8175C98.8322 9.9409 99.3401 8.78627 101.414 7.35278C104.334 5.33672 110.289 4.02308 110.703 5.07648Z" fill="#FFB8B8"/>
<path d="M110.771 6.65876C110.609 8.68628 109.859 12.1459 108.714 15.4335C107.957 17.611 107.024 19.7116 105.976 21.2726C105.58 20.8824 103.559 16.5251 100.18 11.8178C98.8324 9.94166 99.3403 8.78703 101.414 7.35354C104.334 5.33605 110.29 4.02146 110.703 5.07485C110.811 5.35467 110.832 5.90859 110.771 6.65876Z" fill="#FF8080"/>
<path d="M110.771 6.65876C108.582 6.3245 103.619 8.62802 102.852 9.98224C102.201 11.133 103.886 12.6835 104.922 15.3261C105.634 17.144 107.706 16.0901 108.714 15.4335C107.957 17.611 107.024 19.7116 105.976 21.2726C105.58 20.8824 103.559 16.5251 100.18 11.8178C98.8324 9.94166 99.3403 8.78703 101.414 7.35354C104.334 5.33605 110.29 4.02146 110.703 5.07485C110.811 5.35467 110.832 5.90859 110.771 6.65876Z" fill="#F26666"/>
<path d="M111.307 4.83896C111.478 5.34703 111.446 5.68607 111.443 6.15307C111.392 7.26377 111.2 8.34963 110.985 9.42547C110.393 12.2581 109.56 15.0214 108.441 17.6912C107.873 19.022 107.231 20.3323 106.402 21.5591C106.362 21.6238 106.307 21.6784 106.243 21.7188C106.178 21.7592 106.105 21.7842 106.029 21.792C105.953 21.7997 105.877 21.79 105.805 21.7635C105.734 21.737 105.669 21.6945 105.617 21.6393C105.399 21.4225 105.239 21.0873 105.076 20.8356L104.658 20.1151C103.87 18.7265 102.986 17.2156 102.133 15.88C101.336 14.6151 100.484 13.3578 99.6001 12.1521C98.8714 11.2281 98.396 9.86525 99.021 8.75122C99.4658 7.88931 100.257 7.27379 100.986 6.74567C101.955 6.07285 102.996 5.57003 104.085 5.15889C105.455 4.63363 110.578 3.06643 111.307 4.83944L111.307 4.83896ZM110.098 5.31361C110.115 5.36005 110.142 5.40193 110.178 5.43585C110.19 5.44779 110.184 5.4411 110.158 5.43585C109.36 5.28304 108.485 5.49315 107.673 5.65741C105.707 6.10962 100.545 7.75847 100.138 9.90728C100.074 10.7472 100.941 11.707 101.391 12.4176C102.638 14.2608 103.769 16.1756 104.827 18.1286C105.18 18.778 105.834 20.0258 106.189 20.6647C106.232 20.7511 106.3 20.8399 106.336 20.9068L105.553 20.9865C107.764 17.4367 108.945 13.2661 109.779 9.1891C109.966 8.16961 110.131 7.14009 110.161 6.11487C110.173 5.87277 110.158 5.49411 110.099 5.31361H110.098Z" fill="#000072"/>
<path d="M35.0958 5.07648C34.4933 6.60881 36.6039 16.4795 39.822 21.2723C40.2196 20.8817 42.2408 16.5263 45.619 11.8175C46.966 9.9409 46.4581 8.78627 44.3838 7.35278C41.4643 5.33672 35.5096 4.02308 35.0958 5.07648Z" fill="#FFB8B8"/>
<path d="M35.0258 6.65876C35.1873 8.68628 35.938 12.1459 37.0834 15.4335C37.8398 17.611 38.7725 19.7116 39.8203 21.2726C40.2169 20.8824 42.2381 16.5251 45.6168 11.8178C46.9643 9.94166 46.4564 8.78703 44.3826 7.35354C41.4636 5.33605 35.507 4.02146 35.0946 5.07485C34.9871 5.35467 34.9671 5.90859 35.0258 6.65876Z" fill="#FF8080"/>
<path d="M35.0258 6.65876C37.2148 6.3245 42.1775 8.62802 42.9444 9.98224C43.5956 11.133 41.9104 12.6835 40.8744 15.3261C40.1625 17.144 38.0906 16.0901 37.0834 15.4335C37.8398 17.611 38.7725 19.7116 39.8203 21.2726C40.2169 20.8824 42.2381 16.5251 45.6168 11.8178C46.9643 9.94166 46.4564 8.78703 44.3826 7.35354C41.4636 5.33605 35.507 4.02146 35.0946 5.07485C34.9871 5.35467 34.9671 5.90859 35.0258 6.65876Z" fill="#F26666"/>
<path d="M35.7003 5.31351C35.6449 5.5007 35.6262 5.87172 35.6377 6.11478C35.6687 7.14047 35.8346 8.16808 36.0199 9.189C36.8523 13.2655 38.0349 17.4366 40.2458 20.9864L39.4613 20.9062C39.5 20.8422 39.563 20.7453 39.6079 20.6641C39.9591 20.029 40.6166 18.7808 40.9702 18.128C42.0281 16.1755 43.1606 14.2602 44.4044 12.4146C44.853 11.7045 45.7227 10.7433 45.6572 9.90431C45.2606 7.76315 40.0843 6.10475 38.1224 5.65445C37.3101 5.48971 36.4357 5.27961 35.6377 5.43241C35.6114 5.43957 35.6057 5.44626 35.6176 5.43241C35.6535 5.39849 35.6808 5.35661 35.6974 5.31017L35.7003 5.31351ZM34.4909 4.83886C35.2167 3.06443 40.3529 4.63353 41.7152 5.15832C42.8046 5.56946 43.8448 6.07228 44.8143 6.74509C45.543 7.27036 46.3338 7.8873 46.7792 8.75064C47.4003 9.86564 46.9287 11.227 46.1996 12.1515C45.3161 13.3577 44.4646 14.614 43.6671 15.8794C42.8142 17.2112 41.9268 18.7287 41.1418 20.1131C40.9119 20.4951 40.5684 21.1373 40.3027 21.4978C40.1025 21.8292 39.6304 21.9238 39.3982 21.5575C38.5691 20.3327 37.9274 19.0224 37.3593 17.6897C36.2402 15.0199 35.4074 12.2565 34.8153 9.42394C34.6008 8.34762 34.4082 7.26224 34.3581 6.15154C34.3552 5.68501 34.3227 5.34646 34.4928 4.83743L34.4909 4.83886Z" fill="#000072"/>
<path d="M68.7549 41.8175C68.7549 43.0208 70.5792 44.5942 72.8976 45.1749C75.2184 44.5971 77.0456 43.0261 77.0466 41.8227C77.0466 40.7803 73.936 40.5334 72.9005 40.5334C71.8651 40.5334 68.7554 40.7755 68.7549 41.8175Z" fill="#000072"/>
<g opacity="0.3">
<path d="M70.9395 41.5152C70.9395 41.8786 71.8029 42.3537 72.8985 42.5294C73.9975 42.3551 74.861 41.881 74.861 41.5176C74.861 41.2024 73.3893 41.1284 72.9019 41.1279C72.4145 41.1275 70.9395 41.2 70.9395 41.5152Z" fill="white"/>
</g>
<path d="M78.0325 50.2728C77.9221 50.2732 77.8139 50.2419 77.7207 50.1826C77.6276 50.1234 77.5534 50.0386 77.5069 49.9385C77.4806 49.8831 76.9531 48.8001 75.8106 48.7925H75.803C75.3438 48.7925 74.9773 49.0241 74.5535 49.2925C74.0876 49.5871 73.5596 49.9204 72.8682 49.9204C72.1768 49.9204 71.6483 49.5861 71.1829 49.2925C70.7586 49.0241 70.3921 48.7925 69.9334 48.7925H69.9253C68.7613 48.7992 68.2352 49.9242 68.2299 49.9352C68.1986 50.0042 68.1539 50.0663 68.0985 50.118C68.0431 50.1697 67.978 50.2101 67.907 50.2367C67.836 50.2633 67.7605 50.2756 67.6847 50.2731C67.609 50.2705 67.5344 50.253 67.4654 50.2217C67.3964 50.1903 67.3342 50.1457 67.2824 50.0903C67.2307 50.035 67.1903 49.97 67.1637 49.899C67.1371 49.8281 67.1247 49.7526 67.1273 49.6769C67.1299 49.6011 67.1473 49.5266 67.1787 49.4577C67.2122 49.3837 68.0235 47.6508 69.9171 47.6403H69.9319C70.7247 47.6403 71.2942 48.0008 71.7955 48.3188C72.1777 48.5604 72.5069 48.7686 72.8644 48.7686C73.2218 48.7686 73.551 48.5604 73.9328 48.3188C74.4359 48.0008 75.0055 47.6403 75.7963 47.6403H75.8116C77.7047 47.6508 78.5161 49.3837 78.5495 49.4577C78.5894 49.5455 78.6066 49.642 78.5995 49.7382C78.5925 49.8344 78.5614 49.9273 78.5091 50.0084C78.4568 50.0895 78.385 50.1562 78.3002 50.2024C78.2155 50.2486 78.1205 50.2728 78.0239 50.2728H78.0325Z" fill="#000072"/>
<path d="M53.1354 25.9349C52.8534 25.3552 56.1428 20.6283 59.0002 21.0642C60.6301 21.314 61.1867 23.585 59.9429 24.3467C58.9228 24.9751 53.6223 26.9357 53.1354 25.9349Z" fill="#000072"/>
<path d="M92.6038 25.9349C92.8857 25.3552 89.5964 20.6283 86.7395 21.0642C85.1091 21.314 84.5529 23.585 85.7962 24.3467C86.8159 24.9751 92.1164 26.9357 92.6038 25.9349Z" fill="#000072"/>
<path d="M50.7719 43.8188C52.1026 46.2321 54.8869 45.0197 58.086 43.6946C61.285 42.3695 63.1074 41.9651 63.0076 39.7695C62.8795 36.9655 58.8142 34.6844 54.7455 35.8964C50.6252 37.1241 49.3279 41.2001 50.7719 43.8188Z" fill="#000072"/>
<path d="M53.078 45.7856C51.925 45.7856 50.9502 45.3363 50.2669 44.0972C49.4871 42.6828 49.4188 40.8697 50.0834 39.2475C50.8551 37.3647 52.4525 35.9785 54.5807 35.3444C56.978 34.631 59.6357 35.0163 61.5154 36.3519C62.7907 37.2592 63.5252 38.462 63.5835 39.7422C63.6895 42.0701 62.0009 42.7444 59.445 43.7658C59.0881 43.909 58.7082 44.0599 58.3068 44.2261L58.121 44.303C56.3062 45.057 54.5473 45.7856 53.078 45.7856ZM57.0258 36.1399C56.3094 36.1399 55.5967 36.2434 54.91 36.4474C53.1229 36.9798 51.7878 38.1287 51.1504 39.6826C50.6167 40.9852 50.664 42.4268 51.2771 43.5389C52.2805 45.3616 54.3643 44.6119 57.6799 43.2381L57.8658 43.1608C58.2719 42.9927 58.6561 42.8394 59.0174 42.6947C61.6057 41.6609 62.4974 41.2302 62.4319 39.7938C62.3899 38.8746 61.8275 37.985 60.8479 37.2893C59.7862 36.5372 58.4253 36.1418 57.0258 36.1418V36.1399Z" fill="#000072"/>
<path d="M59.3618 41.6124C60.4353 41.4975 61.2077 40.4918 61.0871 39.3661C60.9666 38.2404 59.9986 37.4209 58.9251 37.5357C57.8517 37.6506 57.0792 38.6562 57.1998 39.782C57.3204 40.9077 58.2883 41.7272 59.3618 41.6124Z" fill="white"/>
<path d="M53.9476 41.4819C54.6511 41.4066 55.1573 40.7476 55.0783 40.01C54.9993 39.2723 54.365 38.7354 53.6615 38.8106C52.958 38.8859 52.4517 39.5449 52.5308 40.2825C52.6098 41.0201 53.2441 41.5571 53.9476 41.4819Z" fill="white"/>
<path d="M57.0875 44.1301C52.7713 51.7731 55.2335 67.0984 54.3916 67.819C53.2448 68.7988 48.9444 67.1829 48.2645 65.6664C47.2926 63.498 46.5476 51.3037 51.3115 44.6635C52.6576 42.7859 56.7258 43.4778 57.0875 44.1301Z" fill="#66E9FF"/>
<path d="M53.4699 67.0111C53.4221 67.0154 53.3667 67.0177 53.3026 67.0177C51.787 67.0177 49.5517 65.8435 49.2703 65.217C49.1384 64.9224 48.76 62.7679 48.7576 61.2928C50.0138 61.8291 51.6002 62.0822 53.3925 61.7174C53.4059 62.4403 53.4259 63.5663 53.4321 63.7883C53.4656 65.006 53.5072 66.3573 53.4699 67.0111Z" fill="#66DBFF"/>
<path d="M95.0296 43.8188C93.6994 46.2321 90.9151 45.0197 87.716 43.6946C84.517 42.3695 82.6946 41.9651 82.7944 39.7695C82.922 36.9655 86.9878 34.6844 91.0565 35.8964C95.1768 37.1241 96.4741 41.2001 95.0296 43.8188Z" fill="#000072"/>
<path d="M92.7236 45.7857C91.2548 45.7857 89.4959 45.057 87.6806 44.3054L87.4952 44.2285C87.0938 44.0623 86.714 43.9105 86.357 43.7682C83.8012 42.7468 82.1125 42.072 82.2186 39.7446C82.2769 38.463 83.0113 37.2582 84.2866 36.3543C86.1664 35.0173 88.826 34.6353 91.2213 35.3468C93.3495 35.9809 94.9484 37.3671 95.7186 39.2499C96.3833 40.8735 96.3145 42.6852 95.5346 44.0996C94.8518 45.3368 93.8771 45.7857 92.7236 45.7857ZM88.7758 36.1399C87.3762 36.1399 86.0159 36.5353 84.9532 37.2893C83.9736 37.985 83.4108 38.8746 83.3692 39.7938C83.3037 41.2302 84.1954 41.6609 86.7837 42.6947C87.145 42.838 87.5292 42.9927 87.9353 43.1608L88.1207 43.2381C91.4359 44.6124 93.5201 45.3607 94.5236 43.5394C95.1366 42.4268 95.1839 40.9852 94.6497 39.6826C94.0128 38.1283 92.6777 36.9798 90.8902 36.4474C90.2038 36.2442 89.4917 36.1413 88.7758 36.1418V36.1399Z" fill="#000072"/>
<path d="M88.6023 39.7822C88.7229 38.6565 87.9504 37.6508 86.8769 37.536C85.8035 37.4211 84.8355 38.2406 84.7149 39.3664C84.5943 40.4921 85.3668 41.4978 86.4403 41.6126C87.5137 41.7274 88.4817 40.9079 88.6023 39.7822Z" fill="white"/>
<path d="M93.2695 40.281C93.3485 39.5434 92.8422 38.8844 92.1388 38.8092C91.4353 38.7339 90.8009 39.2709 90.7219 40.0085C90.6429 40.7461 91.1491 41.4051 91.8526 41.4804C92.5561 41.5556 93.1905 41.0187 93.2695 40.281Z" fill="white"/>
<path d="M98.8857 47.4345C101.036 46.511 103.338 46.022 105.618 45.5244C105.081 45.7632 104.54 45.9833 103.996 46.1968C102.356 46.8084 100.731 47.4751 99.0008 47.7998C98.782 47.8404 98.6826 47.5238 98.8857 47.433V47.4345Z" fill="#000072"/>
<path d="M105.618 55.1166C103.969 54.7571 102.161 54.2724 100.526 53.8226C99.9652 53.6616 99.4104 53.4835 98.8786 53.2309C98.8313 53.2082 98.7938 53.1692 98.7729 53.1211C98.752 53.073 98.7492 53.0189 98.7649 52.9689C98.7806 52.9188 98.8139 52.8761 98.8585 52.8486C98.9032 52.821 98.9563 52.8105 99.0081 52.8188C99.5887 52.9143 100.146 53.0853 100.698 53.273C102.3 53.8383 104.056 54.4706 105.62 55.1166H105.618Z" fill="#000072"/>
<path d="M105.618 50.3215C104.014 50.4705 102.229 50.5445 100.612 50.608C100.056 50.6247 99.4997 50.6199 98.9435 50.5373C98.893 50.5284 98.8472 50.502 98.8142 50.4627C98.7813 50.4234 98.7632 50.3737 98.7632 50.3225C98.7632 50.2712 98.7813 50.2215 98.8142 50.1822C98.8472 50.143 98.893 50.1165 98.9435 50.1076C99.4997 50.025 100.056 50.0207 100.612 50.0374C102.232 50.1009 104.012 50.1749 105.618 50.3239V50.3215Z" fill="#000072"/>
<path d="M46.7378 47.8012C44.4442 47.3314 42.2763 46.4203 40.1208 45.5259C40.6942 45.6381 41.2676 45.7646 41.8362 45.8993C43.533 46.3338 45.247 46.7139 46.8534 47.4345C47.056 47.5262 46.9571 47.8428 46.7383 47.8012H46.7378Z" fill="#000072"/>
<path d="M40.1208 55.1166C41.68 54.472 43.4413 53.8374 45.0425 53.273C45.5943 53.0853 46.152 52.9153 46.7325 52.8188C46.7843 52.8105 46.8374 52.821 46.8821 52.8486C46.9268 52.8761 46.96 52.9188 46.9757 52.9689C46.9915 53.0189 46.9886 53.073 46.9677 53.1211C46.9468 53.1692 46.9093 53.2082 46.862 53.2309C46.3302 53.4835 45.7754 53.6607 45.215 53.8226C43.577 54.2729 41.7746 54.7561 40.1228 55.1166H40.1208Z" fill="#000072"/>
<path d="M40.1208 50.3215C41.7244 50.1725 43.5091 50.0985 45.1266 50.0349C45.6832 50.0182 46.2394 50.0225 46.7956 50.1051C46.8457 50.1146 46.8909 50.1413 46.9234 50.1805C46.9559 50.2197 46.9737 50.2691 46.9737 50.32C46.9737 50.371 46.9559 50.4203 46.9234 50.4595C46.8909 50.4988 46.8457 50.5254 46.7956 50.5349C46.2394 50.6175 45.6832 50.6223 45.1266 50.6056C43.5072 50.5421 41.7273 50.468 40.1208 50.3191V50.3215Z" fill="#000072"/>
<path d="M73.5667 44.9648C73.4391 45.141 73.3432 45.3382 73.2834 45.5473C73.1606 46.022 73.1199 46.6141 72.9369 46.6141C72.7539 46.6141 72.7138 46.022 72.5915 45.5473C72.5317 45.3382 72.436 45.1411 72.3086 44.9648L72.9369 44.4801L73.5667 44.9648Z" fill="#000072"/>
<path d="M91.1123 5.22144C80.9017 0.793944 69.0549 0.485949 58.4673 3.74115C57.5474 4.04962 56.6162 4.39105 55.7198 4.76016C55.3576 4.90963 55.003 5.07246 54.638 5.22383C54.5487 5.2646 54.4472 5.26976 54.3542 5.23826C54.2613 5.20676 54.1839 5.14097 54.1378 5.05435C54.0917 4.96772 54.0805 4.86679 54.1064 4.77218C54.1323 4.67756 54.1934 4.5964 54.2772 4.54528C55.3098 3.91214 56.3851 3.35131 57.4954 2.86683C62.3042 0.713723 67.6496 -0.0283318 72.8751 0.0165544C79.2909 -0.0364495 85.9504 1.12295 91.4731 4.54528C91.8553 4.79598 91.5687 5.41292 91.1123 5.22383V5.22144Z" fill="#000072"/>
<path d="M19.0004 102.355C12.201 102.131 7.94833 103.938 5.14349 106.227C-0.422229 110.766 0.306456 118.074 2.38309 121.319C4.42293 124.503 8.71476 126.473 14.2212 126.882C21.7451 127.439 28.1398 125.987 30.4329 122.146C32.6715 118.396 30.8524 113.303 24.1672 112.085C18.8155 111.11 18.9761 111.345 19.6254 108.595" fill="white"/>
<path d="M30.4328 122.143C28.1392 125.984 21.7445 127.437 14.2216 126.879C8.71513 126.471 4.42329 124.5 2.38393 121.316C0.306822 118.074 -0.422818 110.763 5.14194 106.227C6.41457 105.194 7.84089 104.366 9.36927 103.774C9.37276 103.772 9.37668 103.77 9.38074 103.77C11.8473 102.801 14.977 102.224 18.9979 102.356L19.6229 108.594C19.1169 110.745 18.9062 111.07 21.4 111.575C22.0947 111.716 22.9997 111.871 24.1656 112.083C30.8533 113.301 32.6714 118.395 30.4328 122.143Z" fill="white"/>
<g opacity="0.25">
<path d="M30.4324 122.142C30.122 122.658 29.7438 123.13 29.3081 123.547L15.2638 121.923C15.2638 121.923 8.65787 114.449 12.3094 108.965C13.3391 107.42 15.8492 107.915 19.6111 108.647C19.1137 110.751 18.9292 111.074 21.4015 111.575C22.0967 111.713 23.0013 111.87 24.1671 112.081C30.8524 113.3 32.672 118.396 30.4324 122.142Z" fill="#371A45"/>
</g>
<path d="M30.4328 122.143C28.1392 125.984 21.7445 127.437 14.2216 126.879C8.71513 126.471 4.42329 124.5 2.38393 121.316C0.306822 118.074 -0.422818 110.763 5.14194 106.227C6.41457 105.194 7.84089 104.366 9.36927 103.774C9.37276 103.772 9.37668 103.77 9.38074 103.77C9.78976 103.638 18.6888 100.897 18.0853 111.41C18.0853 111.41 19.5704 111.466 21.4 111.573C22.0947 111.714 22.9997 111.869 24.1656 112.082C30.8533 113.301 32.6714 118.395 30.4328 122.143Z" fill="#F9A528"/>
<path d="M30.4339 122.144C28.1404 125.985 21.7442 127.438 14.2222 126.879C8.71577 126.47 4.4268 124.5 2.38362 121.317C1.2139 119.492 0.472313 116.376 1.04045 113.191C1.48005 110.72 2.71284 108.207 5.14258 106.225C6.41523 105.193 7.84176 104.366 9.37039 103.774C9.37335 103.772 9.37658 103.771 9.37995 103.77H9.38233C9.79183 103.637 18.6904 100.897 18.0878 111.41C18.0878 111.41 19.572 111.466 21.402 111.573C22.0963 111.712 23.0013 111.87 24.1672 112.08C28.5518 112.879 30.8439 115.345 31.2696 118.007C31.4942 119.404 31.2032 120.853 30.4339 122.144Z" fill="#FF6F03"/>
<g opacity="0.5">
<path d="M11.6122 107.601C11.6122 107.601 5.88786 109.681 9.63928 112.615C12.6438 114.965 22.4775 113.191 26.4511 115.748C25.5891 111.143 6.33176 114.665 11.6122 107.601Z" fill="white"/>
</g>
<g opacity="0.25">
<path d="M18.0886 111.411C18.0886 111.411 11.4975 111.275 12.3069 108.966C13.178 107.661 15.1051 107.81 17.9496 108.331C18.1015 109.204 18.1546 110.222 18.0862 111.411" fill="#371A45"/>
</g>
<g opacity="0.25">
<path d="M30.5555 122.634C28.262 126.475 21.8658 127.928 14.3438 127.37C8.83738 126.96 4.54841 124.99 2.50523 121.807C1.33551 119.982 0.593926 116.866 1.16254 113.682C1.799 116.066 4.47053 121.881 15.3869 122.417C25.5407 122.916 30.2258 120.889 31.3941 118.502C31.6158 119.894 31.3253 121.343 30.5555 122.634Z" fill="#371A45"/>
</g>
<path d="M18.9751 103.122C12.9229 102.897 5.77606 104.623 2.81641 110.42C1.30744 113.515 1.27447 117.416 2.86419 120.48C4.14381 122.769 6.49185 124.199 8.97368 125.042C14.2651 126.827 25.6049 127.04 29.3945 122.375C31.7129 119.462 30.6369 115.619 27.4096 113.872C25.8538 112.972 24.0715 112.63 22.2807 112.391C20.4491 112.146 18.5851 112.014 16.7078 111.777C15.2939 111.538 12.5397 111.381 11.9453 109.789C11.8244 109.364 11.789 108.504 12.4021 108.602C13.223 108.936 11.7331 109.727 14.1223 110.38C19.4925 111.621 26.3216 110.055 30.4123 114.63C32.5582 117.065 32.5281 120.745 30.5346 123.267C27.9964 126.432 23.7017 127.345 19.8834 127.682C16.0331 127.935 12.1531 127.802 8.45141 126.597C5.66473 125.678 2.86563 123.966 1.39153 121.286C-0.924967 116.826 -0.318606 110.985 2.98174 107.175C6.93193 102.635 13.2703 101.352 19.0247 101.588C20.0353 101.653 19.9861 103.127 18.9741 103.124L18.9751 103.122Z" fill="#000072"/>
<path d="M54.3972 61.4294C54.4717 64.9358 54.659 67.5325 54.3245 67.8181C53.1778 68.7984 48.8773 67.1825 48.1979 65.6659C47.8677 64.9339 47.5662 63.0606 47.4935 60.6425C47.3502 55.8979 48.088 49.0628 51.2445 44.664C52.591 42.7864 56.6587 43.4769 57.0195 44.1296C54.4211 48.7333 54.282 56.1224 54.3972 61.4294Z" fill="#66E9FF"/>
<path d="M53.4006 67.0111C53.3528 67.0158 53.2973 67.0177 53.2333 67.0177C51.7177 67.0177 49.4824 65.844 49.2009 65.2175C49.0691 64.9229 48.6906 62.7684 48.6882 61.2928C49.9444 61.8296 51.5308 62.0822 53.3231 61.7174C53.3365 62.4408 53.3566 63.5663 53.3628 63.7883C53.3986 65.0065 53.4402 66.3573 53.4006 67.0111Z" fill="#66DBFF"/>
<path d="M53.2309 68.6943C52.8044 68.6881 52.3799 68.6358 51.9647 68.5381C50.2861 68.1604 48.2104 67.1056 47.67 65.9023C46.6857 63.7057 45.8662 51.17 50.7758 44.3282C51.8199 42.8733 53.9644 42.8341 54.8374 42.8842C55.0648 42.8976 57.0722 43.0366 57.5237 43.8507C57.5719 43.9367 57.5972 44.0337 57.5972 44.1322C57.5972 44.2308 57.5719 44.3277 57.5237 44.4137C54.5965 49.5971 54.8723 58.4464 55.039 63.7343C55.1413 67.0044 55.1494 67.8753 54.7017 68.2573C54.3165 68.5835 53.7809 68.6943 53.2309 68.6943ZM54.3963 44.0226C54.1985 44.0226 53.9945 44.0322 53.7862 44.0527C53.1005 44.1215 52.184 44.3416 51.7119 44.9996C47.1319 51.3835 47.8248 63.4273 48.7226 65.4309C49.0404 66.1396 50.6736 67.0664 52.2179 67.4136C53.1005 67.6122 53.6433 67.553 53.8779 67.4284C53.9825 66.9757 53.9319 65.3474 53.8827 63.7702C53.7188 58.5137 53.4479 49.8149 56.2661 44.3144C55.8876 44.1735 55.1972 44.0226 54.3973 44.0226H54.3963Z" fill="#25B0D6"/>
<path d="M52.2725 46.3095C51.4803 47.4985 50.5461 50.1191 51.7808 50.4552C53.1632 50.8315 53.4121 48.3399 53.6162 46.0664C53.7824 44.2137 52.8966 45.3707 52.2725 46.3095Z" fill="white"/>
<path d="M51.107 51.9475C50.4529 52.8013 50.677 53.9277 51.3937 54.0485C52.3145 54.2066 52.6762 53.4206 52.5577 52.5491C52.3972 51.3778 51.5839 51.3243 51.107 51.9475Z" fill="white"/>
<path d="M91.3413 61.4294C91.2668 64.9358 91.0799 67.5325 91.4139 67.8181C92.5607 68.7984 96.8611 67.1825 97.5411 65.6659C97.8708 64.9339 98.1723 63.0606 98.2449 60.6425C98.3883 55.8979 97.651 49.0628 94.494 44.664C93.1475 42.7864 89.0802 43.4769 88.719 44.1296C91.3174 48.7333 91.4569 56.1224 91.3413 61.4294Z" fill="#66E9FF"/>
<path d="M92.3381 67.0111C92.3858 67.0158 92.4413 67.0177 92.5053 67.0177C94.021 67.0177 96.2562 65.844 96.5377 65.2175C96.6696 64.9229 97.048 62.7684 97.0504 61.2928C95.7942 61.8296 94.2078 62.0822 92.4155 61.7174C92.4021 62.4408 92.3825 63.5663 92.3758 63.7883C92.3405 65.0065 92.2984 66.3573 92.3381 67.0111Z" fill="#66DBFF"/>
<path d="M92.5082 68.6943C91.9592 68.6943 91.4236 68.584 91.0413 68.2574C90.5936 67.8754 90.6017 67.0044 90.7039 63.7344C90.8688 58.4469 91.145 49.5971 88.2193 44.4137C88.1712 44.3277 88.146 44.2308 88.146 44.1322C88.146 44.0337 88.1712 43.9368 88.2193 43.8507C88.6708 43.039 90.6781 42.8957 90.9056 42.8843C91.78 42.8365 93.924 42.8728 94.9671 44.3283C99.8753 51.1701 99.0563 63.7048 98.073 65.9023C97.5326 67.108 95.4569 68.1604 93.7783 68.5381C93.3618 68.6361 92.936 68.6885 92.5082 68.6943ZM91.8612 67.4284C92.0959 67.553 92.6387 67.6122 93.5212 67.4136C95.0655 67.0665 96.6992 66.1396 97.0165 65.431C97.9143 63.4254 98.6072 51.3835 94.0272 44.9996C93.5551 44.3416 92.6387 44.1215 91.953 44.0527C90.9018 43.9477 89.9461 44.1387 89.4731 44.3144C92.2922 49.8149 92.0204 58.5137 91.8565 63.7702C91.8058 65.3479 91.7552 66.9781 91.8598 67.4284H91.8612Z" fill="#25B0D6"/>
<path d="M93.4663 46.3095C94.2586 47.4985 95.1927 50.1191 93.958 50.4552C92.5757 50.8315 92.3267 48.3399 92.1227 46.0664C91.9564 44.2137 92.8428 45.3707 93.4663 46.3095Z" fill="white"/>
<path d="M94.6316 51.9475C95.2857 52.8013 95.0616 53.9277 94.3449 54.0485C93.4241 54.2066 93.0624 53.4206 93.1814 52.5491C93.3414 51.3778 94.1547 51.3243 94.6316 51.9475Z" fill="white"/>
<path d="M68.2714 103.9C66.4031 104.958 63.5309 104.838 61.223 102.548C60.3629 101.697 59.5946 100.7 58.9065 99.6131C54.6562 92.907 53.5176 82.8257 53.5176 82.8257L64.9677 79.9745C66.1795 83.8495 68.5485 89.4092 69.8153 94.4383C69.9772 95.0753 70.1206 95.7061 70.2405 96.3226C70.6448 98.3983 71.0782 102.309 68.2714 103.9Z" fill="white"/>
<g opacity="0.25">
<path d="M55.3066 86.6167C55.3066 86.6167 58.4641 99.796 63.358 102.063C68.1033 104.26 69.1397 100.426 68.9605 99.2908C68.401 101.608 65.3725 102.677 62.9012 100.606C58.7814 97.153 55.3066 86.6167 55.3066 86.6167Z" fill="#371A45"/>
</g>
<path d="M53.8043 82.7928C54.7408 87.1993 55.9067 91.5881 57.7334 95.7086C59.4617 99.459 62.8796 105.45 67.7678 103.181C70.984 101.374 69.3628 96.0471 68.6355 93.1458C67.7276 89.8834 66.5302 86.6631 65.5631 83.3978C65.2343 82.2996 64.9281 81.1912 64.6939 80.06C64.6237 79.7363 65.1015 79.5615 65.2434 79.8867C66.1451 81.9782 67.0592 84.0644 67.9035 86.1927C68.7478 88.321 69.5209 90.4856 70.1808 92.7046C71.2798 96.5113 72.8499 102.27 68.5944 104.719C66.8317 105.67 64.6194 105.587 62.8605 104.739C58.0622 102.324 55.33 94.6308 54.2152 89.6977C53.7121 87.4419 53.3551 85.167 53.2314 82.8559C53.2208 82.5054 53.7345 82.4328 53.8048 82.7909L53.8043 82.7928Z" fill="#000072"/>
<path d="M67.645 98.1559C68.8286 99.2413 69.8588 100.487 70.6424 101.913L69.1846 102.402C68.927 100.93 68.3694 99.4815 67.645 98.1559Z" fill="#000072"/>
<path d="M63.7981 100.606C64.9157 101.781 66.2513 102.874 67.8243 103.33C67.8921 103.345 68.0154 103.382 68.0632 103.376L67.6269 104.849C65.8771 103.97 64.6845 102.293 63.7986 100.606H63.7981Z" fill="#000072"/>
<path d="M77.5044 103.9C79.3727 104.958 82.2445 104.838 84.5528 102.548C85.4129 101.697 86.1813 100.7 86.8693 99.6131C91.1191 92.9079 92.2597 82.8257 92.2597 82.8257L80.8096 79.9745C79.5978 83.8495 77.2287 89.4092 75.962 94.4383C75.8 95.0753 75.6572 95.7061 75.5372 96.3226C75.1287 98.3983 74.6953 102.309 77.5044 103.9Z" fill="white"/>
<g opacity="0.25">
<path d="M90.4664 86.6167C90.4664 86.6167 87.3094 99.796 82.4155 102.063C77.6697 104.26 76.6338 100.426 76.8125 99.2908C77.3721 101.608 80.4005 102.677 82.8723 100.606C86.9917 97.153 90.4664 86.6167 90.4664 86.6167Z" fill="#371A45"/>
</g>
<path d="M92.5435 82.8577C92.0589 89.5797 90.2117 97.0876 85.8362 102.398C83.815 104.947 80.2265 106.333 77.1828 104.719C72.9263 102.267 74.4969 96.5131 75.5964 92.7045C76.8942 88.2866 78.7094 84.0883 80.5328 79.8881C80.669 79.5796 81.1511 79.7142 81.0833 80.06C80.8487 81.1912 80.5424 82.3005 80.2141 83.3978C79.2465 86.663 78.0476 89.8834 77.1417 93.1457C76.2716 96.5098 74.4735 102.756 79.3445 103.622C85.3603 104.5 88.9665 93.9718 90.3302 89.381C90.9619 87.2164 91.5137 85.0094 91.9705 82.7913C92.0274 82.4518 92.5602 82.4881 92.5439 82.8563L92.5435 82.8577Z" fill="#000072"/>
<path d="M78.128 98.1558C77.4041 99.4809 76.846 100.931 76.5885 102.402L75.1306 101.913C75.9138 100.487 76.9464 99.2392 78.128 98.1558Z" fill="#000072"/>
<path d="M81.9753 100.606C81.0889 102.293 79.8963 103.97 78.1465 104.849L77.7102 103.376C77.7623 103.381 77.8803 103.345 77.9491 103.33C79.5221 102.874 80.8581 101.781 81.9758 100.606H81.9753Z" fill="#000072"/>
<path d="M67.1562 41.2554C69.9926 38.6473 74.5898 38.3584 77.872 40.2851C78.3364 40.564 78.7875 40.8691 79.1678 41.2535C78.6813 41.0496 78.1849 40.8701 77.6804 40.7158C74.24 39.576 70.4795 39.8344 67.1562 41.2535V41.2554Z" fill="#000072"/>
</svg>
