<svg aria-hidden="true" style="position: absolute; width: 0; height: 0; overflow: hidden;" version="1.1" xmlns="http://www.w3.org/2000/svg" xmlns:xlink="http://www.w3.org/1999/xlink">
<defs>
<symbol id="facebook" viewBox="0 0 32 32">
<path d="M29 0h-26c-1.65 0-3 1.35-3 3v26c0 1.65 1.35 3 3 3h13v-14h-4v-4h4v-2c0-3.306 2.694-6 6-6h4v4h-4c-1.1 0-2 0.9-2 2v2h6l-1 4h-5v14h9c1.65 0 3-1.35 3-3v-26c0-1.65-1.35-3-3-3z"></path>
</symbol>
<symbol id="instagram" viewBox="0 0 32 32">
<path d="M31.968 9.408c-0.074-1.701-0.349-2.869-0.742-3.882-0.424-1.111-1.054-2.059-1.85-2.837l-0.001-0.001c-0.78-0.792-1.724-1.419-2.778-1.827l-0.054-0.018c-1.019-0.394-2.181-0.667-3.882-0.742-1.712-0.082-2.256-0.101-6.602-0.101-4.344 0-4.888 0.019-6.595 0.094-1.699 0.074-2.869 0.349-3.88 0.742-1.112 0.424-2.060 1.054-2.839 1.85l-0.001 0.001c-0.791 0.78-1.418 1.724-1.825 2.778l-0.018 0.054c-0.395 1.019-0.669 2.181-0.744 3.882-0.082 1.712-0.101 2.256-0.101 6.602 0 4.344 0.019 4.888 0.094 6.595 0.075 1.701 0.35 2.869 0.744 3.882 0.426 1.11 1.055 2.057 1.849 2.837l0.001 0.001c0.8 0.813 1.77 1.443 2.832 1.843 1.019 0.395 2.182 0.67 3.882 0.744 1.707 0.075 2.251 0.094 6.595 0.094 4.346 0 4.89-0.019 6.595-0.094 1.701-0.074 2.869-0.349 3.882-0.742 2.157-0.85 3.833-2.526 4.664-4.628l0.019-0.055c0.394-1.019 0.669-2.182 0.744-3.882 0.075-1.707 0.093-2.251 0.093-6.595s-0.006-4.888-0.080-6.595zM29.088 22.474c-0.070 1.563-0.333 2.406-0.55 2.97-0.552 1.399-1.64 2.486-3.004 3.024l-0.036 0.012c-0.56 0.219-1.411 0.482-2.968 0.55-1.688 0.075-2.194 0.094-6.464 0.094-4.269 0-4.782-0.019-6.464-0.094-1.563-0.069-2.406-0.331-2.97-0.55-0.721-0.269-1.334-0.676-1.836-1.192l-0.001-0.001c-0.517-0.503-0.924-1.117-1.184-1.803l-0.011-0.034c-0.218-0.563-0.48-1.413-0.549-2.97-0.075-1.688-0.094-2.195-0.094-6.464 0-4.27 0.019-4.784 0.094-6.464 0.069-1.563 0.331-2.406 0.549-2.97 0.269-0.722 0.678-1.337 1.198-1.837l0.002-0.002c0.504-0.517 1.119-0.923 1.806-1.182l0.034-0.011c0.56-0.219 1.411-0.48 2.968-0.55 1.688-0.074 2.195-0.093 6.464-0.093 4.275 0 4.782 0.019 6.464 0.093 1.563 0.069 2.406 0.331 2.97 0.55 0.693 0.256 1.325 0.662 1.837 1.194 0.531 0.52 0.938 1.144 1.195 1.84 0.218 0.56 0.48 1.411 0.549 2.968 0.075 1.688 0.094 2.194 0.094 6.464 0 4.269-0.019 4.768-0.094 6.458z"></path>
<path d="M16.059 7.782c-4.539 0.002-8.218 3.682-8.219 8.221v0c0.091 4.471 3.737 8.060 8.221 8.060s8.13-3.589 8.221-8.052l0-0.009c-0.001-4.54-3.681-8.22-8.221-8.221h-0zM16.059 21.334c-2.945-0-5.332-2.388-5.332-5.333s2.388-5.333 5.333-5.333c0 0 0.001 0 0.001 0h-0c2.946 0 5.334 2.388 5.334 5.334s-2.388 5.334-5.334 5.334v0zM26.525 7.458c0 1.060-0.86 1.92-1.92 1.92s-1.92-0.86-1.92-1.92v0c0-1.060 0.86-1.92 1.92-1.92s1.92 0.86 1.92 1.92v0z"></path>
</symbol>
<symbol id="linkedin" viewBox="0 0 32 32">
<path d="M31.992 32h0.008v-11.738c0-5.741-1.237-10.163-7.947-10.163-3.227 0-5.392 1.77-6.277 3.45h-0.093v-2.914h-6.365v21.363h6.627v-10.578c0-2.786 0.528-5.48 3.978-5.48 3.398 0 3.448 3.179 3.448 5.658v10.402h6.621zM0.528 10.635h6.635v21.365h-6.635v-21.365zM3.843 0c-2.123 0-3.843 1.721-3.843 3.843v0c0 2.12 1.722 3.878 3.843 3.878 2.12 0 3.842-1.757 3.842-3.878s-1.72-3.841-3.841-3.843h-0z"></path>
</symbol>
<symbol id="twitter" viewBox="0 0 36 32">
<path d="M35.556 4.976c-1.222 0.548-2.64 0.952-4.125 1.142l-0.076 0.008c1.511-0.907 2.646-2.309 3.193-3.977l0.015-0.051c-1.331 0.803-2.879 1.415-4.529 1.748l-0.093 0.016c-1.333-1.421-3.223-2.306-5.319-2.306-4.025 0-7.287 3.263-7.287 7.287 0 0.001 0 0.003 0 0.004v-0c0 0.578 0.048 1.134 0.169 1.662-6.060-0.295-11.422-3.2-15.024-7.623-0.627 1.055-0.999 2.324-1.003 3.681v0.001c0 2.524 1.301 4.763 3.237 6.059-1.212-0.033-2.341-0.361-3.327-0.915l0.036 0.019v0.080c0.005 3.515 2.486 6.449 5.792 7.152l0.048 0.009c-0.556 0.153-1.195 0.24-1.854 0.24-0.020 0-0.040-0-0.061-0l0.003 0c-0.466 0-0.937-0.027-1.38-0.124 0.944 2.887 3.623 5.010 6.811 5.077-2.461 1.94-5.606 3.111-9.025 3.111-0.005 0-0.009 0-0.014 0h0.001c-0.020 0-0.045 0-0.069 0-0.59 0-1.172-0.038-1.743-0.11l0.068 0.007c3.14 2.051 6.986 3.271 11.116 3.271 0.023 0 0.047-0 0.070-0h-0.004c13.413 0 20.747-11.111 20.747-20.743 0-0.32-0.011-0.633-0.027-0.942 1.443-1.040 2.656-2.293 3.62-3.727l0.033-0.052z"></path>
</symbol>
<symbol id="youtube" viewBox="0 0 32 32">
<path d="M31.681 9.6c0 0-0.313-2.206-1.275-3.175-1.219-1.275-2.581-1.281-3.206-1.356-4.475-0.325-11.194-0.325-11.194-0.325h-0.012c0 0-6.719 0-11.194 0.325-0.625 0.075-1.987 0.081-3.206 1.356-0.963 0.969-1.269 3.175-1.269 3.175s-0.319 2.588-0.319 5.181v2.425c0 2.587 0.319 5.181 0.319 5.181s0.313 2.206 1.269 3.175c1.219 1.275 2.819 1.231 3.531 1.369 2.563 0.244 10.881 0.319 10.881 0.319s6.725-0.012 11.2-0.331c0.625-0.075 1.988-0.081 3.206-1.356 0.962-0.969 1.275-3.175 1.275-3.175s0.319-2.587 0.319-5.181v-2.425c-0.006-2.588-0.325-5.181-0.325-5.181zM12.694 20.15v-8.994l8.644 4.513-8.644 4.481z"></path>
</symbol>
<symbol id="google-plus" viewBox="0 0 32 32">
<path d="M29 0h-26c-1.65 0-3 1.35-3 3v26c0 1.65 1.35 3 3 3h26c1.65 0 3-1.35 3-3v-26c0-1.65-1.35-3-3-3zM12 24c-4.425 0-8-3.575-8-8s3.575-8 8-8c2.162 0 3.969 0.787 5.363 2.094l-2.175 2.088c-0.594-0.569-1.631-1.231-3.188-1.231-2.731 0-4.963 2.263-4.963 5.050s2.231 5.050 4.963 5.050c3.169 0 4.356-2.275 4.538-3.45h-4.537v-2.744h7.556c0.069 0.4 0.125 0.8 0.125 1.325 0 4.575-3.063 7.819-7.681 7.819zM28 16h-2v2h-2v-2h-2v-2h2v-2h2v2h2v2z"></path>
</symbol>
<symbol id="google-play" viewBox="0 0 32 32">
<path d="M1.627 0c-0.040 0.124-0.080 0.247-0.080 0.411v30.972c0 0.289 0.081 0.453 0.245 0.617l15.22-16.124zM18.039 16.944l3.935 4.060-5.617 3.2c0 0-7.14 4.059-11.077 6.319zM19.107 15.836l4.221 4.389c0.661-0.368 5.828-3.323 6.565-3.733 0.779-0.451 0.7-1.067 0.039-1.395-0.612-0.34-5.779-3.3-6.56-3.78l-4.271 4.523zM18.036 14.769l3.979-4.225-5.679-3.241c0 0-9.257-5.296-12.337-7.064l14.040 14.531z"></path>
</symbol>
<symbol id="app-store" viewBox="0 0 32 32">
<path d="M24.734 17.003c-0.040-4.053 3.305-5.996 3.454-6.093-1.88-2.751-4.808-3.127-5.851-3.171-2.492-0.252-4.862 1.467-6.127 1.467-1.261 0-3.213-1.43-5.28-1.392-2.716 0.040-5.221 1.579-6.619 4.012-2.822 4.897-0.723 12.151 2.028 16.123 1.344 1.944 2.947 4.127 5.051 4.049 2.026-0.081 2.793-1.311 5.242-1.311s3.138 1.311 5.283 1.271c2.18-0.041 3.562-1.981 4.897-3.931 1.543-2.255 2.179-4.439 2.216-4.551-0.048-0.022-4.252-1.632-4.294-6.473zM20.705 5.11c1.117-1.355 1.871-3.235 1.665-5.11-1.609 0.066-3.559 1.072-4.713 2.423-1.036 1.199-1.942 3.113-1.699 4.951 1.796 0.14 3.629-0.913 4.747-2.264z"></path>
</symbol>
<symbol id="icon-cross" viewBox="0 0 18 18">
<path d="M1 17L17 1" stroke-width="2"/>
<path d="M17 17L1 1" stroke-width="2"/>
<symbol id="icon-close" viewBox="0 0 32 32">
<path d="M31.708 25.708c-0-0-0-0-0-0l-9.708-9.708 9.708-9.708c0-0 0-0 0-0 0.105-0.105 0.18-0.227 0.229-0.357 0.133-0.356 0.057-0.771-0.229-1.057l-4.586-4.586c-0.286-0.286-0.702-0.361-1.057-0.229-0.13 0.048-0.252 0.124-0.357 0.228 0 0-0 0-0 0l-9.708 9.708-9.708-9.708c-0-0-0-0-0-0-0.105-0.104-0.227-0.18-0.357-0.228-0.356-0.133-0.771-0.057-1.057 0.229l-4.586 4.586c-0.286 0.286-0.361 0.702-0.229 1.057 0.049 0.13 0.124 0.252 0.229 0.357 0 0 0 0 0 0l9.708 9.708-9.708 9.708c-0 0-0 0-0 0-0.104 0.105-0.18 0.227-0.229 0.357-0.133 0.355-0.057 0.771 0.229 1.057l4.586 4.586c0.286 0.286 0.702 0.361 1.057 0.229 0.13-0.049 0.252-0.124 0.357-0.229 0-0 0-0 0-0l9.708-9.708 9.708 9.708c0 0 0 0 0 0 0.105 0.105 0.227 0.18 0.357 0.229 0.356 0.133 0.771 0.057 1.057-0.229l4.586-4.586c0.286-0.286 0.362-0.702 0.229-1.057-0.049-0.13-0.124-0.252-0.229-0.357z"></path>
</symbol>
<symbol id="icon-github" viewBox="0 0 32 32">
<path d="M16 0.395c-8.836 0-16 7.163-16 16 0 7.069 4.585 13.067 10.942 15.182 0.8 0.148 1.094-0.347 1.094-0.77 0-0.381-0.015-1.642-0.022-2.979-4.452 0.968-5.391-1.888-5.391-1.888-0.728-1.849-1.776-2.341-1.776-2.341-1.452-0.993 0.11-0.973 0.11-0.973 1.606 0.113 2.452 1.649 2.452 1.649 1.427 2.446 3.743 1.739 4.656 1.33 0.143-1.034 0.558-1.74 1.016-2.14-3.554-0.404-7.29-1.777-7.29-7.907 0-1.747 0.625-3.174 1.649-4.295-0.166-0.403-0.714-2.030 0.155-4.234 0 0 1.344-0.43 4.401 1.64 1.276-0.355 2.645-0.532 4.005-0.539 1.359 0.006 2.729 0.184 4.008 0.539 3.054-2.070 4.395-1.64 4.395-1.64 0.871 2.204 0.323 3.831 0.157 4.234 1.026 1.12 1.647 2.548 1.647 4.295 0 6.145-3.743 7.498-7.306 7.895 0.574 0.497 1.085 1.47 1.085 2.963 0 2.141-0.019 3.864-0.019 4.391 0 0.426 0.288 0.925 1.099 0.768 6.354-2.118 10.933-8.113 10.933-15.18 0-8.837-7.164-16-16-16z"></path>
</symbol>
<symbol id="icon-linkedin" viewBox="0 0 32 32">
<path d="M29 0h-26c-1.65 0-3 1.35-3 3v26c0 1.65 1.35 3 3 3h26c1.65 0 3-1.35 3-3v-26c0-1.65-1.35-3-3-3zM12 26h-4v-14h4v14zM10 10c-1.106 0-2-0.894-2-2s0.894-2 2-2c1.106 0 2 0.894 2 2s-0.894 2-2 2zM26 26h-4v-8c0-1.106-0.894-2-2-2s-2 0.894-2 2v8h-4v-14h4v2.481c0.825-1.131 2.087-2.481 3.5-2.481 2.488 0 4.5 2.238 4.5 5v9z"></path>
<symbol id="logo-icon" viewBox="0 0 32 32">
<path fill="none"  stroke-linejoin="round" stroke-linecap="round" stroke-miterlimit="4" stroke-width="2.6667" d="M26.427 2.667h-20.853c-1.605 0-2.907 1.301-2.907 2.907v0 20.853c0 1.605 1.301 2.907 2.907 2.907v0h20.853c1.605 0 2.907-1.301 2.907-2.907v0-20.853c0-1.605-1.301-2.907-2.907-2.907v0zM9.333 2.667v26.667M22.667 2.667v26.667M2.667 16h26.667M2.667 9.333h6.667M2.667 22.667h6.667M22.667 22.667h6.667M22.667 9.333h6.667"></path>
</symbol>
<symbol id="icon-search" viewBox="0 0 32 32">
<path fill="none" stroke="#fff" style="stroke: var(--color1, #fff)" stroke-linejoin="round" stroke-linecap="round" stroke-miterlimit="4" stroke-width="2.6667" d="M14.667 25.333c5.891 0 10.667-4.776 10.667-10.667s-4.776-10.667-10.667-10.667v0c-5.891 0-10.667 4.776-10.667 10.667s4.776 10.667 10.667 10.667v0zM28 28l-5.8-5.8"></path>
</symbol>
<symbol id="cross" viewBox="0 0 32 32">
<path d="M23.734 10.304l-1.504-1.504-5.963 5.962-5.962-5.962-1.504 1.504 5.962 5.962-5.962 5.963 1.504 1.504 5.962-5.963 5.963 5.963 1.504-1.504-5.963-5.963 5.963-5.962z"></path>
</symbol>
<symbol id="cat" viewBox="0 0 29 32">
<path fill="#f9a528" style="fill: var(--color1, #f9a528)" d="M14.939 1.421c-2.208-0.971-5.749-1.658-6.569-0.901-0.857 0.791 0.701 4.656 1.64 6.16l4.928-5.258z"></path>
<path fill="#fff" style="fill: var(--color2, #fff)" d="M10.011 6.679l4.929-5.258c-2.208-0.971-5.749-1.658-6.569-0.902-0.090 0.084-0.153 0.2-0.193 0.344-0.343 1.232 0.992 4.47 1.834 5.816z"></path>
<path fill="#371a45" style="fill: var(--color3, #371a45)" opacity="0.25" d="M10.011 6.679l1.997-2.131c0.023-0.674-0.052-1.529-0.416-2.369-0.378-0.87-2.468-1.864-3.415-1.316-0.343 1.232 0.992 4.47 1.834 5.816z"></path>
<path fill="#000072" style="fill: var(--color4, #000072)" d="M9.98 6.998l-0.135-0.215c-0.754-1.206-2.67-5.426-1.607-6.407 0.947-0.875 4.648-0.072 6.78 0.866l0.253 0.111-5.291 5.646zM9.699 0.388c-0.559 0-0.989 0.084-1.196 0.275-0.671 0.62 0.56 4.003 1.542 5.694l4.561-4.866c-1.546-0.635-3.588-1.103-4.907-1.103z"></path>
<path fill="#fff" style="fill: var(--color2, #fff)" d="M19.202 27.703c1.071 0.155 5.726 1.845 7.504 1.845 1.672 0 2.486-1.74 2.276-3.256-0.297-2.15-2.121-2.089-2.739-1.551 0 0-2.387-1.328-3.757-1.666z"></path>
<path fill="#fff" style="fill: var(--color2, #fff)" d="M28.801 27.972c-0.331 0.888-1.043 1.577-2.095 1.577-1.778 0-6.433-1.69-7.504-1.845l3.284-4.628c1.37 0.339 3.758 1.667 3.758 1.667 0.618-0.538 2.442-0.599 2.739 1.551 0.077 0.563 0.014 1.156-0.181 1.68z"></path>
<path fill="#fff" style="fill: var(--color2, #fff)" d="M18.232 22.846c0 0 1.003 1.531-1.571 3.783-5.821 5.091-13.778-0.191-13.231 3.213 0.109 0.68-1.685-0.731-2.12-1.896-0.459-1.231 1.574-2.324 3.44-2.357 2.934 0.085 7.568 0.969 9.098-2.016 1.22-2.381 1.51-3.268 1.51-3.268z"></path>
<path fill="#fff" style="fill: var(--color2, #fff)" d="M16.661 26.629c-0.38 0.333-0.786 0.634-1.214 0.901-5.65 3.512-12.526-0.86-12.017 2.312 0.008 0.047 0.006 0.084-0.003 0.111-0.128 0.377-1.712-0.921-2.116-2.007-0.459-1.231 1.575-2.324 3.44-2.357 2.935 0.085 7.57 0.969 9.099-2.016 1.22-2.381 1.511-3.268 1.511-3.268l2.873 2.542c0 0 1.004 1.531-1.571 3.782z"></path>
<path fill="#371a45" style="fill: var(--color3, #371a45)" opacity="0.25" d="M15.447 27.529c-5.65 3.512-12.526-0.86-12.017 2.312 0.008 0.047 0.006 0.084-0.003 0.111-0.423-0.654-0.96-1.794-0.349-2.712 0.721-1.081 4.343 1.829 9.607-1.115 1.612-0.901 2.395 0.041 2.763 1.403z"></path>
<path fill="#371a45" style="fill: var(--color3, #371a45)" opacity="0.25" d="M7.609 30.536c-0.077 0.129-0.172 0.247-0.28 0.351l-3.512-0.406c0 0-1.651-1.869-0.739-3.239 0.218-0.326 0.7-0.289 1.411-0.159 0.038 0.218 0.051 0.473 0.034 0.77 0 0 0.37 0.014 0.828 0.041 0.174 0.035 0.4 0.073 0.691 0.127 1.096 0.2 1.669 0.816 1.775 1.482 0.057 0.349-0.016 0.711-0.209 1.034z"></path>
<path fill="#000072" style="fill: var(--color4, #000072)" d="M3.332 30.21c-0.563 0-1.857-1.27-2.202-2.198-0.144-0.388-0.086-0.791 0.169-1.164 0.556-0.816 2.007-1.426 3.447-1.452h0.009c0.466 0.014 0.97 0.047 1.503 0.082 2.757 0.182 6.188 0.408 7.419-1.994 1.195-2.331 1.496-3.231 1.499-3.24 0.017-0.047 0.051-0.087 0.096-0.109s0.097-0.026 0.145-0.010c0.048 0.016 0.088 0.049 0.111 0.094s0.028 0.097 0.013 0.145c-0.012 0.037-0.309 0.929-1.522 3.296-1.346 2.626-4.917 2.391-7.787 2.202-0.528-0.035-1.026-0.068-1.484-0.081-1.303 0.024-2.649 0.576-3.132 1.284-0.184 0.27-0.227 0.544-0.126 0.814 0.313 0.841 1.356 1.773 1.74 1.927-0.060-0.447 0.019-0.779 0.241-1.011 0.506-0.53 1.629-0.403 3.183-0.227 2.644 0.299 6.641 0.75 9.88-2.083 2.401-2.1 1.572-3.477 1.536-3.534-0.028-0.043-0.037-0.095-0.027-0.145s0.041-0.093 0.083-0.121c0.043-0.028 0.095-0.037 0.145-0.027s0.093 0.041 0.121 0.083c0.045 0.068 1.065 1.698-1.605 4.032-3.367 2.944-7.465 2.481-10.176 2.175-1.39-0.157-2.488-0.281-2.862 0.111-0.144 0.151-0.187 0.397-0.13 0.752 0.038 0.236-0.084 0.356-0.21 0.39-0.025 0.006-0.051 0.009-0.077 0.009z"></path>
<path fill="#fff" style="fill: var(--color2, #fff)" d="M17.233 27.703c-1.071 0.155-5.726 1.845-7.504 1.845-1.672 0-2.486-1.74-2.276-3.256 0.297-2.15 2.121-2.089 2.739-1.551 0 0 2.387-1.328 3.757-1.666z"></path>
<path fill="#fff" style="fill: var(--color2, #fff)" d="M17.233 27.703c-1.071 0.155-5.725 1.845-7.504 1.845-1.044 0-1.754-0.678-2.088-1.557-0.202-0.529-0.267-1.13-0.189-1.7 0.297-2.15 2.122-2.089 2.739-1.551 0 0 2.387-1.328 3.758-1.667l3.283 4.628z"></path>
<path fill="#371a45" style="fill: var(--color3, #371a45)" opacity="0.25" d="M17.233 27.703c-1.071 0.155-5.725 1.845-7.504 1.845-1.044 0-1.754-0.678-2.088-1.557 0.375 0.46 0.915 0.892 1.615 0.87 1.376-0.044 1.578-1.554 1.578-1.554s1.032 0.789 1.645 0.38c0.782-0.521-0.153-2.089-0.153-2.589 0-0.441 1.191 1.275 4.296 1.744l0.611 0.861z"></path>
<path fill="#371a45" style="fill: var(--color3, #371a45)" opacity="0.25" d="M28.801 27.972c-0.331 0.888-1.043 1.577-2.095 1.577-1.778 0-6.433-1.69-7.504-1.845l0.612-0.863c3.098-0.472 4.287-2.183 4.287-1.743 0 0.5-0.935 2.067-0.153 2.589 0.613 0.409 1.645-0.38 1.645-0.38s0.203 1.51 1.578 1.554c0.71 0.022 1.256-0.422 1.631-0.89z"></path>
<path fill="#371a45" style="fill: var(--color3, #371a45)" opacity="0.25" d="M23.57 25.325l-1.983 2.72c-0.788 0.209-1.963 0.43-3.373 0.43s-2.585-0.222-3.374-0.43l-1.972-2.712c0.776 0.545 2.444 1.626 5.346 1.626 2.914 0 4.585-1.092 5.356-1.634z"></path>
<path fill="#000072" style="fill: var(--color4, #000072)" d="M9.729 29.741c-0.689 0-1.292-0.274-1.745-0.793-0.582-0.667-0.858-1.695-0.722-2.681 0.181-1.308 0.897-1.761 1.307-1.915 0.611-0.229 1.257-0.098 1.639 0.161 0.492-0.268 2.468-1.321 3.694-1.624l0.092 0.373c-1.329 0.328-3.686 1.635-3.71 1.648l-0.118 0.066-0.102-0.089c-0.266-0.232-0.834-0.372-1.362-0.175-0.404 0.151-0.916 0.553-1.061 1.607-0.122 0.88 0.119 1.791 0.631 2.375 0.377 0.433 0.88 0.662 1.455 0.662 1.114 0 3.486-0.71 5.218-1.229 1.039-0.311 1.861-0.557 2.259-0.615l0.055 0.38c-0.369 0.053-1.219 0.308-2.203 0.602-1.852 0.555-4.157 1.245-5.327 1.245z"></path>
<path fill="#000072" style="fill: var(--color4, #000072)" d="M10.336 24.614c0.505 0.625 0.668 1.463 0.586 2.249-0.015 0.119-0.193 0.108-0.191-0.014 0.012-0.58-0.123-1.186-0.438-1.677-0.036-0.052-0.078-0.107-0.115-0.158-0.028-0.032-0.1-0.112-0.129-0.145-0.191-0.2 0.111-0.47 0.287-0.256h-0z"></path>
<path fill="#ff8080" style="fill: var(--color5, #ff8080)" d="M9.096 28.53c0.487 0 0.882-0.441 0.882-0.984s-0.395-0.984-0.882-0.984-0.882 0.44-0.882 0.984c0 0.543 0.395 0.984 0.882 0.984z"></path>
<path fill="#ff8080" style="fill: var(--color5, #ff8080)" d="M9.918 26.623c0.179 0 0.324-0.162 0.324-0.361s-0.145-0.361-0.324-0.361c-0.179 0-0.324 0.162-0.324 0.361s0.145 0.361 0.324 0.361z"></path>
<path fill="#ff8080" style="fill: var(--color5, #ff8080)" d="M8.213 26.77c0.179 0 0.324-0.162 0.324-0.361s-0.145-0.361-0.324-0.361-0.324 0.162-0.324 0.361c0 0.2 0.145 0.361 0.324 0.361z"></path>
<path fill="#ff8080" style="fill: var(--color5, #ff8080)" d="M9.020 26.409c0.199 0 0.36-0.18 0.36-0.401s-0.161-0.401-0.36-0.401c-0.199 0-0.36 0.18-0.36 0.401s0.161 0.401 0.36 0.401z"></path>
<path fill="#fff3e9" style="fill: var(--color6, #fff3e9)" d="M5.685 30.154c-0.099-0.078-0.193-0.164-0.281-0.255 0.1 0.078 0.193 0.163 0.281 0.255z"></path>
<path fill="#000072" style="fill: var(--color4, #000072)" d="M26.706 29.741c-1.17 0-3.475-0.69-5.328-1.245-0.984-0.295-1.834-0.549-2.203-0.603l0.055-0.38c0.397 0.058 1.218 0.303 2.259 0.615 1.732 0.518 4.104 1.229 5.218 1.229 0.575 0 1.078-0.229 1.455-0.662 0.511-0.586 0.753-1.496 0.631-2.376-0.146-1.055-0.658-1.456-1.061-1.607-0.527-0.197-1.095-0.057-1.362 0.175l-0.102 0.089-0.117-0.066c-0.024-0.013-2.381-1.319-3.71-1.647l0.092-0.373c1.226 0.303 3.201 1.356 3.694 1.624 0.382-0.259 1.028-0.39 1.639-0.161 0.411 0.154 1.127 0.607 1.308 1.914 0.136 0.987-0.14 2.014-0.722 2.681-0.453 0.519-1.056 0.793-1.745 0.793z"></path>
<path fill="#000072" style="fill: var(--color4, #000072)" d="M26.386 24.87c-0.496 0.518-0.693 1.27-0.681 1.974 0.003 0.025-0.005 0.050-0.021 0.070s-0.040 0.032-0.065 0.035c-0.025 0.003-0.051-0.005-0.070-0.021s-0.032-0.039-0.035-0.065c-0.022-0.195-0.026-0.39-0.014-0.586 0.026-0.443 0.134-0.887 0.345-1.282 0.036-0.064 0.080-0.133 0.118-0.196 0.029-0.041 0.108-0.143 0.138-0.185 0.175-0.213 0.478 0.055 0.287 0.256z"></path>
<path fill="#ff8080" style="fill: var(--color5, #ff8080)" d="M27.339 28.53c0.488 0 0.883-0.441 0.883-0.984s-0.395-0.984-0.883-0.984c-0.487 0-0.882 0.44-0.882 0.984s0.395 0.984 0.882 0.984z"></path>
<path fill="#ff8080" style="fill: var(--color5, #ff8080)" d="M26.517 26.623c0.179 0 0.324-0.162 0.324-0.361s-0.145-0.361-0.324-0.361c-0.179 0-0.324 0.162-0.324 0.361s0.145 0.361 0.324 0.361z"></path>
<path fill="#ff8080" style="fill: var(--color5, #ff8080)" d="M28.221 26.77c0.179 0 0.324-0.162 0.324-0.361s-0.145-0.361-0.324-0.361-0.324 0.162-0.324 0.361c0 0.2 0.145 0.361 0.324 0.361z"></path>
<path fill="#ff8080" style="fill: var(--color5, #ff8080)" d="M27.415 26.409c0.198 0 0.36-0.18 0.36-0.401s-0.161-0.401-0.36-0.401c-0.199 0-0.36 0.18-0.36 0.401s0.161 0.401 0.36 0.401z"></path>
<path fill="#fff" style="fill: var(--color2, #fff)" d="M24.452 24.116c0.104-2.929-1.775-5.88-2.409-8.128-0.744-2.638-2.388-2.672-3.821-2.624h-0.009c-1.433-0.048-3.077-0.014-3.821 2.624-0.634 2.247-2.513 5.198-2.409 8.128l2.857 3.929c0.788 0.208 1.962 0.43 3.374 0.43s2.585-0.222 3.374-0.43z"></path>
<path fill="#fff" style="fill: var(--color2, #fff)" d="M24.452 24.116l-2.865 3.929c-0.788 0.209-1.963 0.43-3.373 0.43s-2.585-0.222-3.374-0.43l-2.857-3.929c-0.076-2.137 0.905-4.286 1.686-6.165 0.289-0.696 0.552-1.355 0.723-1.963 0.744-2.638 2.388-2.673 3.821-2.624h0.009c1.433-0.048 3.077-0.014 3.821 2.624 0.172 0.609 0.435 1.269 0.725 1.966 0.781 1.878 1.76 4.025 1.685 6.161z"></path>
<path fill="#371a45" style="fill: var(--color3, #371a45)" opacity="0.25" d="M23.559 25.333l-1.972 2.712c-0.788 0.209-1.962 0.43-3.373 0.43s-2.585-0.222-3.374-0.43l-1.972-2.712c0.457 0.322 0.942 0.602 1.449 0.838 1.278 0.598-1.586-3.66-0.949-5.189 0.173-0.415 3.858 1.446 4.088 3.302 0.223 1.798 0.26 2.414 0.757 2.414s0.534-0.616 0.757-2.414c0.23-1.856 3.916-3.717 4.088-3.302 0.638 1.529-2.227 5.787-0.948 5.189 0.507-0.236 0.991-0.517 1.449-0.838z"></path>
<path fill="#371a45" style="fill: var(--color3, #371a45)" opacity="0.25" d="M22.768 17.955c-1.199 0.621-2.795 0.999-4.546 0.999-1.755 0-3.353-0.38-4.553-1.003 0.289-0.696 0.552-1.355 0.723-1.963 0.744-2.638 2.388-2.673 3.821-2.624h0.009c1.433-0.048 3.077-0.014 3.821 2.624 0.172 0.609 0.435 1.269 0.725 1.967z"></path>
<path fill="#000072" style="fill: var(--color4, #000072)" d="M14.864 27.952c0.491 0.028 1.183 0.149 1.674 0.216 1.379 0.205 2.811 0.117 4.181-0.125 0.28-0.042 0.558-0.082 0.843-0.092 0.022-0.001 0.044 0.006 0.062 0.019s0.031 0.032 0.037 0.054c0.006 0.021 0.004 0.044-0.005 0.065s-0.025 0.037-0.045 0.047c-0.13 0.066-0.264 0.122-0.402 0.167-0.411 0.138-0.84 0.212-1.27 0.261-1.429 0.15-2.894 0.154-4.304-0.146-0.28-0.069-0.557-0.154-0.82-0.282-0.094-0.046-0.058-0.193 0.049-0.186l0 0z"></path>
<path fill="#000072" style="fill: var(--color4, #000072)" d="M24.356 24.113c-0.091-1.696-0.634-3.313-1.265-4.878-0.426-1.064-0.916-2.101-1.238-3.21-0.153-0.531-0.366-1.049-0.692-1.474-0.717-0.96-1.822-1.047-2.936-0.994-0.294-0.008-0.576-0.016-0.857 0-1.591 0.055-2.375 1.010-2.786 2.468-0.491 1.649-1.308 3.168-1.828 4.802-0.173 0.524-0.329 1.082-0.441 1.624-0.077 0.375-0.133 0.759-0.184 1.138-0.012 0.173-0.029 0.351-0.051 0.525-0.001 0.024-0.011 0.047-0.028 0.064s-0.040 0.027-0.065 0.028c-0.024 0.001-0.048-0.007-0.066-0.023s-0.030-0.038-0.033-0.062c-0.017-0.144-0.027-0.289-0.038-0.435-0.064-2.185 1.015-4.204 1.793-6.175 0.213-0.526 0.417-1.052 0.57-1.59 0.164-0.568 0.391-1.127 0.757-1.603 0.799-1.067 2.025-1.207 3.248-1.144 1.208-0.061 2.443 0.067 3.249 1.144 0.366 0.476 0.593 1.035 0.757 1.603 0.153 0.537 0.357 1.064 0.57 1.59 0.635 1.577 1.416 3.167 1.696 4.872 0.088 0.574 0.118 1.16 0.058 1.738-0.018 0.116-0.183 0.115-0.192-0.007l0.001-0z"></path>
<path fill="#f9a528" style="fill: var(--color1, #f9a528)" d="M21.51 1.421c2.208-0.971 5.749-1.658 6.569-0.901 0.857 0.791-0.701 4.656-1.64 6.16l-4.928-5.258z"></path>
<path fill="#ff6f03" style="fill: var(--color7, #ff6f03)" d="M26.438 6.679l-4.929-5.258c2.208-0.971 5.749-1.658 6.569-0.901 0.090 0.084 0.153 0.2 0.194 0.344 0.344 1.232-0.992 4.469-1.834 5.815z"></path>
<path fill="#371a45" style="fill: var(--color3, #371a45)" opacity="0.25" d="M26.439 6.679l-1.997-2.131c-0.023-0.674 0.052-1.529 0.416-2.369 0.378-0.87 2.468-1.864 3.415-1.316 0.344 1.232-0.992 4.47-1.834 5.816z"></path>
<path fill="#000072" style="fill: var(--color4, #000072)" d="M26.47 6.998l-5.291-5.646 0.253-0.111c2.132-0.937 5.833-1.741 6.78-0.866 1.062 0.981-0.854 5.201-1.607 6.407l-0.135 0.215zM21.844 1.491l4.561 4.866c0.982-1.691 2.213-5.075 1.542-5.694-0.694-0.641-3.9-0.077-6.103 0.828z"></path>
<path fill="#fff" style="fill: var(--color2, #fff)" d="M8.759 12.56c0.082 0.498 0.271 1.045 0.637 1.592 1.029 1.54 3.458 3.075 8.819 3.491 5.427-0.414 7.85-1.98 8.859-3.537 0.342-0.528 0.522-1.054 0.602-1.535 0.196-1.184-0.16-2.171-0.198-2.528-0.245-2.168-0.811-9.842-9.252-9.847-4.221-0.003-6.475 1.915-7.704 4.103s-1.436 4.65-1.56 5.733c-0.038 0.357-0.395 1.343-0.202 2.528z"></path>
<path fill="#371a45" style="fill: var(--color3, #371a45)" opacity="0.25" d="M9.387 14.158c1.030 1.541 3.461 3.078 8.827 3.494 5.432-0.415 7.857-1.982 8.868-3.54 0 0-1.529 1.101-4.452 1.812-2.917 0.709-5.961 0.707-8.877-0.006-2.527-0.618-4.010-1.526-4.366-1.76z"></path>
<path fill="#fff" style="fill: var(--color2, #fff)" d="M18.594 1.777c-0.002 3.044 2.467 5.514 5.513 5.516 0.964 0.002 1.912-0.249 2.748-0.729-0.828-2.819-2.829-6.117-8.034-6.353-0.151 0.509-0.227 1.036-0.227 1.567z"></path>
<path fill="#ff6f03" style="fill: var(--color7, #ff6f03)" d="M18.594 1.777c-0.002 3.044 2.467 5.514 5.513 5.516 0.964 0.002 1.912-0.249 2.748-0.729-0.828-2.819-2.829-6.117-8.034-6.353-0.151 0.509-0.227 1.036-0.227 1.567z"></path>
<path fill="#000072" style="fill: var(--color4, #000072)" d="M9.988 5.64c-0.164 0.678-0.348 1.341-0.49 2.022-0.159 0.762-0.253 1.542-0.331 2.321-0.025 0.268-0.105 0.534-0.151 0.791-0.288 1.355-0.025 2.705 0.915 3.746 1.154 1.289 2.842 1.93 4.475 2.38 0.67 0.182 1.351 0.332 2.038 0.465 0.024 0.005 0.045 0.019 0.059 0.039s0.020 0.045 0.017 0.069c-0.003 0.024-0.016 0.046-0.035 0.062s-0.043 0.023-0.068 0.021c-2.105-0.207-4.273-0.737-5.998-2.019-0.873-0.658-1.58-1.588-1.828-2.667-0.214-0.89-0.091-1.818 0.122-2.692 0.033-0.146 0.051-0.352 0.070-0.501 0.124-1.048 0.285-2.112 0.609-3.124 0.115-0.336 0.248-0.667 0.417-0.981 0.054-0.094 0.205-0.045 0.179 0.069l0-0z"></path>
<path fill="#000072" style="fill: var(--color4, #000072)" d="M19.984 17.367c2.288-0.475 4.888-1.051 6.518-2.841 1.117-1.268 1.203-2.68 0.808-4.261-0.019-0.092-0.032-0.186-0.041-0.28-0.078-0.779-0.171-1.56-0.33-2.322-0.142-0.682-0.326-1.344-0.489-2.023-0.006-0.023-0.003-0.047 0.008-0.068s0.029-0.037 0.051-0.046 0.047-0.009 0.069-0c0.022 0.008 0.041 0.024 0.052 0.045 0.17 0.314 0.303 0.645 0.418 0.982 0.324 1.012 0.485 2.077 0.607 3.126 0.013 0.089 0.032 0.303 0.046 0.384 0.037 0.209 0.092 0.417 0.133 0.634 0.717 3.384-1.749 5.354-4.699 6.263-1.013 0.316-2.070 0.507-3.124 0.598-0.115 0.005-0.15-0.159-0.027-0.19v0z"></path>
<path fill="#ffb8b8" style="fill: var(--color8, #ffb8b8)" d="M27.676 1.269c0.151 0.383-0.377 2.851-1.182 4.049-0.099-0.098-0.605-1.186-1.449-2.364-0.337-0.469-0.21-0.758 0.309-1.116 0.73-0.504 2.219-0.832 2.322-0.569z"></path>
<path fill="#ff8080" style="fill: var(--color5, #ff8080)" d="M27.693 1.665c-0.041 0.507-0.228 1.372-0.514 2.194-0.189 0.544-0.422 1.070-0.684 1.46-0.099-0.098-0.604-1.187-1.449-2.364-0.337-0.469-0.21-0.758 0.308-1.116 0.73-0.504 2.219-0.833 2.322-0.57 0.027 0.070 0.032 0.208 0.017 0.396z"></path>
<path fill="#f26666" style="fill: var(--color9, #f26666)" d="M27.693 1.665c-0.547-0.084-1.788 0.492-1.98 0.831-0.163 0.288 0.259 0.675 0.517 1.336 0.178 0.454 0.696 0.191 0.948 0.027-0.189 0.544-0.422 1.070-0.684 1.46-0.099-0.098-0.604-1.187-1.449-2.364-0.337-0.469-0.21-0.758 0.308-1.116 0.73-0.504 2.219-0.833 2.322-0.57 0.027 0.070 0.032 0.208 0.017 0.396z"></path>
<path fill="#000072" style="fill: var(--color4, #000072)" d="M27.827 1.21c0.043 0.127 0.035 0.212 0.034 0.329-0.013 0.278-0.061 0.549-0.114 0.818-0.148 0.708-0.356 1.399-0.636 2.066-0.142 0.333-0.302 0.66-0.51 0.967-0.010 0.016-0.024 0.030-0.040 0.040s-0.035 0.016-0.053 0.018-0.038-0-0.056-0.007c-0.018-0.007-0.034-0.017-0.047-0.031-0.055-0.054-0.095-0.138-0.135-0.201l-0.105-0.18c-0.197-0.347-0.418-0.725-0.631-1.059-0.199-0.316-0.412-0.631-0.633-0.932-0.182-0.231-0.301-0.572-0.145-0.85 0.111-0.215 0.309-0.369 0.491-0.501 0.242-0.168 0.503-0.294 0.775-0.397 0.343-0.131 1.623-0.523 1.805-0.080v-0zM27.524 1.328c0.004 0.012 0.011 0.022 0.020 0.031 0.003 0.003 0.002 0.001-0.005 0-0.2-0.038-0.418 0.014-0.621 0.055-0.491 0.113-1.782 0.525-1.884 1.062-0.016 0.21 0.201 0.45 0.313 0.628 0.312 0.461 0.595 0.939 0.859 1.428 0.088 0.162 0.252 0.474 0.34 0.634 0.011 0.022 0.028 0.044 0.037 0.061l-0.196 0.020c0.553-0.887 0.848-1.93 1.056-2.949 0.047-0.255 0.088-0.512 0.096-0.769 0.003-0.061-0.001-0.155-0.015-0.2h-0z"></path>
<path fill="#ffb8b8" style="fill: var(--color8, #ffb8b8)" d="M8.774 1.269c-0.151 0.383 0.377 2.851 1.182 4.049 0.099-0.098 0.605-1.186 1.449-2.364 0.337-0.469 0.21-0.758-0.309-1.116-0.73-0.504-2.219-0.832-2.322-0.569z"></path>
<path fill="#ff8080" style="fill: var(--color5, #ff8080)" d="M8.756 1.665c0.040 0.507 0.228 1.372 0.514 2.194 0.189 0.544 0.422 1.070 0.684 1.46 0.099-0.098 0.604-1.187 1.449-2.364 0.337-0.469 0.21-0.758-0.309-1.116-0.73-0.504-2.219-0.833-2.322-0.57-0.027 0.070-0.032 0.208-0.017 0.396z"></path>
<path fill="#f26666" style="fill: var(--color9, #f26666)" d="M8.756 1.665c0.547-0.084 1.788 0.492 1.98 0.831 0.163 0.288-0.258 0.675-0.518 1.336-0.178 0.454-0.696 0.191-0.948 0.027 0.189 0.544 0.422 1.070 0.684 1.46 0.099-0.098 0.604-1.187 1.449-2.364 0.337-0.469 0.21-0.758-0.309-1.116-0.73-0.504-2.219-0.833-2.322-0.57-0.027 0.070-0.032 0.208-0.017 0.396z"></path>
<path fill="#000072" style="fill: var(--color4, #000072)" d="M8.925 1.328c-0.014 0.047-0.019 0.14-0.016 0.2 0.008 0.256 0.049 0.513 0.096 0.769 0.208 1.019 0.504 2.062 1.056 2.949l-0.196-0.020c0.010-0.016 0.025-0.040 0.037-0.061 0.088-0.159 0.252-0.471 0.341-0.634 0.264-0.488 0.548-0.967 0.859-1.428 0.112-0.178 0.33-0.418 0.313-0.628-0.099-0.535-1.393-0.95-1.884-1.062-0.203-0.041-0.422-0.094-0.621-0.056-0.007 0.002-0.008 0.003-0.005 0 0.009-0.008 0.016-0.019 0.020-0.031l0.001 0.001zM8.623 1.21c0.181-0.444 1.466-0.051 1.806 0.080 0.272 0.103 0.532 0.228 0.775 0.397 0.182 0.131 0.38 0.286 0.491 0.501 0.155 0.279 0.037 0.619-0.145 0.85-0.221 0.302-0.434 0.616-0.633 0.932-0.213 0.333-0.435 0.712-0.631 1.058-0.057 0.096-0.143 0.256-0.21 0.346-0.050 0.083-0.168 0.106-0.226 0.015-0.207-0.306-0.368-0.634-0.51-0.967-0.28-0.667-0.488-1.358-0.636-2.066-0.054-0.269-0.102-0.54-0.114-0.818-0.001-0.117-0.009-0.201 0.034-0.329l-0 0z"></path>
<path fill="#000072" style="fill: var(--color4, #000072)" d="M17.189 10.454c0 0.301 0.456 0.694 1.036 0.839 0.58-0.144 1.037-0.537 1.037-0.838 0-0.261-0.778-0.322-1.037-0.322s-1.036 0.061-1.036 0.321z"></path>
<path fill="#fff" style="fill: var(--color2, #fff)" opacity="0.3" d="M17.735 10.379c0 0.091 0.216 0.21 0.49 0.254 0.275-0.044 0.491-0.162 0.491-0.253 0-0.079-0.368-0.097-0.49-0.097s-0.491 0.018-0.491 0.097z"></path>
<path fill="#000072" style="fill: var(--color4, #000072)" d="M19.508 12.568c-0.028 0-0.055-0.008-0.078-0.023s-0.042-0.036-0.053-0.061c-0.007-0.014-0.138-0.285-0.424-0.287h-0.002c-0.115 0-0.206 0.058-0.312 0.125-0.116 0.074-0.248 0.157-0.421 0.157s-0.305-0.084-0.421-0.157c-0.106-0.067-0.198-0.125-0.312-0.125h-0.002c-0.291 0.002-0.423 0.283-0.424 0.286-0.008 0.017-0.019 0.033-0.033 0.046s-0.030 0.023-0.048 0.030c-0.018 0.007-0.037 0.010-0.056 0.009s-0.038-0.005-0.055-0.013c-0.017-0.008-0.033-0.019-0.046-0.033s-0.023-0.030-0.030-0.048c-0.007-0.018-0.010-0.037-0.009-0.056s0.005-0.038 0.013-0.055c0.008-0.018 0.211-0.452 0.685-0.454h0.004c0.198 0 0.341 0.090 0.466 0.17 0.096 0.060 0.178 0.112 0.267 0.112s0.172-0.052 0.267-0.112c0.126-0.079 0.268-0.17 0.466-0.17h0.004c0.473 0.003 0.676 0.436 0.684 0.454 0.010 0.022 0.014 0.046 0.012 0.070s-0.010 0.047-0.023 0.068c-0.013 0.020-0.031 0.037-0.052 0.049s-0.045 0.018-0.069 0.018h0.002z"></path>
<path fill="#000072" style="fill: var(--color4, #000072)" d="M13.284 6.484c-0.070-0.145 0.752-1.327 1.466-1.218 0.407 0.062 0.547 0.63 0.236 0.821-0.255 0.157-1.58 0.647-1.702 0.397z"></path>
<path fill="#000072" style="fill: var(--color4, #000072)" d="M23.151 6.484c0.070-0.145-0.752-1.327-1.466-1.218-0.408 0.062-0.547 0.63-0.236 0.821 0.255 0.157 1.58 0.647 1.702 0.397z"></path>
<path fill="#000072" style="fill: var(--color4, #000072)" d="M12.693 10.955c0.333 0.603 1.029 0.3 1.829-0.031s1.255-0.432 1.23-0.981c-0.032-0.701-1.048-1.271-2.066-0.968-1.030 0.307-1.354 1.326-0.993 1.981z"></path>
<path fill="#000072" style="fill: var(--color4, #000072)" d="M13.27 11.446c-0.288 0-0.532-0.112-0.703-0.422-0.195-0.354-0.212-0.807-0.046-1.212 0.193-0.471 0.592-0.817 1.124-0.976 0.599-0.178 1.264-0.082 1.734 0.252 0.319 0.227 0.502 0.528 0.517 0.848 0.027 0.582-0.396 0.751-1.035 1.006-0.089 0.036-0.184 0.074-0.285 0.115l-0.046 0.019c-0.454 0.188-0.893 0.371-1.261 0.371zM14.256 9.035c-0.179 0-0.357 0.026-0.529 0.077-0.447 0.133-0.781 0.42-0.94 0.809-0.133 0.326-0.122 0.686 0.032 0.964 0.251 0.456 0.772 0.268 1.601-0.075l0.046-0.019c0.102-0.042 0.198-0.080 0.288-0.117 0.647-0.258 0.87-0.366 0.854-0.725-0.011-0.23-0.151-0.452-0.396-0.626-0.265-0.188-0.606-0.287-0.956-0.287v-0z"></path>
<path fill="#fff" style="fill: var(--color2, #fff)" d="M14.84 10.403c0.268-0.029 0.461-0.28 0.431-0.562s-0.272-0.486-0.54-0.458c-0.268 0.029-0.461 0.28-0.431 0.562s0.272 0.486 0.54 0.458z"></path>
<path fill="#fff" style="fill: var(--color2, #fff)" d="M13.487 10.37c0.176-0.019 0.302-0.184 0.283-0.368s-0.178-0.319-0.354-0.3c-0.176 0.019-0.302 0.184-0.283 0.368s0.178 0.319 0.354 0.3z"></path>
<path fill="#66e9ff" style="fill: var(--color10, #66e9ff)" d="M14.272 11.033c-1.079 1.911-0.463 5.742-0.674 5.922-0.287 0.245-1.362-0.159-1.532-0.538-0.243-0.542-0.429-3.591 0.762-5.251 0.337-0.469 1.354-0.296 1.444-0.133z"></path>
<path fill="#66dbff" style="fill: var(--color11, #66dbff)" d="M13.367 16.753c-0.012 0.001-0.026 0.002-0.042 0.002-0.379 0-0.938-0.294-1.008-0.45-0.033-0.074-0.128-0.612-0.128-0.981 0.314 0.134 0.711 0.197 1.159 0.106 0.003 0.181 0.008 0.462 0.010 0.518 0.008 0.304 0.019 0.642 0.009 0.806z"></path>
<path fill="#000072" style="fill: var(--color4, #000072)" d="M23.757 10.955c-0.333 0.603-1.029 0.3-1.828-0.031s-1.255-0.432-1.23-0.981c0.032-0.701 1.048-1.271 2.066-0.968 1.030 0.307 1.354 1.326 0.993 1.981z"></path>
<path fill="#000072" style="fill: var(--color4, #000072)" d="M23.181 11.446c-0.367 0-0.807-0.182-1.261-0.37l-0.046-0.019c-0.1-0.042-0.195-0.079-0.285-0.115-0.639-0.255-1.061-0.424-1.035-1.006 0.015-0.32 0.198-0.622 0.517-0.848 0.47-0.334 1.135-0.43 1.734-0.252 0.532 0.159 0.932 0.505 1.124 0.976 0.166 0.406 0.149 0.859-0.046 1.212-0.171 0.309-0.414 0.422-0.703 0.422zM22.194 9.035c-0.35 0-0.69 0.099-0.956 0.287-0.245 0.174-0.386 0.396-0.396 0.626-0.016 0.359 0.207 0.467 0.854 0.725 0.090 0.036 0.186 0.075 0.288 0.117l0.046 0.019c0.829 0.344 1.35 0.531 1.601 0.075 0.153-0.278 0.165-0.639 0.032-0.964-0.159-0.389-0.493-0.676-0.94-0.809-0.172-0.051-0.35-0.077-0.529-0.076v-0z"></path>
<path fill="#fff" style="fill: var(--color2, #fff)" d="M22.151 9.946c0.030-0.281-0.163-0.533-0.431-0.562s-0.51 0.176-0.541 0.458c-0.030 0.281 0.163 0.533 0.431 0.562s0.51-0.176 0.541-0.458z"></path>
<path fill="#fff" style="fill: var(--color2, #fff)" d="M23.317 10.070c0.020-0.184-0.107-0.349-0.283-0.368s-0.334 0.115-0.354 0.3c-0.020 0.184 0.107 0.349 0.283 0.368s0.334-0.115 0.354-0.3z"></path>
<path fill="#000072" style="fill: var(--color4, #000072)" d="M24.721 11.859c0.538-0.231 1.113-0.353 1.683-0.478-0.134 0.060-0.27 0.115-0.405 0.168-0.41 0.153-0.816 0.32-1.249 0.401-0.055 0.010-0.080-0.069-0.029-0.092v0z"></path>
<path fill="#000072" style="fill: var(--color4, #000072)" d="M26.404 13.779c-0.412-0.090-0.864-0.211-1.273-0.323-0.14-0.040-0.279-0.085-0.412-0.148-0.012-0.006-0.021-0.015-0.026-0.027s-0.006-0.026-0.002-0.038c0.004-0.013 0.012-0.023 0.023-0.030s0.024-0.010 0.037-0.007c0.145 0.024 0.284 0.067 0.422 0.114 0.401 0.141 0.84 0.299 1.23 0.461h-0z"></path>
<path fill="#000072" style="fill: var(--color4, #000072)" d="M26.404 12.58c-0.401 0.037-0.847 0.056-1.252 0.072-0.139 0.004-0.278 0.003-0.417-0.018-0.013-0.002-0.024-0.009-0.032-0.019s-0.013-0.022-0.013-0.035c0-0.013 0.005-0.025 0.013-0.035s0.020-0.016 0.032-0.019c0.139-0.021 0.278-0.022 0.417-0.018 0.405 0.016 0.85 0.034 1.252 0.072v-0.001z"></path>
<path fill="#000072" style="fill: var(--color4, #000072)" d="M11.684 11.95c-0.573-0.117-1.115-0.345-1.654-0.569 0.143 0.028 0.287 0.060 0.429 0.093 0.424 0.109 0.853 0.204 1.254 0.384 0.051 0.023 0.026 0.102-0.029 0.092h-0z"></path>
<path fill="#000072" style="fill: var(--color4, #000072)" d="M10.030 13.779c0.39-0.161 0.83-0.32 1.23-0.461 0.138-0.047 0.277-0.089 0.422-0.114 0.013-0.002 0.026 0.001 0.037 0.007s0.019 0.018 0.023 0.030c0.004 0.012 0.003 0.026-0.002 0.038s-0.015 0.022-0.026 0.027c-0.133 0.063-0.272 0.107-0.412 0.148-0.409 0.113-0.86 0.233-1.273 0.323h-0.001z"></path>
<path fill="#000072" style="fill: var(--color4, #000072)" d="M10.030 12.58c0.401-0.037 0.847-0.056 1.251-0.072 0.139-0.004 0.278-0.003 0.417 0.018 0.013 0.002 0.024 0.009 0.032 0.019s0.013 0.022 0.013 0.035c0 0.013-0.004 0.025-0.013 0.035s-0.019 0.016-0.032 0.019c-0.139 0.021-0.278 0.022-0.417 0.018-0.405-0.016-0.85-0.034-1.251-0.072v0.001z"></path>
<path fill="#000072" style="fill: var(--color4, #000072)" d="M18.392 11.241c-0.032 0.044-0.056 0.093-0.071 0.146-0.031 0.119-0.041 0.267-0.087 0.267s-0.056-0.148-0.086-0.267c-0.015-0.052-0.039-0.102-0.071-0.146l0.157-0.121 0.157 0.121z"></path>
<path fill="#000072" style="fill: var(--color4, #000072)" d="M22.778 1.305c-2.553-1.107-5.514-1.184-8.161-0.37-0.23 0.077-0.463 0.162-0.687 0.255-0.091 0.037-0.179 0.078-0.27 0.116-0.022 0.010-0.048 0.011-0.071 0.004s-0.043-0.024-0.054-0.046c-0.012-0.022-0.014-0.047-0.008-0.071s0.022-0.044 0.043-0.057c0.258-0.158 0.527-0.298 0.805-0.42 1.202-0.538 2.539-0.724 3.845-0.713 1.604-0.013 3.269 0.277 4.649 1.132 0.096 0.063 0.024 0.217-0.090 0.17v-0.001z"></path>
<path fill="#fff" style="fill: var(--color2, #fff)" d="M4.75 25.589c-1.7-0.056-2.763 0.396-3.464 0.968-1.391 1.135-1.209 2.962-0.69 3.773 0.51 0.796 1.583 1.288 2.96 1.391 1.881 0.139 3.48-0.224 4.053-1.184 0.56-0.938 0.105-2.211-1.566-2.515-1.338-0.244-1.298-0.185-1.135-0.872z"></path>
<path fill="#fff" style="fill: var(--color2, #fff)" d="M7.608 30.536c-0.573 0.96-2.172 1.323-4.053 1.184-1.377-0.102-2.45-0.595-2.959-1.391-0.519-0.811-0.702-2.638 0.69-3.772 0.318-0.258 0.675-0.465 1.057-0.613 0.001-0 0.002-0.001 0.003-0.001 0.617-0.242 1.399-0.387 2.404-0.354l0.156 1.559c-0.127 0.538-0.179 0.619 0.444 0.745 0.174 0.035 0.4 0.074 0.691 0.127 1.672 0.305 2.126 1.578 1.567 2.515z"></path>
<path fill="#371a45" style="fill: var(--color3, #371a45)" opacity="0.25" d="M7.608 30.535c-0.078 0.129-0.172 0.247-0.281 0.351l-3.511-0.406c0 0-1.651-1.869-0.739-3.239 0.257-0.386 0.885-0.262 1.825-0.079-0.124 0.526-0.17 0.607 0.448 0.732 0.174 0.035 0.4 0.074 0.691 0.127 1.671 0.305 2.126 1.579 1.566 2.515z"></path>
<path fill="#f9a528" style="fill: var(--color1, #f9a528)" d="M7.608 30.536c-0.573 0.96-2.172 1.323-4.053 1.184-1.377-0.102-2.45-0.595-2.959-1.391-0.519-0.811-0.702-2.638 0.69-3.772 0.318-0.258 0.675-0.465 1.057-0.613 0.001-0 0.002-0.001 0.003-0.001 0.102-0.033 2.327-0.718 2.176 1.91 0 0 0.371 0.014 0.829 0.041 0.174 0.035 0.4 0.074 0.691 0.127 1.672 0.305 2.126 1.578 1.567 2.515z"></path>
<path fill="#ff6f03" style="fill: var(--color7, #ff6f03)" d="M7.608 30.536c-0.573 0.96-2.172 1.323-4.053 1.184-1.377-0.102-2.449-0.595-2.96-1.39-0.292-0.456-0.478-1.235-0.336-2.032 0.11-0.618 0.418-1.246 1.026-1.741 0.318-0.258 0.675-0.465 1.057-0.613 0.001-0 0.002-0.001 0.002-0.001h0.001c0.102-0.033 2.327-0.718 2.176 1.91 0 0 0.371 0.014 0.829 0.041 0.174 0.035 0.4 0.074 0.691 0.127 1.096 0.2 1.669 0.816 1.776 1.482 0.056 0.349-0.017 0.712-0.209 1.034z"></path>
<path fill="#fff" style="fill: var(--color2, #fff)" opacity="0.5" d="M2.903 26.9c0 0-1.431 0.52-0.493 1.253 0.751 0.587 3.21 0.144 4.203 0.783-0.215-1.151-5.030-0.271-3.71-2.037z"></path>
<path fill="#371a45" style="fill: var(--color3, #371a45)" opacity="0.25" d="M4.522 27.853c0 0-1.648-0.034-1.445-0.611 0.218-0.326 0.7-0.289 1.411-0.159 0.038 0.218 0.051 0.473 0.034 0.77z"></path>
<path fill="#371a45" style="fill: var(--color3, #371a45)" opacity="0.25" d="M7.639 30.659c-0.573 0.96-2.172 1.323-4.053 1.184-1.377-0.102-2.449-0.595-2.96-1.391-0.292-0.456-0.478-1.235-0.336-2.031 0.159 0.596 0.827 2.050 3.556 2.184 2.538 0.125 3.71-0.382 4.002-0.979 0.055 0.348-0.017 0.71-0.21 1.033z"></path>
<path fill="#000072" style="fill: var(--color4, #000072)" d="M4.744 25.78c-1.513-0.056-3.3 0.375-4.040 1.825-0.377 0.774-0.386 1.749 0.012 2.515 0.32 0.572 0.907 0.93 1.527 1.14 1.323 0.446 4.158 0.5 5.105-0.667 0.58-0.728 0.311-1.689-0.496-2.126-0.389-0.225-0.835-0.311-1.282-0.37-0.458-0.061-0.924-0.094-1.393-0.154-0.353-0.060-1.042-0.099-1.191-0.497-0.030-0.106-0.039-0.321 0.114-0.297 0.205 0.084-0.167 0.281 0.43 0.445 1.343 0.31 3.050-0.081 4.072 1.063 0.536 0.609 0.529 1.529 0.031 2.159-0.635 0.791-1.708 1.020-2.663 1.104-0.963 0.063-1.933 0.030-2.858-0.271-0.697-0.23-1.396-0.658-1.765-1.328-0.579-1.115-0.428-2.575 0.398-3.528 0.988-1.135 2.572-1.456 4.011-1.397 0.253 0.016 0.24 0.385-0.013 0.384l0-0z"></path>
<path fill="#66e9ff" style="fill: var(--color10, #66e9ff)" d="M13.599 15.357c0.019 0.877 0.065 1.526-0.018 1.597-0.287 0.245-1.362-0.159-1.532-0.538-0.083-0.183-0.158-0.651-0.176-1.256-0.036-1.186 0.149-2.895 0.938-3.995 0.337-0.469 1.354-0.297 1.444-0.134-0.65 1.151-0.684 2.998-0.656 4.325z"></path>
<path fill="#66dbff" style="fill: var(--color11, #66dbff)" d="M13.35 16.753c-0.012 0.001-0.026 0.002-0.042 0.002-0.379 0-0.938-0.293-1.008-0.45-0.033-0.074-0.128-0.612-0.128-0.981 0.314 0.134 0.711 0.197 1.159 0.106 0.003 0.181 0.008 0.462 0.010 0.518 0.009 0.305 0.019 0.642 0.009 0.806z"></path>
<path fill="#25b0d6" style="fill: var(--color12, #25b0d6)" d="M13.308 17.174c-0.107-0.002-0.213-0.015-0.317-0.039-0.42-0.094-0.939-0.358-1.074-0.659-0.246-0.549-0.451-3.683 0.776-5.394 0.261-0.364 0.797-0.374 1.015-0.361 0.057 0.003 0.559 0.038 0.672 0.242 0.012 0.021 0.018 0.046 0.018 0.070s-0.006 0.049-0.018 0.070c-0.732 1.296-0.663 3.508-0.621 4.83 0.026 0.818 0.028 1.035-0.084 1.131-0.096 0.082-0.23 0.109-0.368 0.109zM13.599 11.006c-0.049 0-0.1 0.002-0.153 0.008-0.171 0.017-0.401 0.072-0.519 0.237-1.145 1.596-0.972 4.607-0.747 5.108 0.079 0.177 0.488 0.409 0.874 0.496 0.221 0.050 0.356 0.035 0.415 0.004 0.026-0.113 0.014-0.52 0.001-0.915-0.041-1.314-0.109-3.489 0.596-4.864-0.095-0.035-0.267-0.073-0.467-0.073h-0z"></path>
<path fill="#fff" style="fill: var(--color2, #fff)" d="M13.068 11.577c-0.198 0.297-0.432 0.952-0.123 1.036 0.346 0.094 0.408-0.529 0.459-1.097 0.042-0.463-0.18-0.174-0.336 0.061z"></path>
<path fill="#fff" style="fill: var(--color2, #fff)" d="M12.777 12.987c-0.164 0.213-0.107 0.495 0.072 0.525 0.23 0.040 0.321-0.157 0.291-0.375-0.040-0.293-0.243-0.306-0.363-0.15z"></path>
<path fill="#66e9ff" style="fill: var(--color10, #66e9ff)" d="M22.835 15.357c-0.019 0.877-0.065 1.526 0.018 1.597 0.287 0.245 1.362-0.159 1.532-0.538 0.082-0.183 0.158-0.651 0.176-1.256 0.036-1.186-0.148-2.895-0.938-3.995-0.337-0.469-1.353-0.297-1.444-0.134 0.65 1.151 0.684 2.998 0.656 4.325z"></path>
<path fill="#66dbff" style="fill: var(--color11, #66dbff)" d="M23.085 16.753c0.012 0.001 0.026 0.002 0.042 0.002 0.379 0 0.938-0.293 1.008-0.45 0.033-0.074 0.128-0.612 0.128-0.981-0.314 0.134-0.711 0.197-1.159 0.106-0.003 0.181-0.008 0.462-0.010 0.518-0.009 0.305-0.019 0.642-0.009 0.806z"></path>
<path fill="#25b0d6" style="fill: var(--color12, #25b0d6)" d="M23.127 17.174c-0.137 0-0.271-0.028-0.367-0.109-0.112-0.096-0.11-0.313-0.084-1.131 0.041-1.322 0.11-3.534-0.621-4.83-0.012-0.021-0.018-0.046-0.018-0.070s0.006-0.049 0.018-0.070c0.113-0.203 0.615-0.239 0.672-0.242 0.219-0.012 0.755-0.003 1.015 0.361 1.227 1.71 1.022 4.844 0.776 5.393-0.135 0.301-0.654 0.565-1.074 0.659-0.104 0.024-0.211 0.038-0.318 0.039zM22.965 16.857c0.059 0.031 0.194 0.046 0.415-0.004 0.386-0.087 0.794-0.319 0.874-0.496 0.224-0.501 0.398-3.512-0.747-5.108-0.118-0.165-0.347-0.22-0.519-0.237-0.263-0.026-0.502 0.021-0.62 0.065 0.705 1.375 0.637 3.55 0.596 4.864-0.013 0.394-0.025 0.802 0.001 0.915h0z"></path>
<path fill="#fff" style="fill: var(--color2, #fff)" d="M23.367 11.577c0.198 0.297 0.432 0.952 0.123 1.036-0.346 0.094-0.408-0.529-0.459-1.097-0.042-0.463 0.18-0.174 0.336 0.061z"></path>
<path fill="#fff" style="fill: var(--color2, #fff)" d="M23.658 12.987c0.164 0.213 0.108 0.495-0.072 0.525-0.23 0.040-0.321-0.157-0.291-0.375 0.040-0.293 0.243-0.306 0.363-0.15z"></path>
<path fill="#fff" style="fill: var(--color2, #fff)" d="M17.068 25.975c-0.467 0.265-1.185 0.235-1.762-0.338-0.215-0.213-0.407-0.462-0.579-0.734-1.063-1.677-1.347-4.197-1.347-4.197l2.863-0.713c0.303 0.969 0.895 2.359 1.212 3.616 0.040 0.159 0.076 0.317 0.106 0.471 0.101 0.519 0.209 1.497-0.492 1.894z"></path>
<path fill="#371a45" style="fill: var(--color3, #371a45)" opacity="0.25" d="M13.827 21.654c0 0 0.789 3.295 2.013 3.862 1.186 0.549 1.445-0.409 1.401-0.693-0.14 0.579-0.897 0.847-1.515 0.329-1.030-0.863-1.899-3.497-1.899-3.497z"></path>
<path fill="#000072" style="fill: var(--color4, #000072)" d="M13.451 20.698c0.234 1.102 0.526 2.199 0.982 3.229 0.432 0.938 1.287 2.435 2.509 1.868 0.804-0.452 0.399-1.783 0.217-2.509-0.227-0.816-0.526-1.621-0.768-2.437-0.082-0.275-0.159-0.552-0.217-0.834-0.018-0.081 0.102-0.125 0.137-0.043 0.225 0.523 0.454 1.044 0.665 1.576s0.404 1.073 0.569 1.628c0.275 0.952 0.667 2.391-0.397 3.004-0.441 0.238-0.994 0.217-1.433 0.005-1.2-0.604-1.883-2.527-2.161-3.76-0.126-0.564-0.215-1.133-0.246-1.71-0.003-0.088 0.126-0.106 0.143-0.016l-0 0z"></path>
<path fill="#000072" style="fill: var(--color4, #000072)" d="M16.911 24.539c0.296 0.271 0.553 0.583 0.749 0.939l-0.364 0.122c-0.064-0.368-0.204-0.73-0.385-1.062z"></path>
<path fill="#000072" style="fill: var(--color4, #000072)" d="M15.95 25.151c0.279 0.294 0.613 0.567 1.007 0.681 0.017 0.004 0.048 0.013 0.060 0.012l-0.109 0.368c-0.437-0.22-0.736-0.639-0.957-1.061h-0z"></path>
<path fill="#fff" style="fill: var(--color2, #fff)" d="M19.376 25.975c0.467 0.265 1.185 0.235 1.762-0.338 0.215-0.213 0.407-0.462 0.579-0.734 1.062-1.676 1.348-4.197 1.348-4.197l-2.863-0.713c-0.303 0.969-0.895 2.359-1.212 3.616-0.041 0.159-0.076 0.317-0.106 0.471-0.102 0.519-0.21 1.497 0.492 1.894z"></path>
<path fill="#371a45" style="fill: var(--color3, #371a45)" opacity="0.25" d="M22.617 21.654c0 0-0.789 3.295-2.013 3.862-1.186 0.549-1.445-0.409-1.401-0.693 0.14 0.579 0.897 0.847 1.515 0.329 1.030-0.863 1.899-3.497 1.899-3.497z"></path>
<path fill="#000072" style="fill: var(--color4, #000072)" d="M23.136 20.714c-0.121 1.68-0.583 3.557-1.677 4.885-0.505 0.637-1.402 0.984-2.163 0.58-1.064-0.613-0.671-2.051-0.397-3.004 0.324-1.104 0.778-2.154 1.234-3.204 0.034-0.077 0.155-0.043 0.138 0.043-0.059 0.283-0.135 0.56-0.217 0.834-0.242 0.816-0.542 1.621-0.768 2.437-0.218 0.841-0.667 2.403 0.551 2.619 1.504 0.22 2.405-2.413 2.746-3.56 0.158-0.541 0.296-1.093 0.41-1.647 0.014-0.085 0.147-0.076 0.143 0.016l-0 0z"></path>
<path fill="#000072" style="fill: var(--color4, #000072)" d="M19.532 24.539c-0.181 0.331-0.32 0.694-0.385 1.062l-0.364-0.122c0.196-0.357 0.454-0.668 0.749-0.939z"></path>
<path fill="#000072" style="fill: var(--color4, #000072)" d="M20.494 25.151c-0.222 0.422-0.52 0.841-0.957 1.061l-0.109-0.368c0.013 0.001 0.043-0.008 0.060-0.012 0.393-0.114 0.727-0.387 1.007-0.681h-0z"></path>
<path fill="#000072" style="fill: var(--color4, #000072)" d="M16.789 10.314c0.709-0.652 1.858-0.724 2.679-0.243 0.116 0.070 0.229 0.146 0.324 0.242-0.122-0.051-0.246-0.096-0.372-0.134-0.86-0.285-1.8-0.22-2.631 0.134v0z"></path>
</symbol>
<symbol id="logo-icon" viewBox="0 0 32 32">
<path fill="none" stroke="#fff" style="stroke: var(--color2, #fff)" stroke-linejoin="round" stroke-linecap="round" stroke-miterlimit="4" stroke-width="2.6667" d="M26.427 2.667h-20.853c-1.605 0-2.907 1.301-2.907 2.907v0 20.853c0 1.605 1.301 2.907 2.907 2.907v0h20.853c1.605 0 2.907-1.301 2.907-2.907v0-20.853c0-1.605-1.301-2.907-2.907-2.907v0zM9.333 2.667v26.667M22.667 2.667v26.667M2.667 16h26.667M2.667 9.333h6.667M2.667 22.667h6.667M22.667 22.667h6.667M22.667 9.333h6.667"></path>
</symbol>
<symbol id="modal-close" viewBox="0 0 32 32">
<path stroke-linejoin="miter" stroke-linecap="butt" stroke-miterlimit="4" stroke-width="2.1333" d="M8.533 8.533l14.933 14.933"></path>
<path stroke-linejoin="miter" stroke-linecap="butt" stroke-miterlimit="4" stroke-width="2.1333" d="M8.533 23.467l14.933-14.933"></path>
</symbol>
<symbol id="search" viewBox="0 0 32 32">
<path fill="none" stroke="#fff" style="stroke: var(--color2, #fff)" stroke-linejoin="round" stroke-linecap="round" stroke-miterlimit="4" stroke-width="2.6667" d="M14.667 25.333c5.891 0 10.667-4.776 10.667-10.667s-4.776-10.667-10.667-10.667v0c-5.891 0-10.667 4.776-10.667 10.667s4.776 10.667 10.667 10.667v0zM28 28l-5.8-5.8"></path>
</symbol>
</defs>
</svg>

