<?xml version="1.0" encoding="utf-8"?>
<!-- Generator: Adobe Illustrator 22.1.0, SVG Export Plug-In . SVG Version: 6.00 Build 0)  -->
<svg version="1.1" id="Слой_1" xmlns="http://www.w3.org/2000/svg" xmlns:xlink="http://www.w3.org/1999/xlink" x="0px" y="0px"
	 viewBox="0 0 241 77.8" style="enable-background:new 0 0 241 77.8;" xml:space="preserve">
<path id="XMLID_65_" d="M46.3,55.4H9.1c-5,0-9.1-4.1-9.1-9.1V9.1C0,4.1,4.1,0,9.1,0h37.2c5,0,9.1,4.1,9.1,9.1v37.2
	C55.4,51.3,51.3,55.4,46.3,55.4z M9.1,2.9C5.7,2.9,3,5.7,3,9v37.2c0,3.4,2.8,6.1,6.1,6.1h37.2c3.4,0,6.1-2.8,6.1-6.1V9.1
	c0-3.4-2.8-6.1-6.1-6.1H9.1V2.9z"/>
<path id="XMLID_61_" d="M21,20.5c0-2.8-1.1-9.3-5.3-9.3s-5.3,6.5-5.3,9.3c0,2.3,1.6,4.2,3.8,4.7l-1,17.4c-0.1,0.9,0.7,1.6,1.5,1.6
	h2.1c0.9,0,1.6-0.7,1.5-1.6l-1-17.4C19.4,24.7,21,22.8,21,20.5z M45,26.3V13.9c0-1.5-1.2-2.7-2.7-2.7h-0.5c-1.3,0-2.7,2-3.4,6.8
	l-0.9,7.3c-0.3,2.1,0.2,4.9,2.8,5.9l0.6,0.2l-1.1,11.2c-0.1,0.9,0.7,1.6,1.5,1.6h2.1c0.9,0,1.6-0.7,1.5-1.6
	C44.9,42.6,45,26.3,45,26.3z M34.4,22.2l-1-9.5c-0.1-0.7-0.5-1.2-1.1-1.4v8.4H31v-8.5h-1.2v8.5h-1.2v-8.5h-1.2v8.5h-1.2v-8.4
	c-0.6,0.2-1.1,0.8-1.1,1.4l-1,9.5c-0.2,1.7,1.1,3.1,2.8,3.1h0.8l-1,17.3c-0.1,0.9,0.7,1.6,1.5,1.6h2.1c0.9,0,1.6-0.7,1.5-1.6
	l-1-17.3h0.8C33.3,25.3,34.6,23.9,34.4,22.2z"/>
<g id="XMLID_55_">
	<path id="XMLID_56_" d="M23.1,69.1v0.6c0,0.3-0.1,0.4-0.5,0.4h-4v2.3H22c0.3,0,0.4,0.1,0.4,0.4v0.6c0,0.3-0.1,0.4-0.4,0.4h-3.4v2.4
		h4.2c0.3,0,0.4,0.1,0.4,0.4v0.6c0,0.3-0.1,0.4-0.4,0.4h-5.4c-0.3,0-0.5-0.1-0.5-0.4v-8.4c0-0.3,0.1-0.4,0.5-0.4h5.2
		C23,68.7,23.1,68.8,23.1,69.1z M31.9,77.6h-0.7c-0.6,0-0.7-0.1-0.8-0.4l-0.6-1.7h-3.6l-0.6,1.7c-0.1,0.3-0.3,0.4-0.8,0.4h-0.6
		c-0.3,0-0.4-0.1-0.3-0.4l3.3-8.5c0.1-0.3,0.2-0.4,0.6-0.4h0.7c0.3,0,0.4,0.1,0.6,0.4l3.3,8.6C32.3,77.5,32.2,77.6,31.9,77.6z
		 M28,69.8c-0.1,0-0.1,0.8-0.4,1.6l-1,2.8h2.7l-1-2.8C28,70.6,28,69.8,28,69.8z M38.6,68.7v0.6c0,0.3-0.1,0.4-0.4,0.4h-2.3V77
		c0,0.3-0.1,0.4-0.4,0.4h-0.8c-0.3,0-0.4-0.1-0.4-0.4v-7.3H32c-0.3,0-0.4-0.1-0.4-0.4v-0.6c0-0.3,0.1-0.4,0.4-0.4h6.2
		C38.5,68.3,38.6,68.4,38.6,68.7z"/>
</g>
<g id="XMLID_33_">
	<path id="XMLID_52_" d="M108.2,55.4H71c-5,0-9.1-4.1-9.1-9.1V9.1C61.9,4.1,66,0,71,0h37.2c5,0,9.1,4.1,9.1,9.1v37.2
		C117.3,51.3,113.2,55.4,108.2,55.4z M71,2.9c-3.4,0-6.1,2.8-6.1,6.1v37.2c0,3.4,2.8,6.1,6.1,6.1h37.2c3.4,0,6.1-2.8,6.1-6.1V9.1
		c0-3.4-2.8-6.1-6.1-6.1H71V2.9z"/>
	<circle id="XMLID_51_" cx="77" cy="26.9" r="3.7"/>
	<path id="XMLID_42_" d="M81.8,23.2V32h24.1v-2.8c0-3.3-2.7-6-6-6H81.8z M80.8,33.5C80.7,33.5,80.7,33.4,80.8,33.5
		c-0.1-0.9-0.7-1.5-1.5-1.5h-7.1c-0.8,0-1.4,0.6-1.4,1.4v7.9c0,0.7,0.6,1.3,1.3,1.3h1.8c0.3,0,0.6-0.1,0.9-0.4l1.7-1.7h26.3l1.7,1.7
		c0.2,0.2,0.5,0.4,0.9,0.4h1.8c0.7,0,1.3-0.6,1.3-1.3v-7.9C108.5,33.4,80.8,33.5,80.8,33.5z M82.5,20.9c-0.7,0-1.3-0.6-1.3-1.3
		c0-0.7,0.6-1.3,1.3-1.3c0.7,0,1.3,0.6,1.3,1.3C83.8,20.3,83.2,20.9,82.5,20.9z M82.5,19.2c-0.2,0-0.3,0.2-0.3,0.3
		c0,0.2,0.2,0.3,0.3,0.3c0.2,0,0.3-0.2,0.3-0.3C82.8,19.4,82.7,19.2,82.5,19.2z M85.9,19.2c-1,0-1.8-0.8-1.8-1.8s0.8-1.8,1.8-1.8
		s1.8,0.8,1.8,1.8S86.9,19.2,85.9,19.2z M85.9,16.6c-0.5,0-0.8,0.4-0.8,0.8c0,0.5,0.4,0.8,0.8,0.8c0.5,0,0.8-0.4,0.8-0.8
		C86.7,16.9,86.3,16.6,85.9,16.6z M97.6,15.7h-8.2c-1.5,0-2.7-1.2-2.7-2.7s1.2-2.7,2.7-2.7h0.2c0.5-1.7,2.1-2.9,3.9-2.9
		c1.2,0,2.3,0.5,3.1,1.4c0.3-0.1,0.7-0.1,1-0.1c1.9,0,3.5,1.6,3.5,3.5S99.5,15.7,97.6,15.7z M89.4,11.4c-0.9,0-1.7,0.8-1.7,1.7
		s0.8,1.7,1.7,1.7h8.2c1.4,0,2.5-1.1,2.5-2.5S99,9.8,97.6,9.8c-0.3,0-0.7,0.1-1,0.2l-0.4,0.2L96,9.8c-0.6-0.8-1.5-1.3-2.5-1.3
		c-1.5,0-2.8,1.1-3.1,2.5l-0.1,0.5l-0.5-0.1H89.4z"/>
	<g id="XMLID_34_">
		<path id="XMLID_35_" d="M74.5,68.1c1.9,0,2.8,0.7,3.5,2c0.1,0.3,0.1,0.5-0.2,0.6L77,71c-0.3,0.1-0.4,0.1-0.6-0.2
			c-0.4-0.7-0.9-1.1-1.9-1.1c-1.3,0-1.9,0.4-1.9,1.2c0,0.9,1.1,1.1,2.3,1.2c1.6,0.2,3.3,0.6,3.3,2.7c0,1.7-1.3,2.9-3.7,2.9
			c-2,0-3.1-0.8-3.6-2.2c-0.1-0.3,0-0.5,0.3-0.6l0.7-0.3c0.3-0.1,0.4,0,0.6,0.3c0.3,0.8,1,1.2,2.1,1.2c1.4,0,2.1-0.4,2.1-1.4
			c0-0.9-1-1.1-2.1-1.2C73,73.3,71,73.1,71,70.8C70.9,69.3,72.1,68.1,74.5,68.1z M81.2,68.7V76H85c0.3,0,0.4,0.1,0.4,0.4V77
			c0,0.3-0.1,0.4-0.4,0.4h-5c-0.3,0-0.5-0.1-0.5-0.4v-8.4c0-0.3,0.1-0.4,0.5-0.4h0.7C81.1,68.3,81.2,68.4,81.2,68.7z M92.6,68.9v0.6
			c0,0.3-0.1,0.4-0.5,0.4h-4v2.3h3.4c0.3,0,0.4,0.1,0.4,0.4v0.6c0,0.3-0.1,0.4-0.4,0.4h-3.4V76h4.2c0.3,0,0.4,0.1,0.4,0.4V77
			c0,0.3-0.1,0.4-0.4,0.4H87c-0.3,0-0.5-0.1-0.5-0.4v-8.4c0-0.3,0.1-0.4,0.5-0.4h5.2C92.5,68.5,92.6,68.6,92.6,68.9z M100.2,68.9
			v0.6c0,0.3-0.1,0.4-0.5,0.4h-4v2.3h3.4c0.3,0,0.4,0.1,0.4,0.4v0.6c0,0.3-0.1,0.4-0.4,0.4h-3.4V76h4.2c0.3,0,0.4,0.1,0.4,0.4V77
			c0,0.3-0.1,0.4-0.4,0.4h-5.4c-0.3,0-0.5-0.1-0.5-0.4v-8.4c0-0.3,0.1-0.4,0.5-0.4h5.2C100.1,68.5,100.2,68.6,100.2,68.9z
			 M108.8,71.4c0,1.9-1.2,3-3.1,3h-2.3v2.8c0,0.3-0.1,0.4-0.4,0.4h-0.7c-0.3,0-0.5-0.1-0.5-0.4v-8.4c0-0.3,0.1-0.4,0.5-0.4h3.5
			C107.5,68.3,108.8,69.4,108.8,71.4z M107,71.4c0-0.9-0.6-1.5-1.5-1.5h-2.1v3h2.1C106.5,72.8,107,72.3,107,71.4z"/>
	</g>
</g>
<g id="XMLID_17_">
	<path id="XMLID_30_" d="M170,55.4h-37.2c-5,0-9.1-4.1-9.1-9.1V9.1c0-5,4.1-9.1,9.1-9.1H170c5,0,9.1,4.1,9.1,9.1v37.2
		C179.1,51.3,175.1,55.4,170,55.4z M132.9,2.9c-3.4,0-6.1,2.8-6.1,6.1v37.2c0,3.4,2.8,6.1,6.1,6.1H170c3.4,0,6.1-2.8,6.1-6.1V9.1
		c0-3.4-2.8-6.1-6.1-6.1h-37.1V2.9z"/>
	<path id="XMLID_26_" d="M143.5,22.4v1.2c0,1.1-0.2,1.2-0.9,1.6l-6.5,3.3v0.1l6.5,3.2c0.7,0.4,0.9,0.5,0.9,1.6v1.4
		c0,0.9-0.3,1.2-1,0.8l-9.8-5.3c-0.6-0.3-0.8-0.5-0.8-1.2v-0.9c0-0.7,0.2-0.9,0.8-1.2l9.8-5.3C143.2,21.2,143.5,21.5,143.5,22.4z
		 M148.1,39.8h-1.6c-0.7,0-0.8-0.3-0.6-0.8l7.7-20.7c0.3-0.6,0.5-0.8,1.2-0.8h1.7c0.7,0,0.8,0.3,0.6,0.8L149.3,39
		C149,39.6,148.8,39.8,148.1,39.8z M160.5,21.6l9.8,5.3c0.6,0.3,0.8,0.5,0.8,1.2V29c0,0.7-0.2,0.9-0.8,1.2l-9.8,5.3
		c-0.8,0.4-1,0.1-1-0.8v-1.2c0-1.1,0.2-1.2,0.9-1.6l6.5-3.3v-0.2l-6.5-3.2c-0.7-0.3-0.9-0.5-0.9-1.6v-1.4
		C159.4,21.5,159.7,21.2,160.5,21.6z"/>
	<g id="XMLID_18_">
		<path id="XMLID_19_" d="M139.1,68.1c1.9,0,3.1,0.8,3.6,2.2c0.1,0.3,0,0.5-0.3,0.6l-0.7,0.2c-0.3,0.1-0.4,0.1-0.6-0.3
			c-0.3-0.8-0.9-1.2-2-1.2c-1.4,0-2.1,0.7-2.1,1.9v2.9c0,1.2,0.7,1.9,2.1,1.9c1.1,0,1.7-0.4,2-1.2c0.1-0.3,0.3-0.4,0.6-0.3l0.7,0.2
			c0.3,0.1,0.4,0.3,0.3,0.6c-0.5,1.4-1.6,2.2-3.6,2.2c-2.4,0-3.8-1.3-3.8-3.4v-2.9C135.3,69.4,136.6,68.1,139.1,68.1L139.1,68.1z
			 M147.5,68.1c2.4,0,3.7,1.3,3.7,3.4v2.9c0,2.1-1.3,3.4-3.7,3.4s-3.8-1.3-3.8-3.4v-2.9C143.7,69.4,145.1,68.1,147.5,68.1z
			 M147.5,69.6c-1.4,0-2.1,0.7-2.1,1.9v2.9c0,1.2,0.7,1.9,2.1,1.9c1.3,0,2.1-0.7,2.1-1.9v-2.9C149.6,70.3,148.8,69.6,147.5,69.6z
			 M160,71.8v2.4c0,2.1-1.4,3.5-3.8,3.5h-2.9c-0.3,0-0.5-0.1-0.5-0.4v-8.4c0-0.3,0.1-0.4,0.5-0.4h2.9C158.6,68.3,160,69.6,160,71.8z
			 M156.2,69.8h-1.8v6.3h1.8c1.4,0,2.2-0.7,2.2-1.9v-2.4C158.3,70.5,157.6,69.8,156.2,69.8z M167.7,68.7v0.6c0,0.3-0.1,0.4-0.5,0.4
			h-4V72h3.4c0.3,0,0.4,0.1,0.4,0.4V73c0,0.3-0.1,0.4-0.4,0.4h-3.4v2.4h4.2c0.3,0,0.4,0.1,0.4,0.4v0.6c0,0.3-0.1,0.4-0.4,0.4H162
			c-0.3,0-0.5-0.1-0.5-0.4v-8.4c0-0.3,0.1-0.4,0.5-0.4h5.2C167.5,68.3,167.7,68.4,167.7,68.7z"/>
	</g>
</g>
<g id="XMLID_1_">
	<path id="XMLID_14_" d="M231.9,55.4h-37.2c-5,0-9.1-4.1-9.1-9.1V9.1c0-5,4.1-9.1,9.1-9.1h37.2c5,0,9.1,4.1,9.1,9.1v37.2
		C241,51.3,236.9,55.4,231.9,55.4z M194.7,2.9c-3.4,0-6.1,2.8-6.1,6.1v37.2c0,3.4,2.8,6.1,6.1,6.1h37.2c3.4,0,6.1-2.8,6.1-6.1V9.1
		c0-3.4-2.8-6.1-6.1-6.1h-37.2V2.9z"/>
	<path id="XMLID_13_" d="M217.1,23.7l11.4,3.7c0.4,0.1,0.9-0.2,0.9-0.6V14.9c0-0.6-0.6-0.9-1.1-0.6l-3.2,2.3c-3-3-7-4.7-11.3-4.7
		c-8.8,0-15.9,7.1-15.9,15.9s7.1,15.9,15.9,15.9c7.2,0,13.5-4.8,15.4-11.8l-5.1-1.4c-1.2,4.6-5.5,7.9-10.3,7.9
		c-5.9,0-10.6-4.8-10.6-10.6s4.8-10.6,10.6-10.6c2.6,0,5,0.9,6.9,2.6l-3.9,2.8C216.5,22.8,216.6,23.5,217.1,23.7L217.1,23.7z"/>
	<g id="XMLID_2_">
		<path id="XMLID_3_" d="M197.8,71.2c0,1.4-0.6,2.3-1.7,2.7c0.2,0.1,0.3,0.3,0.4,0.6l1.4,2.8c0.1,0.2,0.1,0.4-0.2,0.4h-0.8
			c-0.6,0-0.7-0.1-0.9-0.4l-1.1-2.2c-0.3-0.7-0.7-0.9-1.6-0.9h-1v3.1c0,0.3-0.1,0.4-0.4,0.4h-0.7c-0.3,0-0.5-0.1-0.5-0.4v-8.4
			c0-0.3,0.1-0.4,0.5-0.4h3.6C196.7,68.3,197.8,69.4,197.8,71.2z M194.7,69.8h-2.3v2.7h2.3c0.9,0,1.4-0.5,1.4-1.4
			C196.1,70.3,195.6,69.8,194.7,69.8z M205.4,69.2v0.6c0,0.3-0.1,0.4-0.5,0.4h-4v2.3h3.4c0.3,0,0.4,0.1,0.4,0.4v0.6
			c0,0.3-0.1,0.4-0.4,0.4H201v2.4h4.2c0.3,0,0.4,0.1,0.4,0.4v0.6c0,0.3-0.1,0.4-0.4,0.4h-5.4c-0.3,0-0.5-0.1-0.5-0.4v-8.4
			c0-0.3,0.1-0.4,0.5-0.4h5.2C205.3,68.8,205.4,68.9,205.4,69.2z M214,71.4c0,1.9-1.2,3-3.1,3h-2.3v2.8c0,0.3-0.1,0.4-0.4,0.4h-0.7
			c-0.3,0-0.5-0.1-0.5-0.4v-8.4c0-0.3,0.1-0.4,0.5-0.4h3.5C212.7,68.3,214,69.4,214,71.4z M212.2,71.4c0-0.9-0.6-1.5-1.5-1.5h-2.1v3
			h2.1C211.7,72.8,212.2,72.3,212.2,71.4z M221.4,69v0.6c0,0.3-0.1,0.4-0.5,0.4h-4v2.3h3.4c0.3,0,0.4,0.1,0.4,0.4v0.6
			c0,0.3-0.1,0.4-0.4,0.4h-3.4v2.4h4.2c0.3,0,0.4,0.1,0.4,0.4v0.6c0,0.3-0.1,0.4-0.4,0.4h-5.4c-0.3,0-0.5-0.1-0.5-0.4v-8.4
			c0-0.3,0.1-0.4,0.5-0.4h5.2C221.2,68.6,221.4,68.7,221.4,69z M230.1,77.6h-0.7c-0.6,0-0.7-0.1-0.8-0.4l-0.6-1.7h-3.6l-0.6,1.7
			c-0.1,0.3-0.3,0.4-0.8,0.4h-0.6c-0.3,0-0.4-0.1-0.3-0.4l3.3-8.5c0.1-0.3,0.2-0.4,0.6-0.4h0.7c0.3,0,0.4,0.1,0.6,0.4l3.3,8.6
			C230.5,77.5,230.4,77.6,230.1,77.6L230.1,77.6z M226.2,69.8c-0.1,0-0.1,0.8-0.4,1.6l-1,2.8h2.7l-1-2.8
			C226.3,70.6,226.3,69.8,226.2,69.8z M236.8,68.7v0.6c0,0.3-0.1,0.4-0.4,0.4h-2.3V77c0,0.3-0.1,0.4-0.4,0.4h-0.8
			c-0.3,0-0.4-0.1-0.4-0.4v-7.3h-2.3c-0.3,0-0.4-0.1-0.4-0.4v-0.6c0-0.3,0.1-0.4,0.4-0.4h6.2C236.7,68.3,236.8,68.4,236.8,68.7z"/>
	</g>
</g>
</svg>
